<svg xmlns="http://www.w3.org/2000/svg" viewBox="0 0 75 110"><path class="st0" d="M67.2 14.1C62.6 4.8 55.3 3.8 48.1 7.6c-5.8 3.1-22.3 13.1-22.3 13.1v11.8s18.8-10.9 22.3-12.7c4.3-2.3 8.7-1.6 11.5 3.9 2.8 5.6 2.7 15-1.8 22.5-3.5 5.9-6.8 8.6-9.9 10.3S25.8 69.4 25.8 69.4v11.8s16.8-9.6 22-12.4c5.1-2.8 10.5-7.3 16.4-17.1 7.5-12.6 7.6-28.3 3-37.6z"/><path class="st0" d="M50.8 40.9c1.5-2.5 1.5-5.6.6-7.4-.9-1.8-2.4-2-3.8-1.3-1.1.6-21.9 12.4-21.9 12.4v11.8s20.8-11.6 21.8-12.2c1.1-.5 2.2-1.4 3.3-3.3zM25.8 105.5l11-6.3V87.4l-11 6.3v11.8z"/><g><path class="st1" d="M25.8 32.5l-11-6.4V14.3l11 6.4v11.8zM25.8 56.4l-22-12.6V32l22 12.6v11.8zM25.8 81.1l-5.6-3.2V66.1l5.6 3.2v11.8zM25.8 105.5L9.5 96.1V84.3l16.3 9.4v11.8z"/></g></svg>