<svg width="100%" viewBox="0 0 89 92" fill="none" xmlns="http://www.w3.org/2000/svg">
<path d="M8.24807 29.1005C7.77925 24.64 8.71629 20.9575 11.069 18.0521C13.4218 15.1467 16.829 13.4645 21.2896 12.9957L40.5892 10.9672C52.0114 9.76666 60.7441 11.1087 66.796 14.9825C72.8418 18.7972 76.2628 24.5404 77.0701 32.2208C77.8773 39.9013 75.7354 46.3287 70.6356 51.5139C65.5286 56.6302 57.2689 59.7881 45.8467 60.9887L41.1202 61.4854L41.7619 67.5904C42.2307 72.051 41.2937 75.7335 38.9409 78.6389C36.5882 81.5443 33.181 83.2265 28.7204 83.6953C24.2598 84.1641 20.5773 83.2271 17.6719 80.8744C14.7665 78.5216 13.0843 75.1144 12.6155 70.6538L8.24807 29.1005ZM37.9326 31.1574L39.1745 42.9736L43.1132 42.5596C45.0826 42.3526 46.5737 41.6682 47.5756 40.4977C48.5714 39.268 48.9805 37.7616 48.7942 35.9892C48.6079 34.2168 47.8987 32.8677 46.6752 31.931C45.4456 30.9353 43.8407 30.5365 41.8713 30.7435L37.9326 31.1574Z" fill="white"/>
<path fill-rule="evenodd" clip-rule="evenodd" d="M74.8564 55.6953L74.8409 55.7108C68.5619 62.0012 59.1433 65.4041 47.6492 66.7649L47.6707 66.9695C48.2684 72.6564 47.0992 78.0049 43.5584 82.3775C40.0176 86.75 35.029 89.0057 29.3421 89.6034C23.6553 90.2011 18.3067 89.0319 13.9342 85.4911C9.56162 81.9503 7.30593 76.9617 6.70822 71.2749L2.34079 29.7216C1.74308 24.0347 2.91229 18.6861 6.4531 14.3136C9.99392 9.94106 14.9825 7.68538 20.6694 7.08766L39.969 5.05919C51.9777 3.79702 62.2961 5.05612 69.9827 9.96846C77.6953 14.8414 81.9998 22.285 82.9789 31.5999C83.9583 40.9189 81.303 49.1407 74.8718 55.6796L74.8564 55.6953ZM41.7626 67.5905C42.2315 72.0511 41.2944 75.7335 38.9417 78.6389C36.5889 81.5444 33.1817 83.2265 28.7212 83.6954C24.2606 84.1642 20.5781 83.2272 17.6727 80.8744C14.7673 78.5217 13.0851 75.1145 12.6163 70.6539L8.24884 29.1006C7.78002 24.64 8.71706 20.9576 11.0698 18.0521C13.4226 15.1467 16.8297 13.4645 21.2903 12.9957L40.59 10.9672C52.0122 9.76671 60.7449 11.1088 66.7968 14.9825C72.8425 18.7972 76.2636 24.5404 77.0708 32.2209C77.8781 39.9013 75.7362 46.3288 70.6364 51.514C65.5294 56.6303 57.2697 59.7882 45.8474 60.9887L41.121 61.4855L41.7626 67.5905ZM45.0618 42.1476C44.4754 42.3476 43.826 42.4848 43.114 42.5596L39.1753 42.9736L37.9334 31.1575L41.8721 30.7435C42.584 30.6687 43.2483 30.673 43.8645 30.7561C44.9528 30.9029 45.8909 31.2953 46.676 31.9311C47.8994 32.8677 48.6087 34.2168 48.795 35.9892C48.9813 37.7616 48.5721 39.2681 47.5764 40.4977C46.9367 41.2451 46.0975 41.7943 45.0618 42.1476Z" fill="black"/>
<path fill-rule="evenodd" clip-rule="evenodd" d="M33.8554 17.6484C33.7983 17.1046 34.1928 16.6174 34.7366 16.5602L36.6863 16.3553C37.2301 16.2982 37.7173 16.6927 37.7744 17.2365C37.8316 17.7803 37.4371 18.2675 36.8933 18.3247L34.9436 18.5296C34.3998 18.5868 33.9126 18.1922 33.8554 17.6484ZM40.2263 16.9788C40.1691 16.435 40.5636 15.9478 41.1075 15.8906C51.175 14.8325 58.9789 15.8587 64.1212 19.1534C68.9577 22.2098 71.4997 26.5754 72.1475 32.7384C72.2046 33.2822 71.8101 33.7694 71.2663 33.8265C70.7225 33.8837 70.2353 33.4892 70.1781 32.9454C69.5862 27.3131 67.3293 23.5223 63.0609 20.8259L63.0554 20.8224C58.4837 17.8919 51.2339 16.8174 41.3144 17.86C40.7706 17.9171 40.2834 17.5226 40.2263 16.9788ZM17.6954 62.1457C18.2392 62.0886 18.7264 62.4831 18.7835 63.0269L19.0154 65.2326C19.0725 65.7764 18.678 66.2636 18.1342 66.3207C17.5904 66.3779 17.1032 65.9834 17.046 65.4396L16.8142 63.2339C16.757 62.6901 17.1515 62.2029 17.6954 62.1457ZM18.4209 69.0483C18.9647 68.9911 19.4519 69.3856 19.509 69.9295C19.793 72.6312 20.6582 74.3787 22.032 75.4911C23.4058 76.6036 25.295 77.0866 27.9967 76.8027C30.6985 76.5187 32.446 75.6535 33.5584 74.2797C33.9026 73.8547 34.526 73.7892 34.951 74.1333C35.3759 74.4774 35.4415 75.1009 35.0973 75.5259C33.5486 77.4383 31.2328 78.4537 28.2037 78.772C25.1746 79.0904 22.6983 78.5787 20.7859 77.0301C18.8734 75.4814 17.858 73.1656 17.5397 70.1365C17.4825 69.5926 17.877 69.1054 18.4209 69.0483Z" fill="black"/>
</svg>
