<svg width="100%" viewBox="0 0 89 91" fill="none" xmlns="http://www.w3.org/2000/svg">
<path d="M8.24807 28.2225C7.77925 23.7619 8.71629 20.0794 11.069 17.174C13.4218 14.2686 16.829 12.5864 21.2896 12.1176L40.5892 10.0891C52.0114 8.88859 60.7441 10.2307 66.796 14.1044C72.8418 17.9191 76.2628 23.6623 77.0701 31.3427C77.8773 39.0232 75.7354 45.4506 70.6356 50.6359C65.5286 55.7522 57.2689 58.9101 45.8467 60.1106L41.1202 60.6074L41.7619 66.7124C42.2307 71.1729 41.2937 74.8554 38.9409 77.7608C36.5882 80.6662 33.181 82.3484 28.7204 82.8173C24.2598 83.2861 20.5773 82.349 17.6719 79.9963C14.7665 77.6435 13.0843 74.2363 12.6155 69.7758L8.24807 28.2225ZM37.9326 30.2794L39.1745 42.0955L43.1132 41.6815C45.0826 41.4745 46.5737 40.7902 47.5756 39.6196C48.5714 38.39 48.9805 36.8835 48.7942 35.1111C48.6079 33.3387 47.8987 31.9896 46.6752 31.0529C45.4456 30.0572 43.8407 29.6584 41.8713 29.8654L37.9326 30.2794Z" fill="black"/>
<path fill-rule="evenodd" clip-rule="evenodd" d="M74.8564 54.8172L74.8409 54.8328C68.5619 61.1231 59.1433 64.526 47.6492 65.8868L47.6707 66.0915C48.2684 71.7783 47.0992 77.1269 43.5584 81.4994C40.0176 85.872 35.029 88.1277 29.3421 88.7254C23.6553 89.3231 18.3067 88.1539 13.9342 84.6131C9.56162 81.0722 7.30593 76.0837 6.70822 70.3968L2.34079 28.8435C1.74308 23.1566 2.91229 17.8081 6.4531 13.4356C9.99392 9.06301 14.9825 6.80732 20.6694 6.20961L39.969 4.18114C51.9777 2.91897 62.2961 4.17807 69.9827 9.09041C77.6953 13.9633 81.9998 21.4069 82.9789 30.7219C83.9583 40.0408 81.303 48.2626 74.8718 54.8015L74.8564 54.8172ZM41.7626 66.7124C42.2315 71.173 41.2944 74.8555 38.9417 77.7609C36.5889 80.6663 33.1817 82.3485 28.7212 82.8173C24.2606 83.2861 20.5781 82.3491 17.6727 79.9964C14.7673 77.6436 13.0851 74.2364 12.6163 69.7758L8.24884 28.2226C7.78002 23.762 8.71706 20.0795 11.0698 17.1741C13.4226 14.2687 16.8297 12.5865 21.2903 12.1177L40.59 10.0892C52.0122 8.88866 60.7449 10.2307 66.7968 14.1045C72.8425 17.9192 76.2636 23.6624 77.0708 31.3428C77.8781 39.0233 75.7362 45.4507 70.6364 50.6359C65.5294 55.7522 57.2697 58.9102 45.8474 60.1107L41.121 60.6074L41.7626 66.7124ZM45.0618 41.2695C44.4754 41.4695 43.826 41.6068 43.114 41.6816L39.1753 42.0956L37.9334 30.2795L41.8721 29.8655C42.584 29.7907 43.2483 29.795 43.8645 29.8781C44.9528 30.0248 45.8909 30.4172 46.676 31.053C47.8994 31.9897 48.6087 33.3388 48.795 35.1112C48.9813 36.8836 48.5721 38.3901 47.5764 39.6197C46.9367 40.3671 46.0975 40.9162 45.0618 41.2695Z" fill="white"/>
<path fill-rule="evenodd" clip-rule="evenodd" d="M33.8554 16.7704C33.7983 16.2265 34.1928 15.7393 34.7366 15.6822L36.6863 15.4773C37.2301 15.4201 37.7173 15.8146 37.7744 16.3585C37.8316 16.9023 37.4371 17.3895 36.8933 17.4466L34.9436 17.6515C34.3998 17.7087 33.9126 17.3142 33.8554 16.7704ZM40.2263 16.1008C40.1691 15.5569 40.5636 15.0697 41.1075 15.0126C51.175 13.9544 58.9789 14.9806 64.1212 18.2754C68.9577 21.3317 71.4997 25.6973 72.1475 31.8603C72.2046 32.4041 71.8101 32.8913 71.2663 32.9485C70.7225 33.0056 70.2353 32.6111 70.1781 32.0673C69.5862 26.435 67.3293 22.6442 63.0609 19.9478L63.0554 19.9443C58.4837 17.0138 51.2339 15.9394 41.3144 16.9819C40.7706 17.0391 40.2834 16.6446 40.2263 16.1008ZM17.6954 61.2677C18.2392 61.2105 18.7264 61.605 18.7835 62.1488L19.0154 64.3545C19.0725 64.8983 18.678 65.3855 18.1342 65.4427C17.5904 65.4998 17.1032 65.1053 17.046 64.5615L16.8142 62.3558C16.757 61.812 17.1515 61.3248 17.6954 61.2677ZM18.4209 68.1702C18.9647 68.1131 19.4519 68.5076 19.509 69.0514C19.793 71.7531 20.6582 73.5006 22.032 74.6131C23.4058 75.7256 25.295 76.2086 27.9967 75.9246C30.6985 75.6407 32.446 74.7754 33.5584 73.4016C33.9026 72.9767 34.526 72.9111 34.951 73.2553C35.3759 73.5994 35.4415 74.2228 35.0973 74.6478C33.5486 76.5603 31.2328 77.5756 28.2037 77.894C25.1746 78.2124 22.6983 77.7007 20.7859 76.152C18.8734 74.6033 17.858 72.2875 17.5397 69.2584C17.4825 68.7146 17.877 68.2274 18.4209 68.1702Z" fill="white"/>
</svg>
