<svg xmlns="http://www.w3.org/2000/svg" width="100%" fill="none" viewBox="0 0 208 56">
	<title id="titleID">The Pudding lol</title>
    <g aria-labelledby="titleID">
        <path fill="#fff" d="M117.3 46.6h3.8a92 92 0 0 1 6.6 0H172.6l2.4.4c1 .4 1.8 1.2 2.9 2.2 1.3 1.4 3 3 5.9 3.9 2.1.7 4.3 1.1 6.5 1.1 5.4 0 10.4-2.3 13.3-6.2 2.6-3.6 3.2-8.3 1.7-13.1v-.2c-.4-1.5-.2-3.1 0-5 .3-1.1.4-2.3.4-3.6v-2.5c0-2.6.1-5.5-1.1-8.2v-.1c-1-1.7-2.2-3-3.3-4.2l-.7-.8c-2.8-3.4-5.8-5.2-8.8-5.2-1 0-2 .3-3 .7a43 43 0 0 1-11.1 3c-1 0-2-.3-3.2-.6l-1.4-.4c-1-.2-2-.4-3.2-.4l-2.8.2c-1.6.1-3 .2-4 0-1-.3-1.9-1.3-2.8-2.3l-.2-.2a10.9 10.9 0 0 0-9-4.1c-1.7 0-3.5.3-5 .6l-2.7.1c-4 .2-7 .3-11 4.6l-.4.4-.3-.4c-.4-.2-.8-.6-1-.9l-1.2-1.2c-2-1.5-4.5-2.4-7.2-2.4s-5.4 1-7.3 2.6l-.2.2-.6.7c-1.9 2-2.8 3-4.4 3-.5 0-1 0-1.5-.2h-.1c-2.6-.4-5.2-.5-7.6-.5h-3.2c-2 0-4.4 0-6.5-.4-1-.2-2.1-.8-3.2-1.4l-2.2-1.1c-2.7-1.2-6.7-2-10.3-2-2.5 0-6 .4-8.5 2-1 .8-1.8 1.8-2.4 2.5l-1 1.2H63l-.1.1-1.8-.3-1-.3a18 18 0 0 0-10.5.4l-.5.1c-1.3.5-2.6.9-3.5.7-2.8-.8-5-1.8-6.4-3.2-2.5-2.6-5.4-4-8.4-4-2.3-.2-4.7.2-7 .5-1.8.3-3.4.5-5 .5h-8.5C7 3.3 4.8 4.3 3.2 6c-2.5 3-2.3 7-2 10 .1 2.6 1.4 4.6 2.5 6.1.4.6.8 1.2 1 1.8.7 1.4.6 3.3.5 5.3-.2 2.6-.3 5.5 1 8.2 1.4 2.5 3.5 4.5 5.3 6.3l.4.4.1.1c2.6 2.3 5.9 2.5 8.4 2.5h.7c2-.2 4-.2 6.4-.2a217.1 217.1 0 0 1 13.8.3l3.2-.1c1.6 0 3-.3 4.5-.6 2-.3 4-.6 5.5-.2a23 23 0 0 0 12.2.3c1-.2 1.8-.4 2.6-.4 1.2 0 2.4.2 3.7.4 1.7.3 3.4.5 5.1.5 2 0 3.9-.4 5.5-1.1a8.2 8.2 0 0 0 3.6-3.3l.6-.8.4-.5.4.4.4.5.2.2c2.8 3.2 6.2 4.9 9.8 4.7a201.7 201.7 0 0 1 17.8-.2h.5Zm-7-2.6-11.4.3h-.4c-3 0-5.5-1.6-7.5-3.9-.5-.6-1.1-1.2-1.8-1.6l-1.1-.3c-2.4 0-3.2 4-5.5 4.8-1.4.7-3 1-4.5 1-2.9 0-5.9-1-8.8-1-1.5 0-3 .5-4.6.8-1 .2-2.1.3-3.2.3-2.1 0-4.2-.4-6.3-.9a9 9 0 0 0-2.5-.3c-2.8 0-5.5 1-8.3 1h-3L27.4 44c-2.2 0-4.4 0-6.6.2h-.4c-2.4 0-5-.2-6.8-1.8-1.9-1.9-4-3.8-5.2-6.1-2.1-4.2.4-9.4-1.5-13.5-1.2-2.4-3.2-4.2-3.3-7-.7-5.5.2-10 6.7-10.3l3.3-.2 5 .1h.1c3.5 0 7.3-1 10.8-1h1c2.7 0 5 1.4 6.8 3.3 2 2 4.8 3 7.6 3.8l1.1.1c1.5 0 3-.5 4.3-1a15.2 15.2 0 0 1 9.1-.3c1 .3 2.2.7 3.3.7l1-.1c1.8-.5 2.6-3 4.2-4 1.8-1.2 4.4-1.6 7.2-1.6 3.4 0 7 .7 9.3 1.7 2 .9 3.7 2.2 5.8 2.7 2.4.4 4.7.5 7.1.5h3.1a41 41 0 0 1 9.2.7c3.1 0 4.6-2 7-4.6 1.4-1.3 3.5-2 5.6-2 2 0 4 .7 5.5 1.9 1.3 1 2.7 3 4.3 3 .5 0 1-.1 1.6-.7 4.3-4.8 6.6-4 12.6-4.4 1.7-.3 3.3-.6 4.8-.6 2.6 0 5 .8 7 3.3 1.3 1.3 2.5 2.8 4.4 3.2.7.2 1.5.2 2.3.2 1.7 0 3.3-.3 5-.3 1 0 1.8.1 2.7.4 1.7.4 3.4 1 5.1 1h.8A45 45 0 0 0 189.6 8c.8-.3 1.5-.4 2.2-.4 2.7 0 5 2.1 6.8 4.2 1.3 1.5 2.8 2.8 3.7 4.5 1.3 3 .8 6.5.9 9.7 0 3-1.2 6.1-.4 9.2v.2c3.1 9.8-4.1 16.2-12.6 16.2-1.8 0-3.8-.3-5.7-1-4.2-1.1-5.4-4.9-8.8-6-1-.3-2-.5-3-.5h-7.3l-28.1-.2a587.9 587.9 0 0 0-12.6 0l-7.4.1h-.4l-6.6-.1Z"/>
        <path fill="#000" d="M206.3 34.6v-.2c-.4-1.3-.2-2.8 0-4.5.2-1.2.4-2.4.4-3.8v-2.5c0-2.7.1-5.7-1.3-8.7a19.5 19.5 0 0 0-4.1-5.2c-3-3.7-6.2-5.5-9.5-5.5-1.2 0-2.4.2-3.6.7A42.1 42.1 0 0 1 178 7.8c-.9 0-2-.2-3.2-.6-.5 0-1-.2-1.4-.3-1.1-.3-2.3-.5-3.6-.5l-2.8.2c-1.5.1-2.8.2-3.7 0-.7-.2-1.5-1-2.3-2l-.2-.1c-2.4-3-5.6-4.5-9.7-4.5a29 29 0 0 0-5.2.6l-2.5.1c-4 .2-7.3.3-11.4 4.6l-.6-.6-1.3-1.2C128 1.8 125.2.8 122.3.8c-3 0-5.9 1-8 2.8l-.9 1c-2 2.2-2.5 2.8-3.7 2.8l-1.2-.2h-.2c-2.6-.5-5.3-.6-7.7-.6h-3.2c-2 0-4.3 0-6.3-.3-1-.3-2-.8-3-1.4L86 3.8c-2.9-1.3-7-2-10.7-2-2.6 0-6.3.3-9 2.1-1.3.8-2.1 1.9-2.8 2.7-.1.2-.4.7-.7.9l-1.4-.3a21.4 21.4 0 0 0-12 .1l-.5.2c-1 .3-2 .6-2.7.6h-.3a14 14 0 0 1-6-3A13.2 13.2 0 0 0 29.6.9c-2 0-4 .3-6 .6-1.7.3-3.3.5-4.8.5h-2.6a109 109 0 0 0-6 0c-3.4.3-6 1.4-7.8 3.5C-.3 8.6-.2 13 .2 16c.1 3 1.5 5 2.6 6.7l1 1.6c.6 1.2.5 3 .4 4.9-.2 2.7-.4 5.7 1.1 8.7 1.5 2.7 3.6 4.7 5.5 6.5l.6.6c2.8 2.4 6.3 2.7 9 2.7h.8a69.5 69.5 0 0 1 13.1 0h10.2c1.7 0 3.2-.3 4.7-.6 2-.3 3.7-.6 5-.2h.2a24.1 24.1 0 0 0 12.6.3c.8-.2 1.7-.4 2.4-.4 1 0 2.2.2 3.5.4 1.7.3 3.4.6 5.3.6 2.1 0 4-.4 5.8-1.2a9 9 0 0 0 4-3.7l.3-.3.2.2c2.8 3.3 6.4 5 10 5h.6a210.3 210.3 0 0 1 17.7-.1h.6l3.8-.1c2.3-.1 4.6-.2 6.4 0H151.3l14.1.1h7.2c.8 0 1.6.1 2 .3.9.3 1.6 1 2.6 2 1.4 1.4 3.3 3.2 6.3 4 2.2.9 4.5 1.3 6.8 1.3 5.8 0 11-2.5 14-6.7 2.9-3.8 3.6-8.8 2-14Zm-89.5 12a109.5 109.5 0 0 0-17.8.2c-3.5.2-7-1.5-9.8-4.7L89 42l-.4-.5-.4-.4-.4.4-.6.8a8.2 8.2 0 0 1-3.6 3.3c-1.6.8-3.4 1.1-5.5 1.1-1.7 0-3.4-.2-5-.5-1.4-.2-2.6-.4-3.8-.4-.8 0-1.7.3-2.6.5l-1.5.3c-3 .6-6.4.4-10.7-.7-1.5-.4-3.5-.1-5.5.3-1.5.2-3 .5-4.5.5H34.3a217.8 217.8 0 0 0-13.2 0h-.7c-2.5 0-5.8-.2-8.4-2.4v-.1l-.5-.5C9.7 42 7.6 40 6.2 37.4c-1.3-2.7-1.2-5.6-1-8.1.1-2 .2-4-.4-5.4l-1.1-1.7c-1-1.6-2.4-3.6-2.5-6.2-.3-2.9-.5-7 2-10 1.5-1.8 4-2.8 7-3l3.5-.1H18.8c1.6 0 3.2-.2 5-.5 2.3-.3 4.7-.7 7-.5 3 0 5.9 1.5 8.3 4 1.6 1.4 3.7 2.5 6.5 3.2 1 .2 2.2-.2 3.5-.7l.5-.1A18.2 18.2 0 0 1 61 8.2l1.7.3h.4l1-1.2c.7-.8 1.4-1.8 2.5-2.5 2.5-1.7 6-2 8.5-2 3.6 0 7.6.7 10.3 2l2.2 1c1 .6 2 1.2 3.2 1.5 2.1.3 4.4.4 6.5.4h3.2c2.4 0 5 0 7.6.5h.1l1.5.2c1.6 0 2.5-1 4.4-3.1l.6-.7.2-.2a11 11 0 0 1 7.3-2.6 11 11 0 0 1 8.4 3.6l1 1 .3.3.3-.4c4-4.3 7.1-4.4 11.1-4.6l2.6-.1c1.6-.3 3.4-.6 5.1-.6 3.8 0 6.7 1.4 9 4.2l.2.2c.9 1 1.8 2 2.8 2.1 1 .3 2.4.2 4 .1l2.8-.1c1.2 0 2.2 0 3.2.3l1.4.4c1.2.3 2.2.6 3.2.6h.5a43 43 0 0 0 10.5-3c1-.4 2-.6 3.1-.6 3 0 6 1.7 8.8 5.1l.7.8c1.1 1.2 2.3 2.5 3.2 4.2 1.3 2.8 1.3 5.8 1.2 8.4v2.5l-.3 3.6c-.3 1.8-.5 3.4-.1 4.9v.2c1.5 4.9.9 9.5-1.8 13.1a16.3 16.3 0 0 1-13.2 6.3c-2.2 0-4.4-.4-6.5-1.2-2.8-.8-4.6-2.5-6-3.9-1-1-1.8-1.8-2.9-2.2-.6-.1-1.4-.3-2.3-.3h-21.2l-14-.2-9.4.1H127.7a33 33 0 0 0-6.6 0h-4.3Z"/>
        <path fill="#000" d="M138.7 24.3v-.1c.2-4.8-4.6-4.5-4.2.2-.3 4.7 4.6 4.6 4.2 0Z"/>
        <path fill="#000" d="M119.3 24.3V24c-.1-1-.2-2.3-1-3-1-.6-2.3-.3-2.7.6-.9 1.7-1.1 6 1.6 6.1 1.8.1 2.1-2.4 2-3.5Z"/>
        <path fill="#000" d="M77.6 15.7C76.3 16 76 18 76.1 19c0 1.1.3 3 1.6 3.1 3 .5 3-7 0-6.4Z"/>
        <path fill="#000" d="M186.8 19.9c-2.6-.6-3.1 3-.3 3.2 1.8-.3 2-2.7.3-3.2Z"/>
        <path fill="#000" d="M190.2 35.8c-2.1-.9-4.7.1-6.9.2-1.5.3-.3 1.2.7 1.3.8.2 2.2.3 3 .3 1 0 4.4-.1 3.1-1.8Z"/>
        <path fill="#000" d="M55.7 20.9c-.1-.4-.6-.8-1-.9-1-.2-2.3.4-2.5 1.5 0 .7.5 1.4 1.2 1.3 1 0 2.8-.7 2.3-2Z"/>
        <path fill="#000" d="M202.9 35.5v-.2c-.8-3 .3-6.1.3-9.2-.1-3.2.5-6.7-1-9.7-.8-1.7-2.3-3-3.6-4.4-2.1-2.7-5.3-5.4-9-3.9a45.8 45.8 0 0 1-11.1 3.2c-2 .2-4-.6-6-1-3.3-1-6.8.4-10-.3-1.9-.4-3.1-1.9-4.3-3.2-3.2-4-7.4-3.6-11.9-2.7-6 .4-8.3-.4-12.6 4.4-2.3 2.2-4.2-1-5.8-2.3a9.2 9.2 0 0 0-11.3 0c-2.7 3.1-4.3 5.4-8.8 4.4-5.8-1-11.7 0-17.5-.9-2-.5-3.9-1.8-5.8-2.7C80.3 5.2 72 4.3 68 6.9c-1.6 1-2.4 3.5-4.2 4-1.4.4-2.9-.2-4.3-.6-3-.8-6.2-.7-9.1.3-1.8.6-3.6 1.3-5.4 1-2.8-.8-5.5-2-7.6-4a9.8 9.8 0 0 0-6.8-3.2c-3.8-.3-8 1-11.8 1-2.7 0-5.7-.2-8.4 0-6.5.4-7.4 5-6.7 10.4 0 2.8 2 4.7 3.3 7 1.9 4.1-.6 9.3 1.4 13.5 1.3 2.3 3.4 4.2 5.3 6 2 1.8 4.7 2 7.2 2 7.8-.8 15.6.2 23.5 0 3.6-.1 7.2-1.8 10.8-.8 3.1.8 6.4 1.3 9.5.6 1.5-.3 3-.7 4.6-.8 4.4.2 9 2 13.3 0 2.6-.8 3.3-6 6.5-4.5.8.4 1.3 1 2 1.6 2 2.4 4.6 4 7.8 4 6-.4 12-.6 18-.2 3.7 0 7.3-.4 11 0 14.9-.4 29.8.2 44.8 0 1 0 2.1.2 3 .5 3.4 1.1 4.7 4.9 8.8 6 10.4 3.8 22.2-3.1 18.4-15.2Zm-179.6-18c-1.7.4-3.3.6-3.3 2.6-.2 4.5.8 9 .6 13.6-.3 2.3-3 1.7-4.8 1.8-2.2 0-4.4.2-4.4-2.4-.2-4.1.6-8.4.7-12.6 0-.8-.3-1.8-1-2.3-.8-.5-2-.3-2.8-.8-1.2-.7-1-2.5-1-4v-2.2c.2-1.6 1.6-2 2.9-1.9H22c1.7-.1 2.7 1 2.7 2.6-.2 1.7.7 4.9-1.4 5.6Zm20.6 13.6c.1 3.2-.2 4.6-3.8 4.4-3.4.3-4.1-.8-4-4-.2-1.5 1.2-10.2-1.5-9.6-2.7 1.3.3 11.3-2 13.1-.8.6-2.2.4-3.2.5-1.3 0-2.8 0-3.3-1-.3-.4-.4-1.1-.4-1.7V22c0-3.8 0-7.7.2-11.5 0-1 .4-1.9 1.4-2.2.8-.2 1.6-.1 2.4-.1 1.3 0 2.6-.1 3.2.8.8 1.2.3 2.7.5 4 0 .5.2 1 .6 1.2.3.2.9.2 1.5 0 2.7-1.1 6.4-.6 7.5 2.5 1.8 4.4.7 9.7.9 14.4Zm13.5-3c4 0 5-.6 4.9 3.4v.2c.4 4.4-3.3 4.1-6.6 4-6.1 0-11.2-5-10.7-11.4A10.4 10.4 0 0 1 58.5 14c4 1 5.7 6.2 3.4 9.4-1.3 2-3.7 2.4-5.9 2.7-3.5.9-.6 2.3 1.4 2.2Zm27.9-2a9.4 9.4 0 0 1-5 2.6c-1.3.3-2.5 1-2.8 2.3-.2 1.1.1 2.3-.3 3.4-.8 1.7-3.4.9-5 1-1.6.2-3.3-.2-3.3-2.2l.1-10.8v-.2l.3-10.3c0-.6.2-1.3.5-1.8.4-.6 1.1-.7 1.8-.8h4.9c3.8-.1 8.7 1 10 5 1.3 3.8 1.5 8.6-1.2 11.8Zm21.6 7c0 1.9-1.4 2.6-3.2 2.4-1.2 0-2-.5-2.8-1.4-.4-.4-.8-.7-1.3-.7-1.2.1-2 1.3-3 1.8a5 5 0 0 1-7.3-3.2c-1.4-4.8-.5-10-.5-15-.2-2.8 1.3-3.2 3.6-3 2.1-.2 4 0 4 2.4.3 1.8-1.2 11.1 1.6 10.3.8-.3 1-1.4 1-2.2.2-2.7 0-5.4 0-8 .1-.8.2-1.6.8-2.1.9-.7 2.4-.4 3.5-.5 1.2 0 2.4 0 3 .9.4.6.4 1.5.5 2.3v16Zm19.4.4c0 1.9-2 2.2-3.7 1.9-1-.1-1.6-.8-2-1.5-.5-1.1-1.7-1.2-2.6-.4-10.2 9-12.7-12.9-6.1-18 1.2-1 2.7-1.6 4.2-1.8 1.2-.2 2.3-.6 2.6-1.8.3-.9 0-2 .5-2.8.6-1.2 2.5-1 4-1 .6 0 1.2.1 1.7.5.7.4.9 1.2 1 2l.3 11.4v.1c0 3.8.3 7.6.1 11.4Zm17.9 2c-1.4.1-3.2 0-3.8-1.2-.4-.5-.8-1.3-1.5-1.4-1 0-1.8.9-2.5 1.4-1 1-2.5 1.5-3.8 1.3-7-1-6.4-17.7-.4-20.8 1-.6 2.2-1 3.3-1.1 1.2-.2 2.2-.5 2.6-1.6.3-1 .1-2 .5-3 .5-1.2 2.5-1 3.9-1 1.6-.1 2.8.9 2.8 2.6l.4 11.6v.1l.1 10c0 1.2-.1 2.8-1.6 3Zm7-28.4h.1c1.1-.1 3.1.2 3.7 1.6.8 1.9-.4 4-2.6 4-1.3.1-2.9 0-3.8-1-1.8-2 .2-4.7 2.6-4.6Zm4.5 26.4c0 1.6-1.6 2-2.9 2-1.5-.2-4.1.5-5-1-.7-3 0-6.2-.2-9.2v-.2c.4-3.1-.3-7.2.9-10.3.8-1.2 3.3-.8 4.9-.8 1.5.1 2 1.6 2 3l.2 8.2c.1 2.8.3 5.6.1 8.3Zm19.8-.8c.1 2.6-1.6 2.9-3.7 2.8-2.2.1-4 0-4-2.5v-8.6c-.2-.5-.3-1.1-.7-1.5-.8-.8-1.6.2-1.8 1-.5 3.1 0 6.4-.2 9.6 0 .5-.3 1.1-.8 1.5-1 .7-2.5.5-3.7.5-1.4 0-2.7-.1-3-1.5-.6-2.9 0-6-.2-8.9V25c0-3-.2-6.3.2-9.4.4-1.7 2.6-1.7 4-1.3 1.2.2 1.7 1.9 3 1.9 1-.2 1.9-1.3 2.9-1.8 2.4-1.5 6-.5 7 2.2 2 5.1.8 10.8 1 16.2Zm18.4 7.6c-2 2.3-5.3 3-8.2 2.9h-.2c-3.9 0-9.3-1.8-7.4-6.3.3-1 0-2-.5-3-1-2 .2-3.9 1-5.6.5-1 0-2-.5-2.8a8.6 8.6 0 0 1-1.2-4.8c.2-5 5.4-7.5 10-7 .7 0 1.4-.1 2-.3 1-.3 1.7-1.6 2.6-2.1 1.2-.7 2.8.8 3.2 1.8.4 1.2-.7 2.2-.7 3.3 0 .6.3 1.3.5 1.8 2.4 6.6-2 10.9-8.5 10.8-.6 0-1.8.2-1.9 1 .1.4 1 .6 2 .4 2.1-.3 4.5-1.1 6.6-.3 3.8 1.7 3.5 7.5 1.2 10.2Z"/>
    </g>
</svg>