<svg width="100%" viewBox="0 0 201 49" fill="none" xmlns="http://www.w3.org/2000/svg">
<path d="M135.14 20.83V20.7C135.35 15.87 130.62 16.21 130.96 20.9C130.65 25.56 135.54 25.46 135.14 20.83Z" fill="black"/>
<path d="M115.78 20.76V20.63C115.66 19.64 115.61 18.26 114.72 17.59C113.88 16.96 112.53 17.28 112.11 18.18C111.23 19.94 110.95 24.19 113.74 24.3C115.53 24.4 115.84 21.9 115.78 20.76Z" fill="black"/>
<path d="M74.11 12.16C72.84 12.45 72.54 14.46 72.59 15.47V15.59C72.65 16.63 72.88 18.49 74.24 18.65C77.26 19.15 77.15 11.69 74.11 12.17V12.16Z" fill="black"/>
<path d="M183.3 16.4C180.71 15.78 180.17 19.49 182.96 19.56H183.05C184.75 19.32 184.93 16.92 183.3 16.4Z" fill="black"/>
<path d="M186.64 32.3C184.54 31.41 182.02 32.41 179.8 32.47C178.33 32.8 179.46 33.74 180.5 33.82C181.34 33.99 182.68 34.12 183.4 34.09H183.53C184.45 34.11 187.93 34 186.63 32.29L186.64 32.3Z" fill="black"/>
<path d="M52.21 17.36C52.07 17.04 51.59 16.57 51.23 16.54C50.21 16.31 48.9 16.86 48.73 17.99C48.63 18.66 49.25 19.35 49.89 19.29H49.96C50.88 19.29 52.74 18.59 52.21 17.36Z" fill="black"/>
<path d="M199.38 31.98L199.34 31.78C198.56 28.74 199.67 25.67 199.71 22.6C199.6 19.41 200.15 15.89 198.77 12.93C197.88 11.21 196.43 9.87001 195.14 8.45001C192.96 5.76001 189.79 3.09001 186.14 4.61001C182.59 6.19001 178.82 7.14001 174.97 7.78001C172.91 8.03001 170.96 7.24001 168.99 6.76001C165.73 5.88001 162.22 7.23001 158.99 6.48001C157.13 6.07001 155.9 4.61001 154.67 3.27001C151.5 -0.689993 147.33 -0.269993 142.84 0.570007C136.8 1.04001 134.51 0.170007 130.25 5.02001C127.91 7.16001 126.02 4.09001 124.36 2.68001C121.32 0.190007 116.11 0.210007 113.15 2.79001C110.42 5.82001 108.79 8.14001 104.25 7.12001C98.51 6.12001 92.58 7.17001 86.85 6.20001C84.72 5.71001 82.93 4.38001 80.97 3.49001C76.81 1.66001 68.46 0.820007 64.54 3.38001C62.9 4.47001 62.11 6.90001 60.32 7.39001C58.93 7.80001 57.41 7.17001 56.03 6.85001C53.05 6.03001 49.78 6.12001 46.88 7.13001C45.14 7.72001 43.33 8.43001 41.47 8.01001C38.72 7.29001 35.97 6.12001 33.88 4.17001C32.08 2.30001 29.8 0.920007 27.14 0.850007C23.35 0.600007 19.14 1.92001 15.29 1.93001C12.57 1.93001 9.58998 1.74001 6.90998 1.99001C0.399982 2.28001 -0.480018 6.83001 0.189982 12.28C0.269982 15.09 2.27998 16.95 3.50998 19.28C5.39998 23.4 2.86998 28.64 4.94998 32.76C6.23998 35.1 8.29998 37.01 10.18 38.86C12.14 40.58 14.89 40.76 17.39 40.73C25.23 40.02 33.05 40.98 40.91 40.71C44.54 40.68 48.11 38.97 51.72 40.03C54.81 40.82 58.07 41.28 61.18 40.61C62.72 40.33 64.26 39.85 65.83 39.78C70.21 39.94 74.89 41.83 79.1 39.81C81.71 38.95 82.43 33.84 85.65 35.3C86.38 35.68 86.95 36.34 87.52 36.93C89.52 39.24 92.25 40.98 95.36 40.84C101.39 40.5 107.37 40.29 113.42 40.65C117.07 40.68 120.73 40.27 124.41 40.6C139.3 40.34 154.24 40.85 169.17 40.66C170.19 40.71 171.31 40.86 172.22 41.15C175.64 42.32 176.87 46.06 181.01 47.23C191.4 50.94 203.17 44.06 199.38 31.99V31.98ZM19.78 14.05C18.14 14.35 16.49 14.55 16.45 16.62C16.32 21.1 17.33 25.68 17.04 30.18C16.76 32.45 14.01 31.87 12.32 31.95C10.1 31.97 7.85998 32.18 7.86998 29.59C7.64998 25.47 8.50998 21.22 8.53998 17.03C8.53998 16.18 8.31998 15.2 7.59998 14.74C6.78998 14.18 5.59998 14.35 4.75998 13.86C3.60998 13.23 3.78998 11.42 3.77998 9.96001C3.79998 9.17001 3.77998 8.39001 3.86998 7.66001C3.96998 6.13001 5.39998 5.75001 6.67998 5.81001C8.43998 5.81001 10.4 5.82001 12.11 5.81001H12.29C14.18 5.79001 16.45 5.77001 18.52 5.79001C20.18 5.69001 21.19 6.71001 21.15 8.36001C20.96 10.12 21.89 13.29 19.8 14.04L19.78 14.05ZM40.36 27.58C40.5 30.79 40.18 32.24 36.61 32.01C33.18 32.28 32.47 31.2 32.65 28.05C32.39 26.51 33.76 17.76 31.1 18.44C28.4 19.71 31.42 29.71 29.13 31.53C28.32 32.08 26.91 31.91 25.88 31.95C24.61 31.95 23.15 31.99 22.59 31.04C22.28 30.56 22.21 29.9 22.19 29.3C22.16 25.79 22.24 22.14 22.23 18.65V18.47C22.27 14.69 22.23 10.8 22.39 7.02001C22.45 6.08001 22.8 5.10001 23.77 4.84001C24.56 4.62001 25.43 4.68001 26.25 4.67001C27.46 4.67001 28.84 4.60001 29.42 5.50001C30.15 6.70001 29.65 8.24001 29.89 9.55001C29.97 10.03 30.14 10.44 30.45 10.66C30.83 10.94 31.4 10.9 32.02 10.72C34.73 9.57001 38.37 10.14 39.47 13.19C41.27 17.64 40.16 22.88 40.36 27.57V27.58ZM53.93 24.67C57.87 24.64 58.97 23.97 58.78 28.03V28.21C59.17 32.63 55.44 32.3 52.18 32.19C46.07 32.17 40.96 27.11 41.54 20.81C41.29 13.57 48.2 8.19001 55.02 10.44C59.02 11.44 60.67 16.57 58.42 19.83C57.12 21.73 54.72 22.18 52.52 22.52C49 23.4 51.93 24.81 53.92 24.69L53.93 24.67ZM81.78 22.56C80.5 24.01 78.64 24.78 76.8 25.22C75.49 25.52 74.3 26.14 74.04 27.53C73.77 28.61 74.1 29.83 73.71 30.89C72.9 32.6 70.33 31.79 68.77 31.98C67.07 32.1 65.41 31.68 65.43 29.66C65.32 26.05 65.43 22.45 65.52 18.91V18.73C65.57 15.25 65.67 11.82 65.83 8.36001C65.87 7.76001 65.98 7.09001 66.31 6.62001C66.7 6.04001 67.41 5.85001 68.09 5.80001C69.7 5.72001 71.37 5.72001 72.97 5.71001C76.81 5.68001 81.65 6.77001 83.05 10.83C84.29 14.63 84.55 19.43 81.78 22.57V22.56ZM103.36 29.58C103.39 31.45 102.03 32.16 100.2 32C99.05 32.02 98.15 31.53 97.44 30.64C97.03 30.21 96.59 29.87 96.08 29.9C94.93 30.01 94.13 31.15 93.13 31.66C90.33 33.38 86.46 31.72 85.77 28.51C84.38 23.69 85.25 18.46 85.25 13.44C85.08 10.67 86.58 10.34 88.94 10.44C91.03 10.34 92.95 10.5 92.88 12.86C93.25 14.69 91.74 24.01 94.53 23.24C95.34 22.91 95.51 21.82 95.56 21.02C95.65 18.34 95.54 15.61 95.59 12.93C95.62 12.21 95.72 11.36 96.31 10.89C97.18 10.23 98.72 10.46 99.83 10.42C100.97 10.41 102.24 10.42 102.79 11.28C103.24 11.94 103.24 12.84 103.26 13.63C103.29 15.97 103.33 18.49 103.33 20.63V20.81C103.32 23.71 103.43 26.65 103.36 29.58ZM122.84 30.03C122.72 31.86 120.83 32.18 119.06 31.88C118.15 31.77 117.52 31.14 117.11 30.36C116.56 29.25 115.42 29.19 114.52 29.96C104.31 39.06 101.78 17.1 108.39 12.03C109.58 11.04 111.07 10.43 112.58 10.19C113.75 10 114.88 9.61001 115.19 8.38001C115.46 7.50001 115.29 6.44001 115.73 5.61001C116.32 4.41001 118.25 4.60001 119.71 4.61001C120.3 4.64001 120.93 4.72001 121.43 5.05001C122.09 5.49001 122.27 6.34001 122.34 7.09001C122.54 10.75 122.64 14.89 122.74 18.46V18.64C122.76 22.39 123.05 26.25 122.83 30.03H122.84ZM140.67 31.92C139.28 32.15 137.53 32.06 136.85 30.83C136.47 30.28 136.11 29.5 135.38 29.43C134.41 29.37 133.64 30.25 132.91 30.8C131.84 31.74 130.43 32.34 129.12 32.14C122.16 31.02 122.73 14.42 128.72 11.32C129.68 10.75 130.87 10.37 132.04 10.17C133.18 9.97001 134.23 9.72001 134.59 8.56001C134.89 7.66001 134.73 6.56001 135.12 5.68001C135.63 4.40001 137.6 4.58001 138.97 4.59001C140.59 4.49001 141.76 5.49001 141.77 7.15001C142.04 10.88 142.02 15.13 142.2 18.76V18.93C142.28 22.24 142.26 25.49 142.31 28.81C142.35 30.07 142.18 31.72 140.66 31.9L140.67 31.92ZM147.65 3.57001H147.8C148.92 3.50001 150.94 3.81001 151.48 5.18001C152.34 7.06001 151.08 9.19001 148.9 9.21001C147.56 9.30001 146.04 9.27001 145.07 8.22001C143.34 6.21001 145.25 3.47001 147.66 3.57001H147.65ZM152.23 30.05C152.16 31.63 150.62 32.01 149.3 31.93C147.76 31.79 145.16 32.46 144.34 31C143.57 28.09 144.22 24.82 144.13 21.82V21.64C144.48 18.47 143.81 14.41 144.95 11.3C145.81 10.06 148.33 10.53 149.87 10.54C151.4 10.6 151.8 12.12 151.8 13.42C151.94 16.15 152.04 18.9 152.12 21.68C152.19 24.46 152.4 27.26 152.22 30.04L152.23 30.05ZM171.97 29.23C172.09 31.77 170.39 32.08 168.28 32C166.11 32.1 164.22 31.93 164.27 29.48C164.21 26.6 164.43 23.74 164.2 20.88C164.13 20.36 163.97 19.77 163.61 19.42C162.82 18.65 161.96 19.59 161.82 20.43C161.28 23.53 161.87 26.82 161.59 29.95C161.51 30.54 161.28 31.11 160.81 31.47C159.86 32.18 158.28 31.96 157.1 31.99C155.7 32.02 154.39 31.86 154.04 30.5C153.5 27.64 154.04 24.53 153.89 21.62V21.44C153.95 18.34 153.72 15.09 154.13 12.04C154.47 10.32 156.73 10.28 158.18 10.68C159.33 10.94 159.81 12.59 161.02 12.55C162.17 12.45 162.99 11.32 163.98 10.8C166.38 9.31001 169.96 10.33 171.06 13C172.91 18.15 171.74 23.82 171.97 29.24V29.23ZM190.37 36.8C188.4 39.05 185.04 39.78 182.2 39.7H182.02C178.11 39.74 172.73 37.94 174.6 33.42C174.94 32.32 174.57 31.31 174.08 30.33C173.07 28.42 174.3 26.5 175.18 24.78C175.57 23.81 175.06 22.85 174.6 22C173.76 20.49 173.31 18.85 173.42 17.24C173.61 12.11 178.83 9.66001 183.45 10.11C184.09 10.11 184.75 10.09 185.35 9.87001C186.42 9.56001 187.07 8.34001 188 7.79001C189.22 7.14001 190.75 8.58001 191.16 9.63001C191.54 10.75 190.48 11.83 190.52 12.92C190.52 13.53 190.76 14.15 190.97 14.73C193.4 21.26 189.02 25.56 182.5 25.48C181.86 25.58 180.66 25.7 180.63 26.46C180.69 26.9 181.62 27.06 182.54 26.91C184.7 26.59 187.07 25.77 189.2 26.63C192.94 28.28 192.7 34.11 190.35 36.81L190.37 36.8Z" fill="black"/>
<path d="M39.47 13.2C38.37 10.14 34.73 9.58001 32.02 10.73C31.4 10.91 30.83 10.95 30.45 10.67C30.14 10.45 29.97 10.04 29.89 9.56001C29.65 8.25001 30.15 6.71001 29.42 5.51001C28.84 4.61001 27.46 4.69001 26.25 4.68001C25.43 4.69001 24.56 4.62001 23.77 4.85001C22.79 5.11001 22.45 6.10001 22.39 7.03001C22.23 10.82 22.27 14.7 22.23 18.48V18.66C22.23 22.15 22.16 25.8 22.19 29.31C22.21 29.9 22.28 30.57 22.59 31.05C23.15 32 24.61 31.97 25.88 31.96C26.91 31.92 28.32 32.09 29.13 31.54C31.42 29.72 28.4 19.72 31.1 18.45C33.76 17.77 32.4 26.52 32.65 28.06C32.47 31.21 33.18 32.28 36.61 32.02C40.18 32.25 40.5 30.79 40.36 27.59C40.16 22.9 41.28 17.66 39.47 13.21V13.2Z" fill="white"/>
<path d="M21.13 8.37C21.18 6.71 20.16 5.7 18.5 5.8C16.43 5.78 14.16 5.8 12.27 5.82H12.09C10.38 5.84 8.41999 5.82 6.65999 5.83C5.38999 5.77 3.95999 6.16 3.84999 7.68C3.75999 8.4 3.77999 9.19 3.75999 9.98C3.76999 11.44 3.58999 13.24 4.73999 13.88C5.58999 14.37 6.76999 14.21 7.57999 14.76C8.30999 15.21 8.51999 16.2 8.51999 17.05C8.49999 21.24 7.62999 25.48 7.84999 29.61C7.83999 32.2 10.08 32 12.3 31.97C13.99 31.88 16.74 32.47 17.02 30.2C17.31 25.7 16.3 21.12 16.43 16.64C16.47 14.57 18.12 14.37 19.76 14.07C21.85 13.32 20.92 10.14 21.11 8.39L21.13 8.37Z" fill="white"/>
<path d="M52.53 22.5C54.73 22.16 57.12 21.72 58.43 19.81C60.68 16.56 59.03 11.42 55.03 10.42C48.21 8.18001 41.3 13.55 41.55 20.79C40.96 27.1 46.08 32.15 52.19 32.17C55.45 32.28 59.19 32.62 58.79 28.19V28.01C58.97 23.95 57.88 24.62 53.94 24.65C51.95 24.77 49.02 23.36 52.54 22.48L52.53 22.5ZM49.96 19.29H49.89C49.25 19.35 48.63 18.66 48.73 17.99C48.9 16.86 50.21 16.32 51.23 16.54C51.59 16.56 52.07 17.03 52.21 17.36C52.74 18.59 50.88 19.28 49.96 19.29Z" fill="white"/>
<path d="M72.97 5.71C71.36 5.71 69.7 5.72 68.09 5.8C67.41 5.85 66.7 6.04 66.31 6.62C65.98 7.09 65.87 7.76 65.83 8.36C65.68 11.82 65.58 15.26 65.53 18.73V18.91C65.44 22.45 65.33 26.05 65.44 29.66C65.42 31.68 67.08 32.11 68.78 31.98C70.33 31.79 72.9 32.6 73.72 30.89C74.11 29.84 73.78 28.61 74.05 27.53C74.31 26.14 75.5 25.52 76.81 25.22C78.65 24.78 80.51 24.01 81.79 22.56C84.56 19.42 84.3 14.62 83.06 10.82C81.66 6.76 76.82 5.67 72.98 5.7L72.97 5.71ZM74.24 18.64C72.88 18.48 72.65 16.62 72.6 15.58V15.46C72.54 14.46 72.85 12.45 74.11 12.15C77.15 11.67 77.26 19.13 74.24 18.63V18.64Z" fill="white"/>
<path d="M142.21 18.94V18.77C142.03 15.13 142.05 10.89 141.78 7.15999C141.78 5.49999 140.6 4.50999 138.98 4.59999C137.61 4.57999 135.64 4.39999 135.13 5.68999C134.74 6.56999 134.9 7.66999 134.6 8.56999C134.24 9.72999 133.19 9.97999 132.05 10.18C130.88 10.37 129.68 10.75 128.73 11.33C122.74 14.44 122.16 31.04 129.13 32.15C130.44 32.35 131.85 31.75 132.92 30.81C133.64 30.25 134.41 29.38 135.39 29.44C136.12 29.51 136.48 30.29 136.86 30.84C137.55 32.07 139.29 32.17 140.68 31.93C142.2 31.75 142.37 30.1 142.33 28.84C142.28 25.52 142.29 22.26 142.22 18.96L142.21 18.94ZM130.96 20.9C130.62 16.21 135.35 15.87 135.14 20.7V20.83C135.54 25.47 130.65 25.56 130.96 20.9Z" fill="white"/>
<path d="M171.06 13C169.96 10.33 166.38 9.30999 163.98 10.8C162.99 11.32 162.17 12.45 161.02 12.55C159.81 12.59 159.33 10.94 158.18 10.68C156.73 10.29 154.47 10.32 154.13 12.04C153.72 15.09 153.95 18.35 153.89 21.44V21.62C154.05 24.53 153.51 27.64 154.05 30.5C154.39 31.87 155.71 32.03 157.11 31.99C158.29 31.96 159.87 32.18 160.82 31.47C161.29 31.12 161.52 30.54 161.6 29.95C161.88 26.81 161.29 23.53 161.83 20.43C161.97 19.58 162.84 18.65 163.62 19.42C163.98 19.78 164.14 20.36 164.21 20.88C164.44 23.74 164.21 26.6 164.28 29.48C164.23 31.93 166.12 32.1 168.29 32C170.4 32.08 172.1 31.78 171.98 29.23C171.75 23.82 172.92 18.14 171.07 12.99L171.06 13Z" fill="white"/>
<path d="M189.23 26.62C187.1 25.76 184.73 26.57 182.57 26.9C181.65 27.05 180.71 26.9 180.66 26.45C180.7 25.69 181.89 25.57 182.53 25.47C189.06 25.55 193.43 21.25 191 14.72C190.78 14.14 190.54 13.52 190.55 12.91C190.51 11.83 191.57 10.74 191.19 9.62C190.78 8.57 189.25 7.13 188.03 7.78C187.1 8.34 186.44 9.56 185.38 9.86C184.78 10.08 184.12 10.1 183.48 10.1C178.86 9.65 173.64 12.1 173.45 17.23C173.34 18.84 173.78 20.48 174.63 21.99C175.09 22.84 175.59 23.8 175.21 24.77C174.32 26.49 173.1 28.42 174.11 30.32C174.6 31.3 174.97 32.31 174.63 33.41C172.76 37.92 178.14 39.73 182.05 39.68H182.23C185.06 39.76 188.43 39.03 190.4 36.78C192.75 34.09 193 28.25 189.25 26.6L189.23 26.62ZM183.3 16.4C184.93 16.92 184.75 19.32 183.05 19.55H182.96C180.17 19.5 180.71 15.78 183.3 16.4ZM183.54 34.09H183.41C182.69 34.12 181.35 33.99 180.51 33.82C179.47 33.74 178.33 32.8 179.81 32.47C182.03 32.41 184.54 31.41 186.65 32.3C187.95 34 184.47 34.12 183.55 34.09H183.54Z" fill="white"/>
<path d="M151.81 13.43C151.81 12.12 151.41 10.61 149.88 10.55C148.34 10.54 145.82 10.07 144.96 11.31C143.82 14.42 144.49 18.48 144.14 21.65V21.83C144.22 24.83 143.57 28.1 144.34 31.01C145.16 32.47 147.75 31.79 149.3 31.94C150.62 32.01 152.16 31.64 152.23 30.06C152.41 27.28 152.2 24.48 152.13 21.7C152.05 18.91 151.95 16.17 151.81 13.44V13.43Z" fill="white"/>
<path d="M148.89 9.21C151.07 9.19 152.33 7.06 151.47 5.18C150.94 3.81 148.91 3.51 147.79 3.57H147.64C145.23 3.47 143.32 6.21 145.05 8.22C146.02 9.27 147.54 9.3 148.88 9.21H148.89Z" fill="white"/>
<path d="M122.75 18.46C122.65 14.89 122.55 10.74 122.35 7.08999C122.28 6.32999 122.09 5.47999 121.44 5.04999C120.95 4.71999 120.32 4.63999 119.72 4.60999C118.25 4.59999 116.32 4.40999 115.74 5.60999C115.3 6.44999 115.47 7.49999 115.2 8.37999C114.89 9.60999 113.76 9.99999 112.59 10.19C111.08 10.43 109.59 11.03 108.4 12.03C101.79 17.1 104.32 39.06 114.53 29.96C115.42 29.19 116.56 29.25 117.12 30.36C117.53 31.14 118.15 31.77 119.07 31.88C120.84 32.18 122.73 31.86 122.85 30.03C123.07 26.25 122.78 22.39 122.76 18.64V18.46H122.75ZM113.73 24.3C110.93 24.19 111.22 19.94 112.1 18.18C112.53 17.29 113.87 16.96 114.71 17.59C115.6 18.26 115.66 19.65 115.77 20.63V20.76C115.83 21.9 115.53 24.4 113.73 24.3Z" fill="white"/>
<path d="M103.33 20.62C103.33 18.48 103.3 15.97 103.26 13.62C103.24 12.83 103.24 11.93 102.79 11.27C102.24 10.41 100.97 10.4 99.83 10.41C98.71 10.46 97.18 10.23 96.31 10.88C95.72 11.34 95.62 12.19 95.59 12.92C95.54 15.6 95.65 18.33 95.56 21.01C95.51 21.81 95.34 22.9 94.53 23.23C91.74 24 93.24 14.68 92.88 12.85C92.94 10.49 91.02 10.33 88.94 10.43C86.58 10.33 85.08 10.66 85.25 13.43C85.25 18.45 84.39 23.68 85.77 28.5C86.46 31.71 90.33 33.38 93.13 31.65C94.13 31.14 94.93 30.01 96.08 29.89C96.59 29.86 97.03 30.19 97.44 30.63C98.16 31.52 99.05 32.01 100.2 31.99C102.04 32.15 103.39 31.45 103.36 29.57C103.43 26.64 103.32 23.7 103.33 20.8V20.62Z" fill="white"/>
</svg>
