<svg width="440" height="154" viewBox="0 0 440 154" fill="none" xmlns="http://www.w3.org/2000/svg">
<g filter="url(#filter0_dddd_2683_3457)">
<path d="M419.179 89.0732C418.309 77.0032 421.719 64.3932 416.939 52.6432C412.389 41.9632 399.909 28.5632 387.839 28.1532C378.829 27.7132 370.779 33.2332 361.559 33.4432C357.139 33.6532 352.779 32.8232 348.399 32.3832C344.679 31.9832 340.849 32.2432 337.209 31.3232C331.729 30.0832 327.949 25.7432 322.859 23.0932C315.649 19.2732 307.089 19.7632 299.189 20.5432C293.389 21.0932 287.859 21.4032 282.359 23.3732C277.759 25.0132 272.959 25.8132 268.199 24.2632C259.289 20.7232 248.499 20.5132 240.439 26.0232C237.709 27.8032 235.119 29.9832 232.109 31.2132C227.209 33.3532 221.799 32.3032 216.459 32.2332C210.839 32.0232 205.109 32.3832 199.569 31.2532C193.299 30.0132 187.709 26.5632 181.289 24.9932C169.189 21.9032 155.349 22.3932 144.789 29.4432C139.769 32.3932 134.009 32.0032 128.409 31.8632C123.249 31.8332 118.039 33.5332 113.049 33.4932C106.969 33.6832 102.089 29.6032 97.2191 26.4732C86.0291 18.5732 72.0991 22.2832 59.4291 22.9732C41.8091 23.0932 24.5191 22.7332 20.4491 44.2332C19.3591 50.8132 20.2891 57.8632 22.8491 64.0232C24.3491 67.6432 26.2091 71.1232 26.9191 75.0032C28.0491 81.1832 27.0891 87.7732 29.1791 93.8332C31.6491 101.553 36.8191 107.893 42.9991 112.833C49.0291 117.583 56.3591 119.563 63.7791 119.473C78.0891 118.903 92.4891 119.863 106.709 119.573C111.869 119.413 116.989 118.473 122.149 118.413C127.749 118.273 133.279 119.563 138.859 119.753C145.269 120.003 151.679 118.383 158.059 118.593C164.949 118.803 171.959 120.153 178.789 118.553C184.579 117.243 188.909 114.113 194.469 115.383C198.809 116.353 203.729 119.103 208.589 119.393C214.759 120.033 221.149 119.333 227.449 119.303C234.359 119.143 241.309 119.433 247.819 119.423C275.509 119.173 303.199 119.443 330.779 119.633C337.989 119.943 345.659 118.653 352.509 121.313C356.169 122.743 359.139 125.583 362.979 127.913C382.949 140.433 414.489 131.633 419.329 106.933C420.619 101.123 419.699 95.1232 419.199 89.2832V89.0932L419.179 89.0732Z" fill="url(#paint0_radial_2683_3457)"/>
</g>
<path d="M370.342 92.5569C367.57 93.1791 369.701 94.9515 371.662 95.1024C373.246 95.4229 375.773 95.6681 377.13 95.6115H377.375C379.11 95.6492 385.653 95.4418 383.239 92.2363C379.28 90.5582 374.528 92.4437 370.342 92.5569Z" fill="black"/>
<path d="M407.261 91.6519L407.185 91.256C405.715 85.5238 407.808 79.7351 407.883 73.9464C407.676 67.9315 408.713 61.2943 406.111 55.713C404.432 52.4698 401.698 49.9431 399.266 47.2656C395.155 42.1934 389.178 37.1589 382.296 40.025C375.602 43.0042 368.493 44.7955 361.234 46.0023C357.35 46.4737 353.673 44.9841 349.958 44.079C343.811 42.4197 337.193 44.9652 331.103 43.551C327.595 42.7779 325.276 40.025 322.957 37.4983C316.98 30.0315 309.117 30.8234 300.651 32.4073C289.262 33.2935 284.944 31.6531 276.911 40.7981C272.499 44.8332 268.935 39.0445 265.805 36.3859C260.073 31.6908 250.249 31.7285 244.668 36.5933C239.52 42.3066 236.447 46.6811 227.886 44.7578C217.063 42.8722 205.882 44.8521 195.077 43.0231C191.061 42.0991 187.686 39.5913 183.99 37.9132C176.146 34.4626 160.402 32.8787 153.01 37.7058C149.918 39.761 148.428 44.343 145.053 45.2669C142.432 46.04 139.566 44.8521 136.964 44.2487C131.345 42.7025 125.179 42.8722 119.711 44.7766C116.43 45.8891 113.017 47.2279 109.51 46.436C104.325 45.0783 99.1396 42.8722 95.1987 39.1954C91.8047 35.6693 87.5056 33.0673 82.49 32.9353C75.3437 32.4639 67.4054 34.9528 60.1459 34.9717C55.0172 34.9717 49.3982 34.6134 44.3449 35.0848C32.0698 35.6316 30.4105 44.211 31.6738 54.4873C31.8247 59.7858 35.6147 63.293 37.9339 67.6863C41.4976 75.4549 36.7271 85.3353 40.6491 93.1038C43.0815 97.5161 46.9658 101.118 50.5107 104.606C54.2064 107.849 59.3917 108.188 64.1056 108.132C78.8885 106.793 93.6337 108.603 108.454 108.094C115.299 108.038 122.03 104.813 128.837 106.812C134.664 108.302 140.811 109.169 146.675 107.906C149.579 107.378 152.482 106.473 155.443 106.341C163.702 106.642 172.526 110.206 180.464 106.397C185.386 104.776 186.743 95.1403 192.815 97.8932C194.191 98.6097 195.266 99.8542 196.341 100.967C200.112 105.322 205.26 108.603 211.124 108.339C222.494 107.698 233.769 107.302 245.177 107.981C252.059 108.038 258.961 107.264 265.899 107.887C293.976 107.396 322.146 108.358 350.298 108C352.221 108.094 354.333 108.377 356.049 108.924C362.497 111.13 364.817 118.182 372.623 120.388C392.214 127.384 414.407 114.411 407.261 91.6519ZM68.6499 57.8059H68.6122C65.5198 58.3905 62.4086 58.7676 62.3332 62.6707C62.0881 71.1181 63.9925 79.754 63.4457 88.2391C62.9177 92.5193 57.7324 91.4257 54.5458 91.5765C50.3598 91.6142 46.1361 92.0102 46.155 87.1266C45.7402 79.358 47.3618 71.3443 47.4183 63.4438C47.4183 61.8411 47.0035 59.9932 45.6459 59.1258C44.1186 58.0699 41.8748 58.3905 40.2909 57.4665C38.1225 56.2786 38.4619 52.8658 38.443 50.1128C38.4807 48.6232 38.443 47.1525 38.6127 45.776C38.8013 42.8911 41.4976 42.1746 43.9112 42.2877C47.2298 42.2877 50.9255 42.3066 54.1498 42.2877H54.4892C58.053 42.25 62.3332 42.2123 66.2363 42.25C69.3664 42.0614 71.2708 43.9847 71.1954 47.0959C70.8371 50.4145 72.5907 56.3918 68.6499 57.8059ZM107.417 83.3177C107.681 89.3893 107.078 92.1233 100.346 91.6897C93.8788 92.1988 92.5401 90.1623 92.8795 84.2228C92.3892 81.319 94.9724 64.8203 89.9568 66.1025C84.8658 68.4971 90.5602 87.3528 86.2423 90.7846C84.7149 91.8217 82.0563 91.5011 80.1141 91.5765C77.7195 91.5765 74.9665 91.6519 73.9106 89.8607C73.3261 88.9556 73.1941 87.7111 73.1564 86.5798C73.0998 79.9614 73.2507 73.0791 73.2318 66.4984V66.159C73.3072 59.0316 73.2318 51.6967 73.5335 44.5692C73.6466 42.7968 74.3066 40.9489 76.1356 40.4587C77.6252 40.0439 79.2656 40.157 80.8118 40.1381C83.0933 40.1381 85.6954 40.0062 86.7891 41.7032C88.1655 43.9659 87.2227 46.8696 87.6753 49.3397C87.8261 50.2448 88.1467 51.0179 88.7312 51.4327C89.4477 51.9607 90.5225 51.8853 91.6916 51.5458C96.8014 49.3774 103.665 50.4522 105.739 56.2032C109.133 64.594 107.04 74.4744 107.417 83.3177ZM132.986 77.8873V77.8496C140.434 77.793 142.508 76.5297 142.149 84.1851V84.5245C142.885 92.8587 135.852 92.2365 129.705 92.0291C118.184 91.9914 108.549 82.4504 109.642 70.5713C109.171 56.9197 122.2 46.7754 135.06 51.0179C142.602 52.9035 145.713 62.5764 141.471 68.7234C139.019 72.306 134.494 73.1545 130.346 73.7956C123.709 75.4549 129.233 78.1135 132.986 77.8873ZM185.518 73.8899C183.104 76.6051 179.597 78.057 176.127 78.8866C173.657 79.4523 171.414 80.6214 170.923 83.2423C170.414 85.2787 171.036 87.5791 170.301 89.5778C168.774 92.8022 163.928 91.2748 160.986 91.6331C157.781 91.8594 154.651 91.0674 154.688 87.2586C154.481 80.4517 154.688 73.6636 154.858 66.9887V66.6493C154.952 60.0875 155.141 53.62 155.443 47.0959C155.518 45.9646 155.726 44.7012 156.348 43.815C157.083 42.7214 158.422 42.3631 159.704 42.2688C162.74 42.118 165.889 42.118 168.906 42.0991C176.146 42.0426 185.272 44.0978 187.912 51.7533C190.25 58.9184 190.741 67.9692 185.518 73.8899ZM226.208 87.1077C226.265 90.6337 223.7 91.9725 220.25 91.6708C218.081 91.7085 216.384 90.7846 215.046 89.1064C214.273 88.2956 213.443 87.6545 212.481 87.7111C210.313 87.9185 208.804 90.0681 206.919 91.0297C201.639 94.2729 194.342 91.1428 193.041 85.0902C190.42 76.0017 192.061 66.1402 192.061 56.6746C191.74 51.4516 194.568 50.8293 199.018 51.0179C202.959 50.8293 206.579 51.131 206.447 55.581C207.145 59.0316 204.298 76.6051 209.559 75.1532C211.086 74.531 211.406 72.4757 211.501 70.9672C211.67 65.9139 211.463 60.7663 211.557 55.713C211.614 54.3554 211.802 52.7526 212.915 51.8664C214.555 50.6219 217.459 51.0556 219.552 50.9802C221.702 50.9613 224.096 50.9802 225.133 52.6018C225.982 53.8462 225.982 55.5433 226.02 57.0329C226.076 61.4451 226.152 66.1967 226.152 70.2319V70.5713C226.133 76.0394 226.34 81.583 226.208 87.1077ZM262.939 87.9562C262.713 91.4068 259.149 92.0102 255.812 91.4445C254.096 91.2371 252.908 90.0492 252.135 88.5785C251.098 86.4855 248.948 86.3724 247.251 87.8242C227.999 104.983 223.229 63.5758 235.693 54.0159C237.936 52.1492 240.746 50.999 243.593 50.5465C245.799 50.1882 247.93 49.4529 248.515 47.1336C249.024 45.4743 248.703 43.4756 249.533 41.9106C250.645 39.6479 254.284 40.0062 257.037 40.025C258.15 40.0816 259.338 40.2324 260.28 40.8547C261.525 41.6843 261.864 43.287 261.996 44.7012C262.373 51.6024 262.562 59.4087 262.751 66.1402V66.4796C262.788 73.5505 263.335 80.8288 262.92 87.9562H262.939ZM296.54 91.4822V91.52C293.938 91.9536 290.638 91.7839 289.356 89.4647C288.639 88.4276 287.961 86.9569 286.584 86.8249C284.755 86.7118 283.303 88.3711 281.927 89.4081C279.909 91.1806 277.251 92.3119 274.781 91.9348C261.657 89.8229 262.732 58.5225 274.026 52.6772C275.836 51.6024 278.08 50.8859 280.286 50.5088C282.436 50.1317 284.416 49.6603 285.095 47.473C285.66 45.776 285.359 43.7019 286.094 42.0426C287.056 39.629 290.77 39.9684 293.353 39.9873C296.408 39.7987 298.614 41.6843 298.633 44.8144C299.142 51.8475 299.104 59.8612 299.444 66.7058V67.0264C299.595 73.2676 299.557 79.3957 299.651 85.6558C299.727 88.0317 299.406 91.1428 296.54 91.4822ZM309.739 38.064H310.003C312.115 37.932 315.924 38.5166 316.942 41.0998C318.563 44.6447 316.188 48.6609 312.077 48.6986C309.55 48.8683 306.684 48.8118 304.855 46.8319C301.593 43.0419 305.195 37.8755 309.739 38.064ZM318.356 87.9939C318.224 90.9731 315.32 91.6897 312.831 91.5388C309.928 91.2748 305.025 92.5382 303.479 89.7852C302.027 84.2982 303.253 78.1324 303.083 72.4757V72.1363C303.743 66.159 302.48 58.5036 304.629 52.6395C306.251 50.3014 311.002 51.1876 313.906 51.2064C316.791 51.3196 317.545 54.1856 317.545 56.6369C317.809 61.7845 317.998 66.9698 318.149 72.2117C318.281 77.4536 318.677 82.7332 318.337 87.9751H318.356V87.9939ZM355.577 86.4478C355.804 91.2371 352.598 91.8217 348.619 91.6708C344.528 91.8594 340.964 91.5388 341.058 86.9192C340.945 81.4887 341.36 76.096 340.926 70.7033C340.794 69.7228 340.493 68.6103 339.814 67.9503C338.324 66.4984 336.703 68.2709 336.439 69.8547C335.421 75.7 336.533 81.9035 336.005 87.8054C335.854 88.9179 335.421 89.9926 334.534 90.6715C332.743 92.0102 329.764 91.5954 327.539 91.6519C324.899 91.7085 322.429 91.4068 321.769 88.8425C320.751 83.4497 321.769 77.5856 321.486 72.0986V71.7592C321.599 65.9139 321.166 59.7858 321.939 54.0348C322.58 50.7916 326.841 50.7162 329.575 51.4704C331.744 51.9607 332.649 55.0719 334.93 54.9964C337.099 54.8079 338.645 52.6772 340.512 51.6967C345.037 48.8872 351.787 50.8105 353.861 55.845C357.35 65.5556 355.144 76.2468 355.577 86.4478ZM390.272 100.722C386.557 104.964 380.222 106.341 374.867 106.19H374.527C367.155 106.265 357.01 102.871 360.536 94.3483C361.177 92.2742 360.48 90.3698 359.556 88.5219C357.651 84.9205 359.971 81.3002 361.63 78.057C362.365 76.228 361.404 74.4178 360.536 72.8151C358.952 69.9679 358.104 66.8755 358.311 63.8398C358.67 54.1668 368.512 49.5471 377.224 50.3957C378.43 50.3957 379.675 50.3579 380.806 49.9431C382.824 49.3586 384.049 47.0582 385.803 46.0211C388.103 44.7955 390.988 47.5107 391.761 49.4906C392.478 51.6024 390.479 53.6388 390.555 55.6941C390.555 56.8443 391.007 58.0134 391.403 59.107C395.985 71.4198 387.726 79.5277 375.432 79.3769C374.226 79.5654 371.963 79.7917 371.906 81.2247C372.019 82.0544 373.773 82.3561 375.508 82.0732C379.581 81.4699 384.049 79.9237 388.066 81.5453C395.118 84.6565 394.665 95.6494 390.234 100.74H390.272V100.722Z" fill="black"/>
<path d="M286.133 70.3635C286.529 61.2562 277.611 61.8973 278.252 70.7406C277.667 79.5273 286.888 79.3388 286.133 70.6086V70.3635Z" fill="black"/>
<path d="M249.627 70.2317C249.4 68.365 249.306 65.7629 247.628 64.4995C246.044 63.3116 243.499 63.915 242.707 65.612C241.047 68.9306 240.519 76.9443 245.78 77.1517C249.155 77.3403 249.74 72.6263 249.627 70.4768V70.2317Z" fill="black"/>
<path d="M171.055 54.2795C168.661 54.8075 168.095 58.5975 168.189 60.5019V60.7282C168.303 62.6892 168.736 66.1963 171.301 66.498C176.995 67.4408 176.788 53.3744 171.055 54.2795Z" fill="black"/>
<path d="M376.3 68.2139H376.47C379.675 67.7613 380.014 63.236 376.941 62.2555C372.057 61.0864 371.039 68.0819 376.3 68.2139Z" fill="black"/>
<path d="M129.762 64.0659C129.498 63.4625 128.593 62.5763 127.914 62.5198C125.99 62.0861 123.52 63.1231 123.2 65.2538C123.011 66.5172 124.18 67.8182 125.387 67.7051H125.519C127.254 67.7051 130.761 66.3852 129.762 64.0659Z" fill="black"/>
<path d="M105.741 56.241C103.667 50.4522 96.8037 49.3963 91.6938 51.5647C90.5247 51.9041 89.45 51.9796 88.7334 51.4516C88.1489 51.0368 87.8284 50.2637 87.6775 49.3586C87.225 46.8885 88.1678 43.9847 86.7913 41.722C85.6977 40.025 83.0956 40.1759 80.814 40.157C79.2679 40.1759 77.6274 40.0439 76.1378 40.4776C74.29 40.9678 73.6489 42.8345 73.5357 44.5881C73.234 51.7344 73.3095 59.0504 73.234 66.1779V66.5173C73.234 73.098 73.1021 79.9803 73.1586 86.5986C73.1963 87.7111 73.3283 88.9745 73.9129 89.8795C74.9688 91.6708 77.7217 91.6143 80.1164 91.5954C82.0585 91.52 84.7172 91.8405 86.2445 90.8035C90.5624 87.3717 84.868 68.516 89.9591 66.1213C94.9747 64.8392 92.4103 81.3379 92.8817 84.2417C92.5423 90.1812 93.8811 92.1988 100.349 91.7085C107.08 92.1422 107.683 89.3893 107.419 83.3555C107.042 74.5121 109.154 64.6317 105.741 56.241Z" fill="white"/>
<path d="M71.1259 47.1524L71.1636 47.1147C71.2579 43.9847 69.3346 42.0802 66.2045 42.2688C62.3014 42.2311 58.0212 42.2688 54.4574 42.3065H54.118C50.8937 42.3442 47.198 42.3065 43.8794 42.3254C41.4847 42.2122 38.7883 42.9476 38.5809 45.8137C38.4112 47.1713 38.4489 48.6609 38.4112 50.1505C38.4112 52.9034 38.0907 56.2974 40.2591 57.5042C41.8618 58.4281 44.0868 58.1264 45.6141 59.1635C46.9906 60.012 47.3865 61.8787 47.3865 63.4815C47.3488 71.382 45.7084 79.3768 46.1232 87.1642C46.1044 92.0479 50.328 91.6708 54.514 91.6142C57.7006 91.4445 62.8859 92.557 63.4139 88.2767C63.9607 79.7917 62.0563 71.1557 62.3014 62.7084C62.3768 58.8053 65.488 58.4281 68.5804 57.8625C72.5212 56.4483 70.7676 50.4522 71.1259 47.1524Z" fill="white"/>
<path d="M141.496 68.6857C145.739 62.5576 142.627 52.8658 135.085 50.9802C122.225 46.7565 109.196 56.882 109.668 70.5336C108.555 82.4315 118.209 91.9536 129.73 91.9914C135.877 92.1988 142.929 92.8399 142.175 84.4868V84.1474C142.514 76.492 140.459 77.7553 133.03 77.8119C129.278 78.0381 123.753 75.3795 130.39 73.7202V73.7579C134.519 73.1168 139.026 72.2871 141.496 68.6857ZM125.525 67.7052H125.393C124.186 67.8183 123.017 66.5173 123.206 65.254C123.527 63.1233 125.997 62.1051 127.92 62.5199C128.599 62.5576 129.504 63.4438 129.768 64.066C130.767 66.3853 127.26 67.6863 125.525 67.7052Z" fill="white"/>
<path d="M168.931 42.0802H168.912C165.876 42.0991 162.746 42.1179 159.711 42.2688C158.428 42.3631 157.09 42.7213 156.354 43.815C155.732 44.7012 155.525 45.9645 155.449 47.0959C155.166 53.6199 154.978 60.1063 154.884 66.6492V66.9886C154.714 73.6636 154.506 80.4516 154.714 87.2585C154.676 91.0674 157.806 91.8782 161.012 91.633C163.934 91.2748 168.78 92.8021 170.326 89.5778C171.062 87.5979 170.44 85.2787 170.949 83.2423C171.439 80.6213 173.683 79.4523 176.153 78.8866C179.622 78.0569 183.129 76.605 185.543 73.871C190.766 67.9503 190.276 58.8995 187.938 51.7344C185.298 44.0789 176.172 42.0237 168.931 42.0802ZM171.307 66.4607C168.742 66.1778 168.309 62.6707 168.215 60.7097V60.4834C168.101 58.5978 168.686 54.8078 171.062 54.2422C176.794 53.3371 177.001 67.4035 171.307 66.4607Z" fill="white"/>
<path d="M299.488 67.083V67.0453V66.7248C299.148 59.8613 299.186 51.8665 298.677 44.8333C298.677 41.7032 296.452 39.8365 293.398 40.0062C290.814 39.9685 287.1 39.6291 286.138 42.0615C285.403 43.7208 285.704 45.7949 285.139 47.4919C284.46 49.6792 282.48 50.1506 280.33 50.5277C278.124 50.886 275.862 51.6025 274.07 52.6961C262.776 58.5602 261.682 89.8607 274.825 91.9537C277.295 92.3308 279.953 91.1995 281.971 89.427C283.329 88.3711 284.78 86.7307 286.628 86.8438C288.005 86.9758 288.684 88.4465 289.4 89.4836C290.701 91.8029 293.982 91.9914 296.603 91.5389C299.469 91.1995 299.79 88.0883 299.714 85.7125C299.62 79.4524 299.639 73.3054 299.507 67.083H299.488ZM278.256 70.741C277.615 61.8977 286.534 61.2566 286.138 70.3639V70.609C286.892 79.3581 277.672 79.5278 278.256 70.741Z" fill="white"/>
<path d="M353.883 55.8258H353.864C351.79 50.8101 345.04 48.8869 340.515 51.6964C338.648 52.6769 337.102 54.8076 334.933 54.9961C332.652 55.0715 331.747 51.9603 329.578 51.4701C326.844 50.7347 322.583 50.7913 321.942 54.0345C321.169 59.7855 321.602 65.9324 321.489 71.7588V72.0982C321.791 77.5853 320.773 83.4494 321.791 88.8421C322.432 91.4254 324.921 91.727 327.561 91.6516C329.786 91.5951 332.765 92.0099 334.556 90.6711C335.442 90.0112 335.876 88.9175 336.027 87.8051C336.555 81.8844 335.442 75.6997 336.461 69.8544C336.725 68.2517 338.365 66.4981 339.836 67.95C340.515 68.6288 340.816 69.7224 340.948 70.7029C341.382 76.0957 340.948 81.4884 341.08 86.9188C340.986 91.5385 344.55 91.859 348.641 91.6705C352.62 91.8213 355.825 91.2557 355.599 86.4474C355.165 76.2465 357.372 65.5365 353.883 55.8258Z" fill="white"/>
<path d="M388.165 81.4885L388.127 81.5262C384.111 79.9046 379.642 81.4319 375.57 82.0541C373.835 82.337 372.062 82.0541 371.968 81.2056C372.044 79.7726 374.287 79.5463 375.494 79.3578C387.807 79.5086 396.047 71.4007 391.465 59.0879C391.05 57.9943 390.598 56.8252 390.616 55.675C390.541 53.6386 392.54 51.5833 391.823 49.4715C391.05 47.4916 388.165 44.7764 385.865 46.002C384.111 47.058 382.867 49.3583 380.868 49.924C379.737 50.3388 378.492 50.3766 377.285 50.3766C368.574 49.528 358.731 54.1477 358.373 63.8207C358.166 66.8564 358.995 69.9488 360.598 72.796C361.466 74.3987 362.408 76.2089 361.692 78.0379C360.014 81.2811 357.713 84.9202 359.618 88.5028C360.542 90.3507 361.239 92.2551 360.598 94.3292C357.072 102.833 367.217 106.246 374.589 106.152H374.928C380.265 106.303 386.619 104.926 390.334 100.684C394.765 95.6114 395.236 84.5997 388.165 81.4885ZM376.946 62.2557C380.02 63.2362 379.68 67.7615 376.475 68.1952H376.305C371.044 68.1009 372.062 61.0866 376.946 62.2557ZM377.417 95.6114H377.153C375.796 95.668 373.269 95.4229 371.685 95.1023C369.724 94.9515 367.575 93.179 370.365 92.5568C374.551 92.4436 379.284 90.5581 383.263 92.2362C385.714 95.4417 379.152 95.668 377.417 95.6114Z" fill="white"/>
<path d="M317.567 56.6743C317.567 54.1853 316.812 51.3381 313.927 51.225C311.024 51.2061 306.272 50.3199 304.65 52.658C302.501 58.5221 303.764 66.1776 303.104 72.1548V72.4942C303.255 78.1509 302.029 84.3168 303.481 89.8038C305.028 92.5567 309.911 91.2745 312.834 91.5574C315.323 91.6894 318.227 90.9917 318.359 88.0125C318.698 82.7706 318.302 77.491 318.17 72.2491C318.019 66.9884 317.831 61.8219 317.567 56.6743Z" fill="white"/>
<path d="M312.044 48.6987H312.063C316.173 48.661 318.549 44.6448 316.928 41.0999C315.928 38.5166 312.101 37.951 309.989 38.0641H309.706C305.162 37.8756 301.56 43.042 304.822 46.832C306.651 48.8119 309.517 48.8684 312.044 48.6987Z" fill="white"/>
<path d="M262.792 66.14H262.773C262.584 59.4085 262.396 51.5834 262.018 44.701C261.886 43.268 261.528 41.6653 260.303 40.8545C259.379 40.2322 258.191 40.0814 257.059 40.0248C254.288 40.006 250.648 39.6477 249.555 41.9104C248.725 43.4943 249.046 45.4741 248.537 47.1334C247.952 49.4527 245.821 50.1881 243.615 50.5463C240.768 50.9989 237.959 52.1302 235.715 54.0158C223.251 63.5756 228.022 104.983 247.273 87.8241C248.951 86.3722 251.101 86.4853 252.157 88.5783C252.93 90.049 254.099 91.2369 255.834 91.4444C259.171 92.01 262.735 91.4067 262.961 87.9561C263.376 80.8286 262.829 73.5503 262.792 66.4794V66.14ZM245.765 77.1517C240.485 76.9443 241.032 68.9306 242.691 65.612C243.502 63.9339 246.029 63.3116 247.613 64.4995C249.291 65.7629 249.404 68.3838 249.611 70.2317V70.4768C249.725 72.6264 249.159 77.3403 245.765 77.1517Z" fill="white"/>
<path d="M226.155 70.213C226.155 66.1779 226.098 61.4451 226.023 57.014C225.985 55.5244 225.985 53.8274 225.137 52.5829C224.1 50.9613 221.705 50.9424 219.555 50.9613C217.443 51.0556 214.559 50.6219 212.918 51.8475C211.806 52.7149 211.617 54.3176 211.56 55.6941C211.466 60.7474 211.674 65.895 211.504 70.9483C211.41 72.4568 211.089 74.5121 209.562 75.1343C204.301 76.5862 207.129 59.0127 206.451 55.5621C206.564 51.1121 202.943 50.8104 199.021 50.999C194.571 50.8104 191.743 51.4327 192.064 56.6557C192.064 66.1213 190.442 75.9828 193.044 85.0713C194.345 91.124 201.642 94.2729 206.922 91.0108C208.808 90.0492 210.316 87.9185 212.484 87.6922C213.446 87.6357 214.276 88.2579 215.049 89.0875C216.406 90.7657 218.085 91.6896 220.253 91.6519C223.722 91.9536 226.268 90.6337 226.211 87.0888C226.343 81.5641 226.136 76.0205 226.155 70.5524V70.213Z" fill="white"/>
<defs>
<filter id="filter0_dddd_2683_3457" x="17" y="19" width="405.986" height="126.573" filterUnits="userSpaceOnUse" color-interpolation-filters="sRGB">
<feFlood flood-opacity="0" result="BackgroundImageFix"/>
<feColorMatrix in="SourceAlpha" type="matrix" values="0 0 0 0 0 0 0 0 0 0 0 0 0 0 0 0 0 0 127 0" result="hardAlpha"/>
<feOffset/>
<feGaussianBlur stdDeviation="0.5"/>
<feColorMatrix type="matrix" values="0 0 0 0 0 0 0 0 0 0 0 0 0 0 0 0 0 0 0.1 0"/>
<feBlend mode="normal" in2="BackgroundImageFix" result="effect1_dropShadow_2683_3457"/>
<feColorMatrix in="SourceAlpha" type="matrix" values="0 0 0 0 0 0 0 0 0 0 0 0 0 0 0 0 0 0 127 0" result="hardAlpha"/>
<feOffset dy="2"/>
<feGaussianBlur stdDeviation="1"/>
<feColorMatrix type="matrix" values="0 0 0 0 0 0 0 0 0 0 0 0 0 0 0 0 0 0 0.09 0"/>
<feBlend mode="normal" in2="effect1_dropShadow_2683_3457" result="effect2_dropShadow_2683_3457"/>
<feColorMatrix in="SourceAlpha" type="matrix" values="0 0 0 0 0 0 0 0 0 0 0 0 0 0 0 0 0 0 127 0" result="hardAlpha"/>
<feOffset dy="5"/>
<feGaussianBlur stdDeviation="1.5"/>
<feColorMatrix type="matrix" values="0 0 0 0 0 0 0 0 0 0 0 0 0 0 0 0 0 0 0.05 0"/>
<feBlend mode="normal" in2="effect2_dropShadow_2683_3457" result="effect3_dropShadow_2683_3457"/>
<feColorMatrix in="SourceAlpha" type="matrix" values="0 0 0 0 0 0 0 0 0 0 0 0 0 0 0 0 0 0 127 0" result="hardAlpha"/>
<feOffset dy="9"/>
<feGaussianBlur stdDeviation="1.5"/>
<feColorMatrix type="matrix" values="0 0 0 0 0 0 0 0 0 0 0 0 0 0 0 0 0 0 0.01 0"/>
<feBlend mode="normal" in2="effect3_dropShadow_2683_3457" result="effect4_dropShadow_2683_3457"/>
<feBlend mode="normal" in="SourceGraphic" in2="effect4_dropShadow_2683_3457" result="shape"/>
</filter>
<radialGradient id="paint0_radial_2683_3457" cx="0" cy="0" r="1" gradientUnits="userSpaceOnUse" gradientTransform="translate(222.719 72.4347) rotate(161.66) scale(180.53 109.25)">
<stop stop-color="white"/>
<stop offset="1" stop-color="white" stop-opacity="0.82"/>
</radialGradient>
</defs>
</svg>
