<svg width="606" height="260" viewBox="0 0 606 260" fill="none" xmlns="http://www.w3.org/2000/svg">
<g filter="url(#filter0_dddd_3325_11626)">
<path fill-rule="evenodd" clip-rule="evenodd" d="M223.342 8.32435C227.137 4.49333 234.197 -0.342233 243.763 1.3462L244.222 1.43153L244.281 1.44358L244.341 1.45564C250.904 2.80179 255.325 7.125 257.709 11.3645L257.933 11.7745L257.952 11.8106L257.971 11.8459C258.556 12.9588 259.081 14.2063 259.488 15.5631C262.236 17.8972 263.955 20.8246 264.922 23.6384C267.449 22.65 271.08 21.5646 275.162 21.6175C280.957 21.6928 288.047 24.2298 292.242 31.4541L292.44 31.8009L292.66 32.1979L292.856 32.6069C295.489 38.0845 295.248 43.6983 294.505 47.422C294.719 47.7897 294.916 48.156 295.094 48.5192C295.996 50.3608 296.49 52.1809 296.742 53.8418C301.955 50.5147 308.301 48.9272 315.437 49.8807L315.438 49.8797C315.474 49.8844 315.51 49.8897 315.546 49.8946C315.55 49.8951 315.555 49.8958 315.559 49.8964C325.472 51.2235 335.429 58.1511 338.132 70.0796L338.255 70.6537L338.324 70.9932L338.378 71.3363C338.648 73.0535 338.758 74.7578 338.736 76.4392C340.363 75.9698 342.056 75.568 343.819 75.2446L344.368 75.1444L344.923 75.0841C347.918 74.7598 351.189 74.8616 354.465 75.5349C354.717 74.6703 354.971 73.8213 355.226 73.0131C357.773 64.942 362.994 50.9121 377.338 45.3844L377.567 45.2963L377.799 45.2156C382.767 43.483 387.785 43.6318 391.803 44.4755C395.395 45.2297 399.273 46.7644 402.695 49.3233C404.013 47.0844 405.554 45.0113 407.283 43.1631C411.406 38.7581 417.989 34.2801 426.328 34.2234L427.14 34.2318L427.587 34.2485C436.931 34.6825 443.586 40.5507 446.893 47.1558C449.796 52.955 450.411 59.5187 449.489 65.6557C452.218 65.5449 455.172 65.8589 458.219 66.8781L458.877 67.109L458.936 67.1313L458.995 67.1526C461.621 68.1403 463.905 69.5427 465.846 71.2334C470.422 68.219 475.52 65.5938 481.012 64.0289C490.636 61.1207 501.76 61.9358 510.293 68.7293C511.907 70.014 513.325 71.4306 514.553 72.9529C516.844 71.0977 519.337 69.3701 522.06 67.8185L522.182 67.7499C528.698 64.1161 540.718 59.5514 552.729 63.7498C556.768 60.0308 561.574 57.2088 566.653 55.6494C571.985 54.0126 578.363 53.5536 584.757 55.7681C591.362 58.056 596.633 62.7389 600.145 68.9722C602.736 75.3833 603.878 81.4685 602.234 88.4005C601.082 93.2561 598.979 97.531 597.319 100.546L597.273 100.63L597.225 100.713C592.486 109.07 586.627 116.734 581.903 123.197C576.925 130.007 572.871 135.903 569.981 142.182L569.973 142.199L569.966 142.216C566.345 150.032 563.23 158.601 559.714 168.089C556.295 177.314 552.523 187.326 547.841 196.794C538.4 215.885 524.311 234.68 498.902 243.108C498.878 243.116 498.855 243.123 498.832 243.131C498.801 243.141 498.77 243.153 498.739 243.163L498.738 243.162C484.794 247.894 463.813 250.517 447.089 237.703C447.044 237.669 446.999 237.635 446.954 237.601C446.922 237.576 446.89 237.553 446.859 237.528C432.416 226.565 427.834 205.653 437.324 189.846C435.537 188.684 433.924 187.316 432.506 185.779C425.432 193.631 413.936 198.157 402.058 194.026L402.005 194.008C399.506 193.138 397.395 191.962 395.617 190.588C389.218 195.719 380.178 200.227 369.031 197.671L368.166 197.472L367.331 197.176C364.916 196.316 362.853 195.153 361.095 193.803C357.18 196.95 352.348 199.838 346.684 201.093L345.725 201.306L344.746 201.393C340.06 201.811 334.627 201.354 329.586 198.513C328.548 197.928 327.597 197.281 326.727 196.587C319.943 201.294 307.39 207.485 294.404 200.126L294.257 200.042L294.112 199.956C292.46 198.971 291.014 197.867 289.745 196.686C285.587 200.102 280.713 203.045 274.995 204.861L274.996 204.863C274.946 204.88 274.895 204.894 274.845 204.911C274.824 204.917 274.803 204.924 274.782 204.931L274.781 204.93C267.63 207.215 259.012 206.991 252.145 201.462C245.061 206.604 234.803 210.922 222.751 206.286L222.124 206.045L221.52 205.749C219.168 204.597 217.194 203.176 215.537 201.609C213.719 203.165 211.786 204.637 209.735 205.958C205.778 208.611 200.283 211.006 194.134 211.304C188.859 211.561 182.696 210.184 177.649 205.887C171.028 211.203 161.392 216.13 149.382 213.138L148.521 212.924L147.691 212.61C139.827 209.643 134.819 203.786 132.347 197.145C130.115 191.151 130.08 184.976 130.519 180.16C131.089 173.898 132.778 167.35 134.267 162.279C125.168 164.429 114.744 164.406 105.236 160.266C103.421 165.231 101.428 170.214 99.1811 175.018C93.1845 188.198 84.2951 205.96 68.667 217.573L68.5761 217.64L68.4852 217.706C64.4293 220.627 59.7971 223.135 54.5735 224.751L54.5744 224.753C54.5371 224.764 54.4986 224.775 54.4613 224.787C54.4304 224.796 54.3994 224.807 54.3685 224.817L54.3676 224.815C44.4615 227.919 33.4769 227.056 24.2467 222.747C14.7373 218.309 6.24255 209.724 3.72503 197.2C0.454513 182.053 8.39405 164.069 24.6029 157.992C28.6252 156.369 32.9011 155.328 35.4355 154.646C38.3062 153.873 39.942 153.329 41.1468 152.731C45.001 150.395 49.5025 145.845 54.4019 139.377C45.1304 136.405 36.7521 129.512 32.2711 118.353L32.2247 118.238L32.1811 118.123C26.5943 103.529 27.2368 89.4119 32.6912 76.9845C37.9791 64.9365 47.332 55.4523 57.7157 48.4663C76.7332 35.6717 102.476 29.0821 124.298 31.5663C131.185 26.6684 141.427 21.2483 153.788 22.7406C153.79 22.741 153.794 22.7413 153.797 22.7416C153.805 22.7425 153.82 22.7444 153.82 22.7444C174.601 23.8904 175.359 26.3283 185.48 17.1639C189.929 13.1355 195.293 10.4877 200.392 9.08949V9.08764C200.455 9.06948 200.52 9.05341 200.583 9.0357C200.612 9.02783 200.642 9.01844 200.671 9.01066C207.743 7.05689 214.147 7.95762 218.83 9.06723C219.893 9.31911 220.93 9.59932 221.908 9.87968C222.364 9.35204 222.841 8.82969 223.342 8.32435Z" fill="url(#paint0_radial_3325_11626)"/>
</g>
<path d="M586.912 76.4217C579.382 63.0563 562.116 70.9722 557.538 82.8247C556.911 83.8609 556.574 84.701 555.586 84.3051C554.19 83.3993 551.907 79.7211 549.535 78.8633C543.265 75.6539 535.38 77.7821 529.589 81.0117C506.864 93.9614 503.977 124.846 489.19 140.85C486.173 144.253 476.762 150.874 473.45 144.817C469.108 129.804 501.304 114.322 504.853 95.5473C508.136 82.0748 497.4 74.8238 485.221 78.6222C475.627 81.3417 466.79 89.174 459.898 95.9931C459.271 96.556 458.615 97.3314 457.881 97.5197C457.68 97.5339 457.598 97.4024 457.562 97.2124C457.379 96.31 458.704 92.754 458.816 90.8392C459.39 87.0689 457.249 82.7188 453.652 81.3663C448.672 79.5401 443.029 82.6481 439.225 85.7112C419.493 103.097 423.965 139.014 397.998 151.013C392.52 153.184 388.125 151.001 388.457 144.807C389.853 127.308 409.91 116.264 416.299 100.213C418.641 94.8352 420.351 86.0739 412.797 84.0194L412.685 83.9878C395.472 82.0901 386.777 122.291 378.62 134.33C375.083 140.19 361.218 163.617 354.368 152.66C352.878 145.724 358.497 136.575 361.88 130.789C373.474 112.457 390.533 96.9594 396.773 75.4988C397.962 70.7276 398.116 65.2462 394.1 61.881C391.231 59.4172 386.298 58.3372 382.808 59.5541C368.694 64.993 368.854 88.5767 362.33 100.354C362.064 100.639 361.727 100.657 361.478 100.351C360.792 99.6585 360.082 97.0195 358.852 95.2528C356.155 91.2124 351.363 89.6617 346.566 90.1813C317.559 95.5022 314.282 130.521 299.506 150.412C296.111 155.429 283.672 168.138 280.04 157.107C278.248 133.459 326.84 95.747 323.373 73.6851C322.362 68.7336 318.257 65.5561 313.495 64.9405C295.064 62.4062 294.573 93.0482 287.919 105.977C287.173 107.1 286.262 105.031 285.6 103.676C279.448 90.5539 264.093 94.9535 255.031 103.291C237.174 118.668 231.335 157.245 212.685 166.917C209.385 168.309 205.126 167.885 204.043 163.915C200.731 142.997 233.394 127.44 234.121 106.339C234.157 103.181 232.85 99.8567 229.91 98.7287C225.899 97.162 220.919 99.82 217.743 102.356C206.007 112.131 202.423 129.81 195.774 143.005C191.113 151.928 183.483 163.946 176.491 169.267C174.291 170.909 170.955 172.217 168.287 171.2C163.301 168.333 167.69 158.601 170.245 154.605C178.189 140.823 198.584 124.815 197.839 108.161C197.087 100.788 187.972 100.736 183.039 103.791C167.873 113.051 156.51 143.527 150.773 160.269C147.46 171.192 139.682 193.335 153.062 198.384C167.258 201.921 177.514 182.951 186.269 173.289C186.754 172.717 187.99 171.325 187.623 172.626C185.228 178.832 181.909 187.003 186.056 192.677C189.723 198.007 196.874 196.327 201.376 193.264C208.811 188.531 214.247 181.03 219.783 174.11C220.121 173.696 220.44 173.323 220.724 173.038C221.233 172.521 221.623 172.273 221.865 172.396C222.569 173.354 222.09 174.949 222.102 176.985C222.001 182.479 222.741 189.413 228.212 192.094C241.971 197.386 253.535 178.48 260.674 168.63C261.833 166.935 263.206 164.663 261.804 168.91C260.745 172.53 258.899 177.059 258.651 180.344C257.924 187.756 262.182 193.066 270.268 190.414C281.56 186.896 288.297 176.501 294.626 167.17C295.046 166.538 295.957 165.288 296.46 165.191C297.052 164.899 296.975 167.4 296.762 168.645C296.022 174.98 295.608 183.142 301.902 186.896C312.49 192.897 326.165 177.902 332.908 169.033C333.837 167.872 334.577 167.566 334.269 169.891C332.696 178.093 332.258 187.243 343.402 186.248C352.606 184.208 361.029 172.115 366.559 164.172C368.884 160.953 367.174 166.851 367.086 167.914C366.151 173.27 366.648 180.791 372.433 182.851C386.339 186.039 397.158 165.345 404.954 155.495C408.166 151.723 403.913 161.345 403.664 162.205C401.487 168.331 400.417 177.37 407.03 179.656C413.383 181.879 420.132 178.524 423.19 172.828C427.336 165.765 428.454 156.733 431.873 149.375C438.125 136.143 459.567 96.3186 474.911 98.0299C479.956 100.189 476.277 109.241 474.538 112.902C469.729 122.609 460.963 130.519 454.261 139.01C448.323 146.822 442.236 156.589 441.035 166.413C440.16 172.704 444.046 177.936 450.304 178.791C465.524 180.352 479.856 162.488 488.817 152.409C492.1 148.592 490.343 154.696 490.059 157.016C489.557 160.249 489.586 163.852 490.26 166.875C491.781 175.539 500.387 178.091 507.834 175.772C521.338 171.388 533.848 151.279 542.579 139.747C543.17 139.059 543.508 138.935 543.519 139.474C543.502 140.029 543.23 141.516 542.916 142.35C535.783 167.22 515.11 203.793 485.268 196.936C480.518 195.599 475.757 192.895 471.119 191.104C463.595 187.796 456.296 189.059 451.523 195.933C444.709 204.972 446.962 218.636 456.184 225.517C466.979 233.899 481.826 232.88 493.993 228.721C534.085 215.518 540.461 169.763 556.184 135.82C563.347 120.256 575.632 107.988 584.014 93.2079C586.818 88.1159 589.42 81.6893 586.912 76.4454V76.4217ZM245.224 158.392C242.42 145.506 261.969 112.203 275.645 112.873L275.746 112.887C280.909 113.77 281.128 120.666 280.028 124.628C278.845 132.405 253.901 177.114 245.224 158.392ZM329.969 155.689C327.354 157.394 323.243 157.725 320.723 155.545L320.647 155.473C317.24 151.674 319.848 145.1 321.634 139.949C325.84 129.504 334.624 114.276 344.484 109.129C346.395 108.299 348.672 108.096 350.736 108.505C359.798 110.491 352.747 125.099 349.695 131.032C345.709 138.216 336.398 151.636 329.963 155.695L329.969 155.689ZM544.466 119.826C539.207 129.667 530.151 143.819 520.149 145.686C517.109 146.112 513.607 144.589 512.738 141.403C510.567 132.77 516.523 119.924 521.125 112.739C526.342 105.258 532.725 95.803 540.668 94.1078L540.781 94.092C555.042 92.4715 548.157 112.335 544.46 119.82L544.466 119.826Z" fill="black"/>
<path d="M147.04 54.9596C145.36 54.1257 143.58 53.2664 141.906 52.4326C140.593 51.7767 139.901 51.3564 140.096 51.2001L140.114 51.1826C140.776 50.999 142.296 51.1261 143.136 51.1822C147.3 51.3554 151.908 51.1637 155.268 49.0571C161.603 44.6953 159.349 38.6985 151.991 37.8188C143.704 36.8104 136.233 41.3181 130.076 46.2392C128.893 47.0054 127.639 47.3147 126.267 47.1902C89.3449 40.5647 29.6503 68.9842 46.378 112.681C55.1559 134.54 87.7419 127.69 83.1045 103.745C82.0339 98.372 77.8579 94.9447 76.4146 90.2755C71.4341 73.405 101.352 57.546 113.94 59.1087C115.685 59.6065 115.04 61.0209 114.229 62.3142C106.428 72.9569 101.92 85.3253 96.2951 97.1064C84.9973 119.437 67.3054 155.085 48.5134 166.027C42.7758 169.063 36.0504 169.708 30.1353 172.137C21.523 175.246 16.6431 185.514 18.6247 194.174C21.4284 208.197 37.5232 214.24 49.9566 210.268C53.3992 209.222 56.611 207.527 59.61 205.367C71.8541 196.269 79.4254 181.765 85.4173 168.582C90.6225 157.456 94.4082 145.158 98.1051 133.503C99.087 132.396 100.471 137.153 101.512 138.361C101.979 139.085 102.506 139.75 103.086 140.382C112.082 150.229 126.409 150.231 137.629 145.167C172.534 129.898 185.784 73.7445 147.058 54.9481L147.04 54.9596ZM110.799 125.851C108.575 124.925 106.398 123.656 104.937 121.862C102.482 118.808 103.369 115.741 104.221 112.194C106.215 104.603 109.172 96.6804 111.769 89.2184C113.94 83.2812 121.546 63.1282 126.793 60.9658C130.732 60.1117 138.233 65.1114 140.871 67.9675L140.954 68.0518C159.438 87.0097 140.037 136.454 110.805 125.845L110.799 125.851Z" fill="black"/>
<path d="M420.711 78.9811C426.538 79.142 432.612 72.6517 434.274 64.4872C435.937 56.3226 432.559 49.5727 426.727 49.4117C420.901 49.2509 414.826 55.7411 413.164 63.9057C411.502 72.0702 414.879 78.8201 420.711 78.9811Z" fill="black"/>
<path d="M222.961 61.4045C219.652 66.4197 212.483 72.4256 211.317 77.6974C210.785 81.6673 214.178 84.077 217.841 82.7069C223.592 80.4664 225.178 71.593 227.73 66.2647C230.887 60.332 236.366 52.3172 241.783 49.8452C242.935 49.4308 244.454 49.2745 244.893 50.6616C246.382 57.7154 232.259 65.2302 230.662 74.3835C229.971 77.1944 230.688 81.1956 234.104 81.6802C239.96 82.3404 244.568 75.6258 248.43 72.2126C249.081 71.5995 249.515 71.7519 249.748 72.86C250.975 81.1414 258.089 82.3221 264.874 78.2714C270.597 74.8052 280.432 64.1812 281.71 57.8097C281.971 55.9718 281.572 53.8993 279.286 54.1182C276.788 54.2574 274.507 57.2447 274.118 59.5576C273.812 61.5751 274.474 63.5691 273.325 65.4437C270.835 69.8804 263.67 72.3053 259.516 69.0275C258.284 68.0967 258.127 66.9947 259.53 66.1716C266.681 61.7806 276.931 52.4911 279.549 44.7232C279.95 42.9922 279.96 40.8295 279.167 39.1798C277.261 35.7537 273.076 36.6114 269.591 38.1437C260.936 42.4348 253.102 55.6056 250.182 64.8047C249.919 65.6785 249.935 66.7805 249.138 67.3672C247.521 68.284 244.497 68.4971 243.106 67.7297C242.351 67.3081 242.092 66.3231 242.142 65.4597C242.329 61.8969 246.246 59.0639 248.29 56.4998C250.614 53.6225 253.527 49.5279 254.123 46.1906C254.617 43.7419 252.618 41.6509 250.175 41.6985C244.312 41.665 239.334 47.8152 235.053 51.4182C233.923 52.2793 231.763 53.9273 230.735 54.7071C230.669 54.763 230.123 55.1665 230.251 54.986L230.256 54.9765C232.003 52.8417 233.886 50.5241 235.884 48.5979C241.04 43.3554 251.253 37.4295 250.752 29.3697C250.626 28.2872 250.042 27.268 249.18 26.8161C238.536 22.8671 228.378 53.7638 222.959 61.4068L222.961 61.4045ZM264.347 48.8407C265.8 47.7264 268.845 45.7662 270.514 46.9801C273.648 51.3844 264.456 58.812 261.107 61.2061C260.088 61.9172 258.362 63.0813 257.351 63.5338C257.069 63.6547 256.706 63.7837 256.497 63.4999L256.482 63.4782C255.341 57.8266 260.297 52.2292 264.349 48.8383L264.347 48.8407Z" fill="black"/>
<path d="M197.534 82.6208C201.485 81.7757 204.082 79.7459 206.698 76.4866C212.478 69.282 217.078 57.5909 220.732 50.7409C223.728 45.2541 227.224 39.6122 230.826 34.4874C231.711 33.2611 232.556 31.9771 233.496 30.7851C233.921 30.2654 234.299 29.9087 234.883 29.653C235.903 29.2268 237.275 28.9493 238.462 28.5094C241.268 27.4543 244.29 24.8195 245.036 22.0309C245.271 20.9784 245.064 19.9302 244.525 18.9046C243.842 17.6201 242.712 16.6222 241.294 16.3315C235.599 15.2112 231.896 21.3931 229.363 25.9312C229.147 26.3192 228.874 26.7489 228.523 26.9707C227.801 27.4472 226.84 27.1313 225.848 26.9026C218.909 25.1101 211.835 21.6104 204.58 23.6871C198.268 25.3647 191.654 30.1758 191.139 37.0355C190.88 40.5068 192.73 43.8796 196.49 44.1756C202.812 44.775 205.432 37.8619 210.014 34.8601C213.259 32.5615 217.145 31.4944 221.1 31.1504C222.189 31.053 223.298 31.0012 224.414 30.9874C224.832 30.9994 225.418 30.9456 225.696 31.2899L225.708 31.3115C225.893 31.6139 225.541 32.2251 225.328 32.5775C221.37 39.2014 217.273 45.7777 212.665 51.97C209.525 55.7329 205.473 62.9345 200.388 63.3918C197.674 63.5534 195.077 62.2141 192.45 63.4384C188.739 65.0546 186.052 69.1436 185.936 72.5059C185.409 78.9855 191.082 84.1369 197.53 82.6231L197.534 82.6208Z" fill="black"/>
<defs>
<filter id="filter0_dddd_3325_11626" x="0" y="0" width="606" height="259.056" filterUnits="userSpaceOnUse" color-interpolation-filters="sRGB">
<feFlood flood-opacity="0" result="BackgroundImageFix"/>
<feColorMatrix in="SourceAlpha" type="matrix" values="0 0 0 0 0 0 0 0 0 0 0 0 0 0 0 0 0 0 127 0" result="hardAlpha"/>
<feOffset/>
<feGaussianBlur stdDeviation="0.5"/>
<feColorMatrix type="matrix" values="0 0 0 0 0 0 0 0 0 0 0 0 0 0 0 0 0 0 0.1 0"/>
<feBlend mode="normal" in2="BackgroundImageFix" result="effect1_dropShadow_3325_11626"/>
<feColorMatrix in="SourceAlpha" type="matrix" values="0 0 0 0 0 0 0 0 0 0 0 0 0 0 0 0 0 0 127 0" result="hardAlpha"/>
<feOffset dy="2"/>
<feGaussianBlur stdDeviation="1"/>
<feColorMatrix type="matrix" values="0 0 0 0 0 0 0 0 0 0 0 0 0 0 0 0 0 0 0.09 0"/>
<feBlend mode="normal" in2="effect1_dropShadow_3325_11626" result="effect2_dropShadow_3325_11626"/>
<feColorMatrix in="SourceAlpha" type="matrix" values="0 0 0 0 0 0 0 0 0 0 0 0 0 0 0 0 0 0 127 0" result="hardAlpha"/>
<feOffset dy="5"/>
<feGaussianBlur stdDeviation="1.5"/>
<feColorMatrix type="matrix" values="0 0 0 0 0 0 0 0 0 0 0 0 0 0 0 0 0 0 0.05 0"/>
<feBlend mode="normal" in2="effect2_dropShadow_3325_11626" result="effect3_dropShadow_3325_11626"/>
<feColorMatrix in="SourceAlpha" type="matrix" values="0 0 0 0 0 0 0 0 0 0 0 0 0 0 0 0 0 0 127 0" result="hardAlpha"/>
<feOffset dy="9"/>
<feGaussianBlur stdDeviation="1.5"/>
<feColorMatrix type="matrix" values="0 0 0 0 0 0 0 0 0 0 0 0 0 0 0 0 0 0 0.01 0"/>
<feBlend mode="normal" in2="effect3_dropShadow_3325_11626" result="effect4_dropShadow_3325_11626"/>
<feBlend mode="normal" in="SourceGraphic" in2="effect4_dropShadow_3325_11626" result="shape"/>
</filter>
<radialGradient id="paint0_radial_3325_11626" cx="0" cy="0" r="1" gradientUnits="userSpaceOnUse" gradientTransform="translate(303 124.028) rotate(152.988) scale(301.757 735.823)">
<stop stop-color="white"/>
<stop offset="1" stop-color="white" stop-opacity="0.9"/>
</radialGradient>
</defs>
</svg>
