<svg width="100%" viewBox="0 0 200 34" fill="none" xmlns="http://www.w3.org/2000/svg">
<path d="M87.8957 6.72787C87.7857 6.56787 87.6857 6.41787 87.5557 6.25787C86.6257 5.12787 85.4057 4.43787 83.9857 4.14787C82.1157 3.77787 80.3157 4.08787 78.5857 4.84787C75.2057 6.34787 72.4657 8.62787 70.2257 11.5479C68.6757 13.5779 67.4957 15.8279 66.4157 18.1379C65.7957 19.4779 65.3157 20.8579 65.1457 22.3279C65.0157 23.4279 65.1257 24.4979 65.6957 25.4979C66.4457 26.8079 67.9057 27.4179 69.1857 26.9179C69.9857 26.6079 70.5457 25.9979 70.8857 25.2479C71.3757 24.1879 71.8457 23.1079 72.1957 21.9979C72.7057 20.3579 72.7357 18.6879 72.2257 17.0179C72.1557 16.7679 72.0757 16.5179 72.0557 16.2679C72.0357 15.9479 72.0957 15.6179 72.4057 15.4379C72.6857 15.2779 72.9857 15.3079 73.2557 15.4879C73.4757 15.6279 73.6757 15.7879 73.8657 15.9579C75.4057 17.2779 77.2057 17.8879 79.2357 17.9379C79.7457 17.8879 80.2657 17.8679 80.7657 17.7679C82.1857 17.4779 83.4357 16.9979 84.5157 16.3179C85.3657 15.7879 86.0857 15.1079 86.7057 14.3179C87.3957 13.4379 87.9657 12.4079 88.3657 11.1979C88.6157 10.4479 88.7057 9.72787 88.6557 9.02787C88.5957 8.22787 88.3457 7.46787 87.8657 6.74787L87.8957 6.72787Z" fill="white"/>
<path d="M152.296 10.7379C152.296 10.7379 152.296 10.6579 152.296 10.6179C152.256 10.1679 152.216 9.49788 152.136 8.82788C152.086 8.37788 151.996 7.93787 151.856 7.51787C151.756 7.20787 151.636 6.90787 151.476 6.61787C150.866 5.54787 149.836 5.25787 148.796 5.90787C148.346 6.18787 147.936 6.54787 147.576 6.93787C146.856 7.72787 146.276 8.62787 145.776 9.56787C146.046 10.1879 146.246 10.8979 146.346 11.7379C146.846 15.8579 145.236 19.5479 142.586 22.4179C142.596 22.9379 142.636 23.4679 142.706 23.9979C142.826 24.9079 142.996 25.8079 143.526 26.5879C143.946 27.2279 144.526 27.5779 145.296 27.4279C145.676 27.3479 146.056 27.1779 146.366 26.9479C147.066 26.4479 147.626 25.7979 148.106 25.0879C148.536 24.4579 148.906 23.7979 149.266 23.1279C149.756 22.1979 150.186 21.2379 150.546 20.2479C150.726 19.7479 150.906 19.2479 151.056 18.7379C151.826 16.2179 152.226 13.6379 152.306 10.7179L152.296 10.7379Z" fill="white"/>
<path d="M127.076 12.7179C127.056 12.3179 126.996 11.9279 126.916 11.5379C126.736 10.6579 126.376 9.82787 125.816 9.11787C125.726 9.00787 125.666 8.88787 125.566 8.77787C124.676 7.81787 123.436 7.28787 122.256 6.79787C120.226 5.94787 118.206 4.98787 116.126 4.24787C113.516 3.30787 111.956 4.14787 111.066 6.20787C111.116 6.45787 111.156 6.71787 111.196 6.97787C111.426 8.80787 111.096 10.5679 110.596 12.3179C109.786 15.0979 108.626 17.6779 107.026 20.0379C106.926 21.0279 106.936 22.0079 107.176 23.0079C107.576 24.6179 108.436 25.8679 110.056 26.4679C110.736 26.7179 111.446 26.8079 111.856 26.7779C113.656 26.7579 115.076 26.4079 116.466 25.9179C118.846 25.0779 120.906 23.7779 122.706 22.1179C123.316 21.5479 123.896 20.9379 124.446 20.2879C124.556 20.1579 124.646 20.0279 124.746 19.8979C126.386 17.8079 127.226 15.4379 127.076 12.7279V12.7179Z" fill="white"/>
<path d="M144.576 12.1779C144.456 11.1879 144.156 10.3879 143.696 9.72787C142.556 8.06787 140.466 7.25787 138.056 6.19787C135.706 5.16787 130.826 3.18787 129.216 4.59787C128.266 5.43787 127.936 6.77787 127.596 8.45787C128.246 9.44787 128.636 10.5679 128.776 11.7579C129.196 15.2479 128.266 18.3679 126.076 21.0979C125.646 21.6279 125.196 22.1279 124.736 22.6079C124.796 22.9779 124.876 23.3579 125.006 23.7179C125.656 25.5379 127.696 26.6779 129.606 26.5679H129.596C133.806 26.5279 137.866 24.7779 140.776 21.7979C141.496 21.0579 142.146 20.2479 142.696 19.3679C142.716 19.3379 142.736 19.2979 142.756 19.2679C143.726 17.7179 144.416 15.9679 144.586 14.1479C144.656 13.4079 144.636 12.7679 144.566 12.1779H144.576Z" fill="white"/>
<path d="M58.2956 5.27787C57.9756 5.04787 57.6156 4.85787 57.2456 4.71787C56.1356 4.29787 54.9756 4.16787 53.8656 4.22787C52.0856 4.16787 50.4456 4.49787 48.8756 5.17787C47.0356 5.97787 45.6956 7.33787 44.6156 8.98787C44.7156 10.4979 44.5956 12.0079 44.3756 13.5079C43.8556 17.0779 42.7456 20.4479 41.0856 23.6479C41.0856 23.6579 41.0756 23.6779 41.0656 23.6879C41.5956 25.1679 42.5956 26.2879 44.1656 26.9779C45.9756 27.7779 47.8656 28.0879 49.8556 27.9079C51.2456 27.7879 52.5456 27.4079 53.7256 26.6679C54.8456 25.9679 55.6556 25.0179 55.9556 23.7079C56.1556 22.8079 55.9456 22.0279 55.3056 21.3479C54.8056 20.8179 54.1756 20.5179 53.4856 20.3879C52.3756 20.1879 51.2556 20.0279 50.1356 19.9079C49.3056 19.8179 48.4756 19.8379 47.6456 19.7679C47.3556 19.7479 47.0556 19.6479 46.8056 19.5079C46.3356 19.2579 46.3156 18.6879 46.7456 18.3879C46.9456 18.2479 47.2056 18.1279 47.4456 18.0879C47.9156 18.0179 48.3856 17.9979 48.8656 17.9879C49.9256 17.9779 50.9656 17.8479 51.9656 17.5079C52.8956 17.1879 53.7656 16.7679 54.3656 15.9379C55.1756 14.8179 54.9656 13.5079 53.8456 12.6979C53.2656 12.2779 52.5956 12.1179 51.9056 11.9879C51.5156 11.9079 51.1256 11.8179 50.7856 11.6379C50.3156 11.3879 50.2956 10.8979 50.6956 10.5579C50.8656 10.4079 51.1056 10.2979 51.3256 10.2379C51.6456 10.1479 51.9856 10.1179 52.3256 10.0679C54.0156 9.84788 55.6356 9.40788 57.1156 8.54787C57.6056 8.25787 58.0656 7.89787 58.4856 7.50787C59.0756 6.95787 59.1356 5.85787 58.3056 5.26787L58.2956 5.27787Z" fill="white"/>
<path d="M42.7556 8.60787C42.7156 8.26787 42.6856 7.92787 42.6156 7.58787C42.3556 6.30787 41.9156 5.10787 41.0656 4.08787C39.9056 2.68787 38.2256 2.41787 36.6956 3.36787C36.0456 3.77787 35.5156 4.30787 35.0356 4.88787C33.9756 6.18787 33.2256 7.61787 33.0456 9.32787C32.9756 10.0079 32.7556 10.6779 32.5556 11.3479C32.4656 11.6479 32.2956 11.9279 32.1156 12.1879C31.9356 12.4379 31.6756 12.6079 31.3456 12.5279C30.9856 12.4379 30.8456 12.1579 30.8056 11.8179C30.7856 11.6579 30.7856 11.4979 30.8056 11.3479C30.8556 11.0379 30.9056 10.7279 30.9856 10.4179C31.2656 9.31787 31.4356 8.19787 31.3656 7.05787C31.2956 6.05787 31.0856 5.08787 30.4756 4.26787C29.7356 3.26787 28.7356 2.75787 27.5056 2.82787C26.7256 2.86787 26.0056 3.14787 25.3256 3.55787C24.6456 3.96787 24.0456 4.46787 23.4956 5.01787C24.3256 6.14787 24.6556 7.41787 24.2256 8.81787C23.9056 9.85787 23.1756 10.6279 22.3256 11.2779C21.5456 11.8779 20.6856 12.3279 19.7856 12.6979C19.5256 12.7979 19.2756 12.9179 19.0156 13.0079C19.0056 13.0079 18.9956 13.0079 18.9856 13.0179C18.9656 13.0679 18.9456 13.1179 18.9356 13.1779C18.2456 15.4279 17.8156 17.7179 17.7756 20.0779C17.7756 20.2579 17.7756 20.4379 17.7756 20.6179C17.8056 21.8579 18.0156 23.0579 18.6256 24.1779C19.9056 26.5279 22.6556 27.0679 24.6956 25.3479C25.3356 24.8079 25.8756 24.1779 26.2756 23.4279C27.2756 21.5479 28.1256 19.6079 28.7856 17.5879C28.8856 17.2879 29.0156 16.9879 29.1956 16.7379C29.3656 16.4979 29.6056 16.2979 29.9456 16.3779C30.2656 16.4479 30.5156 16.7179 30.5356 17.1179C30.5556 17.4479 30.5456 17.7979 30.4856 18.1279C30.1856 19.7079 29.9756 21.2979 30.1056 22.9179C30.2056 24.1479 30.5356 25.2979 31.3956 26.2379C32.3656 27.2979 33.7356 27.8679 35.2656 27.3979C36.2956 27.0779 37.0556 26.3979 37.7356 25.6079C38.2756 24.9779 38.7156 24.2679 39.1156 23.5479C39.3256 23.1779 39.5156 22.8079 39.7056 22.4279C40.0356 21.7779 40.3256 21.1179 40.6056 20.4579C41.5556 18.1779 42.2156 15.7979 42.5656 13.3379C42.5956 13.1279 42.6156 12.9179 42.6456 12.7079C42.8156 11.3679 42.8856 10.0179 42.7456 8.67787L42.7556 8.60787Z" fill="white"/>
<path d="M22.2556 6.44788C22.0556 6.02787 21.7556 5.66788 21.3956 5.32788C21.2856 5.22788 21.1656 5.13788 21.0456 5.04788C20.2456 4.40788 19.3256 3.95788 18.3556 3.59787C16.6456 2.95788 14.8656 2.66788 13.0656 2.56788C10.8356 2.44788 8.62563 2.59788 6.47563 3.26788C5.25563 3.64788 4.08563 4.13788 3.11563 4.99788C1.83563 6.13788 1.68563 7.59788 2.71563 8.84788C3.21563 9.45788 3.83563 9.91787 4.53563 10.2579C5.19564 10.5879 5.87564 10.8579 6.53563 11.1779C6.79564 11.3079 7.06564 11.4679 7.26564 11.6779C7.73563 12.1679 7.60563 12.6979 6.97563 12.9479C6.79563 13.0179 6.59563 13.0379 6.39563 13.0579C5.54563 13.1479 4.82563 13.4979 4.34563 14.2179C2.78563 16.5679 1.85563 19.1179 1.77563 21.8479C1.79563 22.3979 1.79563 22.8379 1.84563 23.2779C1.87563 23.5879 1.96563 23.8979 2.06563 24.1979C2.72563 26.3879 4.48563 27.5279 6.85563 26.8779C8.04563 26.5479 9.08563 25.9479 10.0156 25.1479C11.9156 23.5379 13.3256 21.5779 14.3256 19.2979C14.8156 18.1879 15.1756 17.0379 15.3756 15.8379C15.4956 15.0979 15.2656 14.3279 14.4756 13.9479C14.2956 13.8579 14.1256 13.7579 13.9656 13.6379C13.3956 13.2279 13.3756 12.6579 13.9656 12.2879C14.2556 12.1079 14.6256 12.0179 14.9656 11.9579C15.8356 11.8079 16.7156 11.6979 17.5756 11.4979C17.9856 11.3979 18.3956 11.2979 18.7856 11.1379C19.1356 11.0079 19.4756 10.8579 19.8056 10.6879C20.5356 10.3279 21.2156 9.88788 21.7756 9.25787C22.1856 8.80788 22.4456 8.29787 22.4756 7.65788C22.5056 7.19788 22.4056 6.79788 22.2256 6.43788L22.2556 6.44788Z" fill="white"/>
<path d="M109.446 8.90788C109.566 7.90788 109.456 6.92788 109.116 5.99788C109.056 5.82788 108.996 5.65788 108.916 5.48788C108.366 4.36788 107.456 3.73788 106.216 3.60788C104.726 3.44788 103.436 3.89788 102.306 4.86788C101.316 5.72788 100.636 6.81788 100.066 7.98788C99.6056 8.92788 99.4956 9.96788 99.2456 10.9679C98.9756 12.0479 98.6956 13.1279 98.1856 14.1179C98.0256 14.4279 97.7856 14.7079 97.5456 14.9579C97.3456 15.1679 97.0456 15.2179 96.7656 15.0979C96.4756 14.9779 96.3656 14.6979 96.3956 14.4079C96.3956 14.4079 96.3956 14.4079 96.3956 14.3979C96.4256 14.0879 96.4556 13.7679 96.5756 13.4879C97.1156 12.1179 97.5356 10.7179 97.6456 9.23788C97.7056 8.38788 97.8256 7.53788 97.7756 6.69788C97.7156 5.59788 97.2956 4.60788 96.3756 3.91788C95.0656 2.94788 93.4156 3.05788 92.1156 4.21788C91.6756 4.60788 91.2556 5.04788 90.8956 5.51788C90.5756 5.93788 90.2956 6.36788 90.0056 6.80788C90.2956 7.48788 90.4756 8.22788 90.5156 9.02788C90.5956 10.4679 90.1656 11.8079 89.5756 13.1079C88.7656 14.8779 87.6456 16.2579 86.2656 17.3079C86.2256 17.8379 86.1956 18.4079 86.1856 19.0179C86.1556 20.0879 86.6256 21.7479 87.7356 23.1779C89.6856 25.6879 92.3656 26.5079 95.3956 26.2079C97.6856 25.9879 99.6956 24.9879 101.466 23.5279C102.946 22.3079 104.196 20.8979 105.286 19.3579C106.006 18.3279 106.676 17.2579 107.236 16.1079C108.356 13.8379 109.136 11.4479 109.436 8.91788L109.446 8.90788Z" fill="white"/>
<path d="M192.656 13.2179C191.036 12.6679 189.396 12.5679 187.756 13.1479C186.936 13.4279 186.196 13.8479 185.606 14.4979C185.056 15.1079 184.896 15.8979 185.346 16.6079C185.816 17.3379 186.666 17.4279 187.276 17.9879C187.566 18.2479 187.826 18.6179 187.736 18.9979C187.646 19.3779 187.226 19.6079 186.836 19.6179C185.786 19.6279 184.546 18.5979 183.876 17.8779C182.986 16.9179 182.806 15.6879 183.356 14.5179C183.736 13.7279 184.306 13.0979 185.006 12.5979C186.676 11.3779 188.556 10.8479 190.616 11.0279C191.626 11.1179 192.626 11.2779 193.626 11.3779C194.876 11.5079 196.006 11.2679 196.866 10.2579C197.566 9.41788 197.956 8.47788 197.766 7.35788C197.586 6.29788 196.996 5.49788 196.136 4.89788C194.646 3.84788 192.976 3.46788 191.176 3.44788C190.586 3.50788 189.986 3.53788 189.406 3.62788C187.406 3.92788 185.516 4.56788 183.766 5.59788C181.976 6.65788 180.386 7.95788 178.996 9.51788C178.946 9.56788 178.906 9.62788 178.856 9.67788C178.696 12.4879 178.146 15.2279 177.346 17.9179C176.886 19.4879 176.306 21.0079 175.596 22.4779C176.326 23.9779 177.486 25.1679 179.146 25.9579C180.606 26.6579 182.156 27.0079 183.766 26.6079C184.946 26.3079 186.036 25.6079 186.816 24.6879C187.196 24.2379 187.726 23.7779 188.306 23.8879C188.896 23.9979 189.216 24.6079 189.556 25.0879C190.906 26.9779 193.306 27.3379 195.056 25.7779C196.596 24.3979 197.586 22.6879 198.026 20.6679C198.486 18.5679 197.886 16.8079 196.306 15.3579C195.236 14.3679 193.986 13.7079 192.616 13.2479L192.656 13.2179Z" fill="white"/>
<path d="M176.346 4.51787C175.916 3.75787 175.316 3.23787 174.406 3.08787C173.736 2.97787 173.146 3.16787 172.576 3.42787C171.346 3.97787 170.416 4.89787 169.586 5.92787C168.266 7.56787 167.296 9.39787 166.636 11.3979C166.486 11.8679 166.286 12.3279 166.046 12.7579C165.856 13.0979 165.516 13.3379 165.096 13.2279C164.686 13.1279 164.476 12.7979 164.426 12.3979C164.366 11.9879 164.326 11.5679 164.326 11.1579C164.346 10.1779 164.256 9.21787 164.046 8.25787C163.726 6.79787 163.186 5.44787 162.126 4.35787C160.726 2.90787 159.026 2.56787 157.256 3.74787C156.276 4.39787 155.506 5.24787 154.806 6.15787C154.416 6.66787 154.066 7.18787 153.746 7.72787C153.806 8.01787 153.856 8.29787 153.886 8.58787C153.986 9.36787 154.026 10.1679 154.066 10.6879C153.936 15.2479 153.026 19.3979 151.166 23.2379C151.366 23.7279 151.616 24.1979 151.966 24.6179C152.856 25.6879 154.306 25.9479 155.386 25.0079C155.656 24.7779 155.926 24.5379 156.156 24.2679C157.276 22.9779 158.076 21.4979 158.706 19.9279C159.026 19.1279 159.226 18.3079 159.186 17.4379C159.156 16.9279 159.186 16.4079 159.186 15.8879C159.186 15.0879 159.146 14.2879 159.206 13.4979C159.236 13.0779 159.406 12.6579 159.566 12.2579C159.666 12.0279 159.906 11.8379 160.186 11.8679C160.506 11.8979 160.756 12.1079 160.816 12.4279C160.896 12.8479 160.946 13.2879 160.946 13.7179C160.976 14.8279 160.896 15.9479 160.986 17.0479C161.106 18.4879 161.346 19.9179 161.556 21.3479C161.806 23.0679 162.446 24.5879 163.736 25.8079C164.786 26.7979 166.036 27.2979 167.456 27.2979C168.596 27.2979 169.636 26.9279 170.556 26.2279C171.916 25.2079 172.876 23.8679 173.626 22.3779C173.646 22.3279 173.676 22.2879 173.706 22.2379C174.106 21.4079 174.466 20.5779 174.796 19.7379C175.736 17.3679 176.406 14.9279 176.766 12.4279C176.926 11.2879 177.036 10.1279 177.066 8.95787C177.076 8.46787 177.086 7.97787 177.076 7.47787C177.056 6.43787 176.866 5.41787 176.336 4.50787L176.346 4.51787Z" fill="white"/>
<path d="M59.5457 3.88787C57.7557 2.62787 55.6757 2.41787 53.5857 2.38787C52.6657 2.37787 51.7357 2.53787 50.8157 2.70787C48.1257 3.20787 45.9157 4.47787 44.1957 6.50787C43.8557 5.16787 43.3257 3.90787 42.3857 2.83787C41.2957 1.59787 39.9657 0.847875 38.2657 0.947875C37.2257 1.00787 36.2857 1.37787 35.4657 1.99787C34.9457 2.38787 34.4657 2.84787 33.9557 3.24787C33.3057 3.76787 32.6957 3.73787 32.0857 3.16787C31.8057 2.90787 31.5557 2.62787 31.2757 2.36787C30.0457 1.23787 28.6057 0.797875 26.9457 1.03787C25.6257 1.22787 24.4957 1.80787 23.4557 2.61787C23.0257 2.94787 22.6257 3.31787 22.2457 3.69787C21.5257 3.10787 20.7157 2.63787 19.8357 2.26787C17.3357 1.20787 14.6857 0.777875 12.0957 0.727875C10.3457 0.747875 8.74566 0.887875 7.17566 1.23787C5.19566 1.67787 3.33566 2.38787 1.79566 3.75787C0.855659 4.59787 0.245659 5.62787 0.165659 6.90787C0.105659 7.82787 0.345659 8.69787 0.895659 9.42787C1.37566 10.0579 1.92566 10.6279 2.47566 11.2079C2.98566 11.7579 3.15566 12.3579 2.84566 13.0579C2.74566 13.2979 2.62566 13.5279 2.50566 13.7479C0.90566 16.4679 -0.0843405 19.3579 0.00565947 22.5679C0.0456595 23.8279 0.315659 25.0179 0.915659 26.0979C1.95566 27.9679 3.56566 28.9279 5.69566 28.8679C7.31566 28.8179 8.79566 28.2279 10.1257 27.2879C12.7857 25.4079 14.6757 22.9479 15.9557 20.0079C15.9557 20.0379 15.9557 20.0779 15.9557 20.1079C16.0257 20.8379 16.0557 21.5679 16.1657 22.2879C16.4457 24.1179 17.1857 25.7279 18.6357 26.9079C20.3857 28.3379 22.3457 28.4479 24.3957 27.5979C25.1357 27.2879 25.7657 26.8079 26.3357 26.2379C26.6557 25.9179 26.9857 25.5879 27.3457 25.3179C27.8457 24.9479 28.2357 24.9979 28.6657 25.4479C28.8557 25.6479 29.0157 25.8779 29.1657 26.1079C29.6357 26.8279 30.1257 27.5179 30.8157 28.0579C31.8857 28.8979 33.1057 29.3479 34.4557 29.3079C36.1757 29.2579 37.5557 28.3979 38.6957 27.1579C39.1657 26.6479 39.5857 26.0979 39.9757 25.5279C40.5457 26.5179 41.3457 27.3679 42.4257 28.0279C44.2957 29.1779 46.3857 29.6079 48.5557 29.7179C49.9157 29.7879 51.2457 29.5679 52.5357 29.1479C54.6957 28.4479 56.4557 27.2279 57.4257 25.0879C58.2657 23.2379 58.0657 21.2779 56.5457 19.9079C56.3157 19.6979 56.0657 19.4879 55.8457 19.2579C55.2857 18.6879 55.2057 18.2379 55.5657 17.5479C55.7157 17.2479 55.9057 16.9679 56.0857 16.6779C56.7757 15.5479 56.9957 14.3679 56.5357 13.0879C56.4457 12.8479 56.3757 12.5979 56.3157 12.3479C56.1557 11.6479 56.3457 11.1579 56.9257 10.7479C57.1357 10.5979 57.3657 10.4779 57.5857 10.3379C58.0657 10.0479 58.5457 9.77787 59.0057 9.46787C59.6157 9.05787 60.1557 8.54787 60.5357 7.90787C60.9357 7.21787 61.1257 6.48787 60.9157 5.68787C60.7057 4.89787 60.2157 4.30787 59.5757 3.84787L59.5457 3.88787ZM14.9757 11.9679C14.6357 12.0279 14.2657 12.1179 13.9757 12.2979C13.3857 12.6679 13.4057 13.2379 13.9757 13.6479C14.1357 13.7579 14.3057 13.8679 14.4857 13.9579C15.2757 14.3479 15.5057 15.1079 15.3857 15.8479C15.1957 17.0479 14.8257 18.1979 14.3357 19.3079C13.3357 21.5779 11.9257 23.5479 10.0257 25.1579C9.09566 25.9479 8.04566 26.5579 6.86566 26.8879C4.49566 27.5479 2.73566 26.3979 2.07566 24.2079C1.98566 23.9079 1.89566 23.5979 1.85566 23.2879C1.80566 22.8579 1.80566 22.4179 1.78566 21.8579C1.86566 19.1379 2.79566 16.5779 4.35566 14.2279C4.83566 13.4979 5.55566 13.1579 6.40566 13.0679C6.60566 13.0479 6.80566 13.0179 6.98566 12.9579C7.61566 12.7079 7.74566 12.1779 7.27566 11.6879C7.07566 11.4779 6.80566 11.3179 6.54566 11.1879C5.88566 10.8679 5.20566 10.5979 4.54566 10.2679C3.84566 9.91787 3.22566 9.45788 2.72566 8.85787C1.69566 7.60787 1.83566 6.14787 3.12566 5.00787C4.09566 4.14787 5.27566 3.65787 6.48566 3.27787C8.63566 2.60787 10.8457 2.45787 13.0757 2.57787C14.8857 2.67787 16.6557 2.97787 18.3657 3.60787C19.3357 3.96788 20.2557 4.40787 21.0557 5.05787C21.1757 5.14787 21.2957 5.23787 21.4057 5.33787C21.7657 5.66787 22.0657 6.03787 22.2657 6.45787C22.4357 6.81787 22.5357 7.21787 22.5157 7.67787C22.4857 8.31787 22.2157 8.81787 21.8157 9.27787C21.2557 9.90788 20.5757 10.3479 19.8457 10.7079C19.5157 10.8679 19.1757 11.0179 18.8257 11.1579C18.4257 11.3079 18.0157 11.4179 17.6157 11.5179C16.7557 11.7179 15.8757 11.8279 15.0057 11.9779L14.9757 11.9679ZM40.6257 20.3879C40.3457 21.0579 40.0557 21.7179 39.7257 22.3579C39.5357 22.7379 39.3357 23.1079 39.1357 23.4779C38.7357 24.1979 38.2957 24.8979 37.7557 25.5379C37.0757 26.3279 36.3157 27.0179 35.2857 27.3279C33.7557 27.7979 32.3857 27.2179 31.4157 26.1679C30.5557 25.2379 30.2257 24.0879 30.1257 22.8479C29.9857 21.2279 30.2057 19.6479 30.5057 18.0579C30.5657 17.7279 30.5757 17.3879 30.5557 17.0479C30.5357 16.6579 30.2857 16.3779 29.9657 16.3079C29.6257 16.2379 29.3757 16.4279 29.2157 16.6679C29.0357 16.9279 28.9057 17.2279 28.8057 17.5179C28.1457 19.5379 27.2957 21.4779 26.2957 23.3579C25.8957 24.1079 25.3557 24.7379 24.7157 25.2779C22.6757 26.9979 19.9257 26.4579 18.6457 24.1079C18.0457 22.9979 17.8257 21.7979 17.7957 20.5479C17.7957 20.3679 17.7957 20.1879 17.7957 20.0079C17.8357 17.6479 18.2657 15.3579 18.9557 13.1079C18.9757 13.0579 18.9957 13.0079 19.0057 12.9479C19.0057 12.9479 19.0257 12.9479 19.0357 12.9379C19.2957 12.8479 19.5557 12.7379 19.8057 12.6279C20.7157 12.2679 21.5657 11.8079 22.3457 11.2079C23.1957 10.5579 23.9357 9.78788 24.2457 8.74788C24.6757 7.34788 24.3557 6.07787 23.5157 4.94787C24.0657 4.39787 24.6557 3.89787 25.3457 3.48787C26.0257 3.07787 26.7457 2.79787 27.5257 2.75787C28.7657 2.69787 29.7557 3.19787 30.4957 4.19787C31.1057 5.02787 31.3257 5.98787 31.3857 6.98787C31.4657 8.12787 31.2857 9.24787 31.0057 10.3479C30.9257 10.6579 30.8757 10.9679 30.8257 11.2779C30.8057 11.4279 30.8057 11.5979 30.8257 11.7479C30.8657 12.0879 31.0057 12.3679 31.3657 12.4579C31.6957 12.5379 31.9557 12.3779 32.1357 12.1179C32.3157 11.8579 32.4857 11.5779 32.5757 11.2779C32.7757 10.6179 32.9957 9.94787 33.0657 9.25787C33.2457 7.54787 33.9957 6.12787 35.0557 4.81787C35.5357 4.22787 36.0657 3.69787 36.7157 3.29787C38.2457 2.34787 39.9257 2.61787 41.0857 4.01787C41.9357 5.03787 42.3757 6.23787 42.6357 7.51787C42.7057 7.85787 42.7357 8.19787 42.7757 8.53787C42.9257 9.88787 42.8457 11.2279 42.6757 12.5679C42.6457 12.7779 42.6257 12.9879 42.5957 13.1979C42.2457 15.6579 41.5857 18.0379 40.6357 20.3179L40.6257 20.3879ZM58.4657 7.51787C58.0457 7.90787 57.5957 8.26787 57.0957 8.55787C55.6157 9.41787 53.9957 9.85787 52.3057 10.0779C51.9757 10.1279 51.6357 10.1579 51.3057 10.2479C51.0857 10.3079 50.8557 10.4179 50.6757 10.5679C50.2757 10.9079 50.2957 11.3979 50.7657 11.6479C51.1057 11.8279 51.5057 11.9179 51.8857 11.9979C52.5657 12.1379 53.2457 12.2879 53.8257 12.7079C54.9457 13.5179 55.1557 14.8279 54.3457 15.9479C53.7457 16.7779 52.8757 17.2079 51.9457 17.5179C50.9357 17.8579 49.9057 17.9879 48.8457 17.9979C48.3657 17.9979 47.8957 18.0279 47.4257 18.0979C47.1857 18.1279 46.9257 18.2479 46.7257 18.3979C46.2957 18.7079 46.3157 19.2679 46.7857 19.5179C47.0457 19.6579 47.3457 19.7479 47.6257 19.7779C48.4557 19.8479 49.2957 19.8279 50.1157 19.9179C51.2357 20.0379 52.3557 20.1879 53.4657 20.3979C54.1557 20.5279 54.7857 20.8279 55.2857 21.3579C55.9257 22.0379 56.1357 22.8279 55.9357 23.7179C55.6357 25.0379 54.8257 25.9879 53.7057 26.6779C52.5257 27.4179 51.2257 27.7879 49.8357 27.9179C47.8457 28.0979 45.9657 27.7879 44.1457 26.9879C42.5757 26.2979 41.5757 25.1779 41.0457 23.6979C41.0457 23.6879 41.0557 23.6679 41.0657 23.6579C42.7257 20.4579 43.8357 17.0779 44.3557 13.5179C44.5757 12.0179 44.6957 10.5079 44.5957 8.99788C45.6757 7.34788 47.0157 5.98787 48.8557 5.18787C50.4257 4.50787 52.0657 4.17787 53.8457 4.23787C54.9557 4.17787 56.1157 4.30787 57.2257 4.72787C57.5957 4.86787 57.9557 5.05787 58.2757 5.28787C59.1057 5.87787 59.0357 6.97787 58.4557 7.52787L58.4657 7.51787Z" fill="black"/>
<path d="M198.366 14.8379C198.146 14.5579 197.896 14.2979 197.696 14.0079C197.236 13.3579 197.236 12.7779 197.696 12.1479C197.906 11.8579 198.156 11.5979 198.376 11.3179C199.656 9.69788 200.036 7.90788 199.286 5.95788C198.726 4.49788 197.596 3.52788 196.246 2.80788C194.666 1.96788 192.966 1.64788 191.116 1.67788C189.966 1.65788 188.776 1.81788 187.596 2.11788C184.216 2.97788 181.346 4.73788 178.826 7.08788C178.796 6.73788 178.776 6.38788 178.726 6.04788C178.576 4.88788 178.186 3.80788 177.456 2.87788C176.346 1.46788 174.906 0.927876 173.136 1.31788C171.716 1.63788 170.526 2.39788 169.516 3.39788C168.716 4.19788 168.006 5.07788 167.296 5.95788C166.346 7.14788 165.626 6.66788 165.176 5.74788C164.606 4.59788 163.946 3.52788 162.976 2.66788C161.566 1.41788 159.956 0.867876 158.086 1.38788C156.976 1.69788 156.026 2.30788 155.196 3.09788C154.366 3.87788 153.656 4.74788 153.006 5.66788C152.976 5.61788 152.956 5.55788 152.926 5.50788C151.866 3.70788 150.156 3.06788 148.206 4.09788C147.486 4.48788 146.856 5.00788 146.316 5.62788C145.686 6.34788 145.156 7.11788 144.676 7.92788C142.946 6.06788 140.156 5.47788 137.456 4.20788C134.826 2.96788 131.876 2.08788 129.936 2.30788C127.256 2.60788 126.786 3.53788 126.216 6.87788C123.936 4.92788 120.686 4.36788 117.956 3.18788C115.996 2.33788 113.376 1.29788 111.846 2.30788C111.326 2.64788 110.746 3.27788 110.186 4.08788C109.016 2.36788 107.336 1.65788 105.246 1.79788C103.816 1.88788 102.556 2.41788 101.406 3.25788C101.116 3.46788 100.846 3.69788 100.546 3.88788C99.8657 4.30788 99.3556 4.24788 98.7756 3.70788C98.4556 3.40788 98.1656 3.07788 97.8456 2.78788C96.0256 1.11788 93.5357 0.817876 91.4857 2.40788C90.8157 2.91788 90.2056 3.53788 89.6756 4.19788C89.4256 4.50788 89.1856 4.81788 88.9656 5.13788C88.6256 4.73788 88.2457 4.35788 87.8057 4.01788C86.2457 2.76788 84.4256 2.23788 82.2856 2.25788C80.3056 2.21788 78.3556 2.88788 76.5256 3.87788C72.9256 5.81788 70.0656 8.57788 67.7756 11.9579C66.0956 14.4179 64.8756 17.1079 63.9156 19.9079C63.5256 21.0479 63.2957 22.1979 63.3357 23.4079C63.3957 25.1079 63.8957 26.5979 65.1957 27.7579C66.3857 28.8179 67.7556 29.2579 69.3256 28.8679C70.6656 28.5279 71.6457 27.6779 72.3057 26.4779C73.2157 24.8579 73.8756 23.1479 74.2056 21.3079C74.2856 20.8779 74.3857 20.4479 74.5457 20.0479C74.7757 19.4679 75.3157 19.1879 75.9457 19.2879C76.3157 19.3479 76.6957 19.3979 77.0557 19.4879C78.4557 19.8179 79.8656 19.8479 81.2456 19.5479C82.3956 19.2979 83.4557 18.9179 84.4356 18.4379C84.4757 18.9779 84.5157 19.5279 84.5857 20.0679C84.8157 21.6679 85.3556 23.1579 86.3856 24.4179C88.1956 26.6179 90.5757 27.7579 93.3757 28.0579C95.2457 28.2479 97.0456 27.8779 98.7856 27.1879C101.376 26.1679 103.456 24.4479 105.256 22.3579C105.256 22.3579 105.256 22.3479 105.266 22.3379C105.296 22.6279 105.326 22.9279 105.386 23.2179C105.756 25.0679 106.586 26.6179 108.246 27.6279C109.456 28.3579 110.786 28.6179 112.186 28.5979C112.606 28.5779 113.026 28.5879 113.436 28.5279C113.946 28.4579 114.456 28.3679 114.956 28.2479C118.046 27.5079 120.736 26.1379 123.066 24.2079C123.386 25.1279 123.916 25.9879 124.766 26.7579C126.226 28.0679 128.066 28.4979 129.946 28.4379C130.356 28.4179 130.776 28.3879 131.196 28.3279C132.186 28.1979 133.126 28.0479 134.096 27.7479C136.546 26.9979 138.926 25.7179 140.926 24.0479C140.966 24.3679 140.986 24.6879 141.046 25.0079C141.246 26.0979 141.556 27.1379 142.226 28.0279C142.926 28.9679 143.836 29.5479 145.066 29.4779C145.656 29.4479 146.186 29.2479 146.696 28.9579C148.036 28.2079 149.016 27.0879 149.806 25.8079C149.936 25.6079 150.036 25.3979 150.156 25.1979C150.286 25.3979 150.406 25.6079 150.566 25.7979C151.316 26.7279 152.246 27.3679 153.466 27.4879C154.796 27.6179 155.936 27.1479 156.856 26.2179C157.466 25.5979 157.976 24.8879 158.556 24.2279C159.396 23.2679 160.006 23.5379 160.486 24.3379C160.746 24.7779 160.986 25.2379 161.266 25.6679C162.696 27.8279 164.716 29.0379 167.306 29.1479C168.766 29.2079 170.126 28.7679 171.356 27.9579C172.706 27.0579 173.716 25.8379 174.556 24.4779C174.586 24.4379 174.606 24.3879 174.626 24.3479C175.946 26.3379 177.816 27.6079 180.136 28.2379C182.476 28.8779 184.696 28.6879 186.716 27.2279C186.886 27.0979 187.096 27.0079 187.286 26.9079C187.836 26.6479 188.366 26.6979 188.856 27.0479C189.116 27.2279 189.356 27.4379 189.606 27.6279C190.346 28.1879 191.146 28.5979 192.086 28.6979C193.496 28.8479 194.716 28.3679 195.796 27.5279C197.936 25.8679 199.226 23.6579 199.806 21.0279C200.316 18.7479 199.826 16.6979 198.366 14.8879V14.8379ZM84.5356 16.3079C83.4556 16.9879 82.2056 17.4679 80.7856 17.7579C80.2856 17.8579 79.7656 17.8779 79.2556 17.9379C77.2356 17.8879 75.4356 17.2779 73.8856 15.9579C73.6956 15.7879 73.4856 15.6279 73.2756 15.4879C73.0056 15.3079 72.7056 15.2779 72.4256 15.4379C72.1156 15.6179 72.0556 15.9479 72.0756 16.2679C72.0956 16.5179 72.1656 16.7779 72.2456 17.0179C72.7556 18.6879 72.7256 20.3579 72.2156 21.9979C71.8656 23.1079 71.3957 24.1879 70.9057 25.2479C70.5557 25.9979 69.9956 26.6079 69.2056 26.9179C67.9256 27.4179 66.4656 26.8079 65.7156 25.4979C65.1456 24.5079 65.0357 23.4379 65.1657 22.3279C65.3357 20.8579 65.8156 19.4679 66.4357 18.1379C67.5057 15.8279 68.6856 13.5879 70.2456 11.5479C72.4756 8.62788 75.2256 6.33788 78.6056 4.84788C80.3356 4.07788 82.1356 3.76788 84.0056 4.14788C85.4356 4.43788 86.6456 5.12788 87.5756 6.25788C87.7056 6.40788 87.8157 6.56788 87.9157 6.72788C88.3957 7.44788 88.6556 8.20788 88.7056 9.00788C88.7556 9.70788 88.6557 10.4279 88.4157 11.1779C88.0157 12.3979 87.4457 13.4179 86.7556 14.2979C86.1356 15.0879 85.4056 15.7679 84.5656 16.2979L84.5356 16.3079ZM105.296 19.3379C104.216 20.8779 102.966 22.2879 101.476 23.5079C99.7057 24.9679 97.6957 25.9679 95.4057 26.1879C92.3757 26.4779 89.6956 25.6579 87.7456 23.1579C86.6356 21.7279 86.1557 20.0679 86.1957 18.9879C86.2057 18.3779 86.2356 17.8179 86.2756 17.2879C87.6556 16.2379 88.7757 14.8579 89.5857 13.0879C90.1757 11.7979 90.6056 10.4479 90.5256 9.00788C90.4856 8.19788 90.3057 7.46788 90.0157 6.78788C90.3057 6.35788 90.5857 5.91788 90.9057 5.49788C91.2657 5.02788 91.6757 4.58788 92.1257 4.19788C93.4257 3.03788 95.0756 2.92788 96.3856 3.89788C97.3056 4.58788 97.7256 5.57788 97.7856 6.67788C97.8356 7.51788 97.7157 8.37788 97.6557 9.21788C97.5457 10.6979 97.1257 12.0979 96.5857 13.4679C96.4757 13.7479 96.4457 14.0679 96.4057 14.3779C96.4057 14.3779 96.4057 14.3779 96.4057 14.3879C96.3757 14.6779 96.4856 14.9479 96.7756 15.0779C97.0556 15.1979 97.3557 15.1479 97.5557 14.9379C97.8057 14.6879 98.0357 14.4079 98.1957 14.0979C98.7057 13.0979 98.9856 12.0279 99.2556 10.9479C99.5056 9.94788 99.6157 8.91788 100.076 7.96788C100.646 6.79788 101.316 5.70788 102.316 4.84788C103.436 3.87788 104.736 3.42788 106.226 3.58788C107.476 3.71788 108.376 4.34788 108.926 5.46788C109.006 5.63788 109.066 5.80788 109.126 5.97788C109.476 6.90788 109.576 7.88788 109.456 8.88788C109.166 11.4179 108.376 13.8079 107.256 16.0779C106.696 17.2279 106.026 18.2979 105.306 19.3279L105.296 19.3379ZM124.436 20.2779C123.886 20.9279 123.306 21.5379 122.696 22.1079C120.896 23.7779 118.836 25.0679 116.456 25.9079C115.066 26.3979 113.646 26.7479 111.846 26.7679C111.436 26.7879 110.726 26.7079 110.046 26.4579C108.426 25.8579 107.566 24.6079 107.166 22.9979C106.926 22.0079 106.916 21.0179 107.016 20.0279C108.616 17.6779 109.786 15.0879 110.586 12.3079C111.086 10.5679 111.426 8.79788 111.186 6.96788C111.156 6.70788 111.106 6.45788 111.056 6.19788C111.946 4.12788 113.506 3.29788 116.116 4.23788C118.196 4.97788 120.206 5.93788 122.246 6.78788C123.426 7.28788 124.676 7.80788 125.556 8.76788C125.656 8.86788 125.716 8.99788 125.806 9.10788C126.366 9.81788 126.726 10.6479 126.906 11.5279C126.986 11.9179 127.046 12.3079 127.066 12.7079C127.206 15.4179 126.366 17.7879 124.736 19.8779C124.636 20.0079 124.536 20.1379 124.436 20.2679V20.2779ZM140.786 21.7979C137.886 24.7879 133.816 26.5379 129.606 26.5779H129.616C127.706 26.6879 125.666 25.5479 125.016 23.7279C124.886 23.3679 124.806 22.9879 124.746 22.6179C125.206 22.1379 125.656 21.6379 126.086 21.1079C128.276 18.3779 129.206 15.2579 128.786 11.7679C128.646 10.5779 128.246 9.45788 127.606 8.46788C127.946 6.78788 128.266 5.44788 129.226 4.60788C130.836 3.19788 135.716 5.17788 138.066 6.20788C140.476 7.26788 142.566 8.07788 143.706 9.73788C144.156 10.3979 144.466 11.1879 144.586 12.1879C144.656 12.7679 144.666 13.4179 144.606 14.1579C144.436 15.9779 143.746 17.7279 142.776 19.2779C142.756 19.3079 142.736 19.3479 142.716 19.3779C142.156 20.2579 141.506 21.0679 140.796 21.8079L140.786 21.7979ZM151.046 18.7579C150.886 19.2679 150.716 19.7679 150.536 20.2679C150.176 21.2579 149.746 22.2179 149.256 23.1479C148.906 23.8179 148.526 24.4779 148.096 25.1079C147.616 25.8179 147.046 26.4679 146.356 26.9679C146.046 27.1979 145.656 27.3679 145.286 27.4479C144.516 27.5979 143.946 27.2479 143.516 26.6079C142.996 25.8279 142.826 24.9279 142.696 24.0179C142.626 23.4879 142.586 22.9679 142.576 22.4379C145.226 19.5679 146.836 15.8779 146.336 11.7579C146.236 10.9179 146.036 10.2079 145.766 9.58788C146.266 8.64788 146.846 7.74788 147.566 6.95788C147.926 6.56788 148.336 6.20788 148.786 5.92788C149.816 5.26788 150.856 5.56788 151.466 6.63788C151.626 6.92788 151.756 7.22788 151.846 7.53788C151.986 7.96788 152.076 8.39788 152.126 8.84788C152.206 9.51788 152.246 10.1779 152.286 10.6379C152.286 10.6779 152.286 10.7179 152.286 10.7579C152.206 13.6779 151.796 16.2579 151.036 18.7779L151.046 18.7579ZM173.716 22.2679C173.716 22.2679 173.666 22.3579 173.636 22.4079C172.896 23.8979 171.936 25.2379 170.566 26.2579C169.646 26.9479 168.606 27.3279 167.466 27.3279C166.056 27.3279 164.796 26.8279 163.746 25.8379C162.456 24.6179 161.816 23.0979 161.566 21.3779C161.356 19.9479 161.116 18.5179 160.996 17.0779C160.906 15.9779 160.976 14.8579 160.956 13.7479C160.956 13.3179 160.906 12.8779 160.826 12.4579C160.766 12.1379 160.516 11.9379 160.196 11.8979C159.906 11.8679 159.666 12.0579 159.576 12.2879C159.406 12.6779 159.246 13.1079 159.216 13.5279C159.156 14.3179 159.196 15.1179 159.196 15.9079C159.196 16.4279 159.176 16.9479 159.196 17.4579C159.236 18.3279 159.036 19.1479 158.716 19.9479C158.076 21.5179 157.276 23.0079 156.166 24.2879C155.936 24.5579 155.666 24.7979 155.396 25.0279C154.316 25.9679 152.856 25.7079 151.976 24.6379C151.626 24.2179 151.376 23.7479 151.176 23.2579C153.036 19.4179 153.956 15.2679 154.076 10.7079C154.036 10.1879 153.996 9.39788 153.896 8.60788C153.856 8.31788 153.806 8.02788 153.756 7.74788C154.086 7.20788 154.436 6.67788 154.816 6.17788C155.516 5.25788 156.286 4.40788 157.266 3.76788C159.036 2.58788 160.736 2.92788 162.136 4.37788C163.186 5.47788 163.736 6.81788 164.056 8.27788C164.266 9.22788 164.356 10.1979 164.336 11.1779C164.336 11.5879 164.376 12.0079 164.436 12.4179C164.486 12.8179 164.706 13.1479 165.106 13.2479C165.526 13.3479 165.866 13.1079 166.056 12.7779C166.296 12.3479 166.496 11.8879 166.646 11.4179C167.306 9.41788 168.266 7.58788 169.596 5.94788C170.426 4.91788 171.356 3.99788 172.586 3.44788C173.166 3.19788 173.756 2.99788 174.416 3.10788C175.326 3.25788 175.916 3.77788 176.356 4.53788C176.886 5.45788 177.076 6.46788 177.096 7.50788C177.106 8.00788 177.096 8.49788 177.086 8.98788C177.056 10.1579 176.956 11.3179 176.786 12.4579C176.426 14.9679 175.756 17.3979 174.816 19.7679C174.486 20.6079 174.126 21.4479 173.726 22.2679H173.716ZM198.056 20.6479C197.616 22.6679 196.626 24.3779 195.086 25.7579C193.346 27.3179 190.946 26.9579 189.586 25.0679C189.236 24.5779 188.916 23.9679 188.336 23.8679C187.756 23.7579 187.226 24.2179 186.846 24.6679C186.066 25.5979 184.976 26.2979 183.796 26.5879C182.186 26.9879 180.636 26.6379 179.176 25.9379C177.516 25.1379 176.356 23.9479 175.626 22.4579C176.336 20.9979 176.916 19.4679 177.376 17.8979C178.166 15.2079 178.726 12.4679 178.886 9.65788C178.936 9.60788 178.976 9.54788 179.026 9.49788C180.416 7.94788 182.006 6.63788 183.796 5.57788C185.546 4.54788 187.436 3.90788 189.436 3.60788C190.026 3.51788 190.616 3.48788 191.206 3.42788C193.006 3.44788 194.676 3.83788 196.166 4.87788C197.026 5.48788 197.606 6.28788 197.796 7.33788C197.986 8.45788 197.596 9.40788 196.896 10.2379C196.046 11.2479 194.906 11.4879 193.656 11.3579C192.656 11.2479 191.656 11.0879 190.646 11.0079C188.586 10.8279 186.706 11.3479 185.036 12.5779C184.346 13.0879 183.766 13.7079 183.386 14.4979C182.836 15.6679 183.016 16.9079 183.906 17.8579C184.576 18.5779 185.826 19.6179 186.866 19.5979C187.256 19.5979 187.676 19.3579 187.766 18.9779C187.856 18.5979 187.596 18.2279 187.306 17.9679C186.686 17.4079 185.836 17.3179 185.376 16.5879C184.926 15.8779 185.086 15.0879 185.636 14.4779C186.216 13.8279 186.966 13.4179 187.786 13.1279C189.426 12.5579 191.066 12.6479 192.686 13.1979C194.046 13.6679 195.306 14.3279 196.376 15.3079C197.956 16.7579 198.556 18.5179 198.096 20.6179L198.056 20.6479Z" fill="black"/>
<path d="M135.286 13.8679C134.466 13.7579 133.626 14.2079 133.146 14.8879C132.766 15.4279 132.586 16.0879 132.556 16.7579C132.556 16.9279 132.556 17.0879 132.556 17.2579C132.586 17.8479 132.746 18.4779 133.186 18.8679C133.766 19.3779 134.696 19.3379 135.366 18.9379C137.016 17.9779 137.926 14.2379 135.286 13.8679Z" fill="black"/>
<path d="M116.146 14.3579C115.586 15.0379 115.286 15.8179 115.126 16.6679C115.106 16.7879 115.086 16.9079 115.076 17.0179C114.956 18.4579 116.176 19.3979 117.526 18.8879C118.496 18.5279 119.006 17.7679 119.196 16.7979C119.366 15.9079 119.206 15.0779 118.586 14.3579C118.066 13.7579 116.796 13.5779 116.156 14.3579H116.146Z" fill="black"/>
<path d="M80.7756 8.67787C79.8256 8.68787 78.7656 9.48787 78.4556 10.4379C78.1956 11.2479 78.4256 12.0679 79.0656 12.5679C79.7156 13.0779 80.4656 13.1079 81.2156 12.6279C81.8756 12.2079 82.3356 11.6079 82.4656 10.8279C82.6856 9.57787 81.7956 8.63787 80.7756 8.67787Z" fill="black"/>
</svg>
