<svg width="100%" viewBox="0 0 200 49" fill="none" xmlns="http://www.w3.org/2000/svg">
<path d="M184.255 41.9116C180.345 41.9516 174.965 40.1516 176.835 35.6416C177.175 34.5416 176.805 33.5316 176.315 32.5516C175.305 30.6416 176.535 28.7216 177.415 27.0016C177.805 26.0316 177.295 25.0716 176.835 24.2216C175.995 22.7116 175.545 21.0716 175.655 19.4616C175.845 14.3316 181.065 11.8816 185.685 12.3316C186.325 12.3316 186.985 12.3116 187.585 12.0916C188.655 11.7816 189.305 10.5616 190.235 10.0116C191.455 9.36159 192.985 10.8016 193.395 11.8516C193.775 12.9716 192.715 14.0516 192.755 15.1416C192.755 15.7516 192.995 16.3716 193.205 16.9516C195.635 23.4816 191.255 27.7816 184.735 27.7016C184.095 27.8016 182.895 27.9216 182.865 28.6816C182.925 29.1216 183.855 29.2816 184.775 29.1316C186.935 28.8116 189.305 27.9916 191.435 28.8516C195.175 30.5016 194.935 36.3316 192.585 39.0316C190.615 41.2816 187.255 42.0116 184.415 41.9316H184.235L184.255 41.9116ZM185.765 36.3016C186.685 36.3216 190.165 36.2116 188.865 34.5116C186.765 33.6216 184.245 34.6216 182.025 34.6816C180.555 35.0116 181.685 35.9516 182.725 36.0316C183.565 36.2016 184.905 36.3316 185.625 36.3016H185.755H185.765ZM185.275 21.7616C186.975 21.5316 187.155 19.1316 185.525 18.6116C182.935 17.9916 182.395 21.7016 185.185 21.7716H185.275V21.7616ZM24.4548 20.8616C24.4548 24.3516 24.3848 28.0016 24.4148 31.5116C24.4348 32.1016 24.5048 32.7716 24.8148 33.2516C25.3748 34.2016 26.8348 34.1716 28.1048 34.1616C29.1348 34.1216 30.5448 34.2916 31.3548 33.7416C33.6448 31.9216 30.6248 21.9216 33.3248 20.6516C35.9848 19.9716 34.6248 28.7216 34.8748 30.2616C34.6948 33.4116 35.4048 34.4816 38.8348 34.2216C42.4048 34.4516 42.7248 32.9916 42.5848 29.7916C42.3848 25.1016 43.5048 19.8616 41.6948 15.4116C40.5948 12.3516 36.9548 11.7916 34.2448 12.9416C33.6248 13.1216 33.0548 13.1616 32.6748 12.8816C32.3648 12.6616 32.1948 12.2516 32.1148 11.7716C31.8748 10.4616 32.3748 8.92159 31.6448 7.72159C31.0648 6.82159 29.6848 6.90159 28.4748 6.89159C27.6548 6.90159 26.7848 6.83159 25.9948 7.06159C25.0148 7.32159 24.6748 8.31159 24.6148 9.24159C24.4548 13.0316 24.4948 16.9116 24.4548 20.6916V20.8716V20.8616ZM124.975 20.8516C124.995 24.6016 125.285 28.4616 125.065 32.2416C124.945 34.0716 123.055 34.3916 121.285 34.0916C120.375 33.9816 119.745 33.3516 119.335 32.5716C118.785 31.4616 117.645 31.4016 116.745 32.1716C106.535 41.2716 104.005 19.3116 110.615 14.2416C111.805 13.2516 113.295 12.6416 114.805 12.4016C115.975 12.2116 117.105 11.8216 117.415 10.5916C117.685 9.71159 117.515 8.65159 117.955 7.82159C118.545 6.62159 120.475 6.81159 121.935 6.82159C122.525 6.85159 123.155 6.93159 123.655 7.26159C124.315 7.70159 124.495 8.55159 124.565 9.30159C124.765 12.9616 124.865 17.1016 124.965 20.6716V20.8516H124.975ZM117.995 22.8416C117.885 21.8516 117.835 20.4716 116.935 19.8016C116.095 19.1716 114.745 19.4916 114.325 20.3916C113.445 22.1516 113.165 26.4016 115.955 26.5116C117.745 26.6116 118.055 24.1116 117.995 22.9716V22.8416ZM144.435 21.1516C144.505 24.4616 144.495 27.7116 144.545 31.0316C144.585 32.2916 144.415 33.9416 142.895 34.1216C141.505 34.3516 139.755 34.2616 139.075 33.0316C138.695 32.4816 138.335 31.7016 137.605 31.6316C136.635 31.5716 135.865 32.4516 135.135 33.0016C134.065 33.9416 132.655 34.5416 131.345 34.3416C124.385 33.2216 124.955 16.6216 130.945 13.5216C131.905 12.9516 133.095 12.5716 134.265 12.3716C135.405 12.1716 136.455 11.9216 136.815 10.7616C137.115 9.86159 136.955 8.76159 137.345 7.88159C137.855 6.60159 139.825 6.78159 141.195 6.79159C142.815 6.69159 143.985 7.69159 143.995 9.35159C144.265 13.0816 144.245 17.3316 144.425 20.9616V21.1316L144.435 21.1516ZM137.365 22.9116C137.575 18.0816 132.845 18.4216 133.185 23.1116C132.875 27.7716 137.765 27.6716 137.365 23.0416V22.9116ZM67.7448 20.9416C67.7948 17.4616 67.8948 14.0316 68.0448 10.5716C68.0848 9.97159 68.1948 9.30159 68.5248 8.83159C68.9148 8.25159 69.6248 8.06159 70.3048 8.01159C71.9148 7.93159 73.5848 7.93159 75.1848 7.92159C79.0248 7.89159 83.8648 8.98159 85.2648 13.0416C86.5048 16.8416 86.7648 21.6416 83.9948 24.7816C82.7148 26.2316 80.8548 27.0016 79.0148 27.4416C77.7048 27.7416 76.5148 28.3616 76.2548 29.7516C75.9848 30.8316 76.3148 32.0516 75.9248 33.1116C75.1148 34.8216 72.5448 34.0116 70.9848 34.2016C69.2848 34.3216 67.6248 33.9016 67.6448 31.8816C67.5348 28.2716 67.6448 24.6716 67.7348 21.1316V20.9516L67.7448 20.9416ZM74.8248 17.8016C74.8848 18.8416 75.1148 20.7016 76.4648 20.8616C79.4848 21.3616 79.3748 13.9016 76.3348 14.3816C75.0648 14.6716 74.7648 16.6816 74.8148 17.6916V17.8116L74.8248 17.8016ZM156.115 23.8316C156.275 26.7416 155.735 29.8516 156.265 32.7116C156.605 34.0816 157.925 34.2416 159.325 34.2016C160.505 34.1716 162.085 34.3916 163.035 33.6816C163.505 33.3316 163.735 32.7516 163.815 32.1616C164.095 29.0216 163.505 25.7416 164.045 22.6416C164.185 21.7916 165.055 20.8616 165.835 21.6316C166.195 21.9916 166.355 22.5716 166.425 23.0916C166.655 25.9516 166.425 28.8116 166.495 31.6916C166.445 34.1416 168.335 34.3116 170.505 34.2116C172.615 34.2916 174.315 33.9916 174.195 31.4416C173.965 26.0316 175.135 20.3516 173.285 15.2016C172.185 12.5316 168.605 11.5116 166.205 13.0016C165.215 13.5216 164.395 14.6516 163.245 14.7516C162.035 14.7916 161.555 13.1416 160.405 12.8816C158.955 12.4916 156.695 12.5216 156.355 14.2416C155.945 17.2916 156.175 20.5516 156.115 23.6416V23.8216V23.8316ZM105.555 22.8316C105.555 20.6916 105.525 18.1816 105.485 15.8316C105.465 15.0416 105.465 14.1416 105.015 13.4816C104.465 12.6216 103.195 12.6116 102.055 12.6216C100.935 12.6716 99.4048 12.4416 98.5348 13.0916C97.9448 13.5516 97.8448 14.4016 97.8148 15.1316C97.7648 17.8116 97.8748 20.5416 97.7848 23.2216C97.7348 24.0216 97.5648 25.1116 96.7548 25.4416C93.9648 26.2116 95.4648 16.8916 95.1048 15.0616C95.1648 12.7016 93.2448 12.5416 91.1648 12.6416C88.8048 12.5416 87.3048 12.8716 87.4748 15.6416C87.4748 20.6616 86.6148 25.8916 87.9948 30.7116C88.6848 33.9216 92.5548 35.5916 95.3548 33.8616C96.3548 33.3516 97.1548 32.2216 98.3048 32.1016C98.8148 32.0716 99.2548 32.4016 99.6648 32.8416C100.385 33.7316 101.275 34.2216 102.425 34.2016C104.265 34.3616 105.615 33.6616 105.585 31.7816C105.655 28.8516 105.545 25.9116 105.555 23.0116V22.8316ZM61.0048 30.4216C61.4048 34.8516 57.6648 34.5116 54.4048 34.4016C48.2948 34.3816 43.1848 29.3216 43.7648 23.0216C43.5148 15.7816 50.4248 10.4016 57.2448 12.6516C61.2448 13.6516 62.8948 18.7816 60.6448 22.0416C59.3448 23.9416 56.9448 24.3916 54.7448 24.7316C51.2248 25.6116 54.1548 27.0216 56.1448 26.9016C60.0848 26.8716 61.1848 26.2016 60.9948 30.2616V30.4416L61.0048 30.4216ZM52.1848 21.5016C53.1048 21.5016 54.9648 20.8116 54.4348 19.5716C54.2948 19.2516 53.8148 18.7816 53.4548 18.7516C52.4348 18.5216 51.1248 19.0716 50.9548 20.2016C50.8548 20.8716 51.4748 21.5616 52.1148 21.5016H52.1848ZM14.3148 8.02159C12.6048 8.04159 10.6448 8.02159 8.88478 8.02159C7.61478 7.96159 6.18478 8.35159 6.07478 9.87159C5.98478 10.5916 6.00478 11.3816 5.98478 12.1716C5.99478 13.6316 5.81478 15.4316 6.96478 16.0716C7.81478 16.5616 8.99478 16.4016 9.80478 16.9516C10.5348 17.4016 10.7448 18.3916 10.7448 19.2416C10.7248 23.4316 9.85478 27.6716 10.0748 31.8016C10.0648 34.3916 12.3048 34.1916 14.5248 34.1616C16.2148 34.0716 18.9648 34.6616 19.2448 32.3916C19.5448 27.8916 18.5248 23.3116 18.6548 18.8316C18.6948 16.7616 20.3448 16.5616 21.9848 16.2616C24.0748 15.5116 23.1448 12.3316 23.3348 10.5816C23.3848 8.92159 22.3648 7.91159 20.7048 8.01159C18.6348 7.99159 16.3648 8.01159 14.4748 8.03159H14.2948L14.3148 8.02159ZM146.365 24.0416C146.455 27.0416 145.805 30.3116 146.575 33.2216C147.395 34.6816 149.985 34.0016 151.535 34.1516C152.855 34.2216 154.395 33.8516 154.465 32.2716C154.645 29.4916 154.435 26.6916 154.365 23.9116C154.285 21.1216 154.185 18.3816 154.045 15.6516C154.045 14.3416 153.645 12.8316 152.115 12.7716C150.575 12.7616 148.055 12.2916 147.195 13.5316C146.055 16.6416 146.725 20.7016 146.375 23.8716V24.0516L146.365 24.0416ZM149.875 5.78159C147.465 5.68159 145.555 8.42159 147.285 10.4316C148.255 11.4816 149.775 11.5116 151.115 11.4216C153.295 11.4016 154.555 9.27159 153.695 7.39159C153.165 6.02159 151.135 5.72159 150.015 5.78159H149.865H149.875Z" fill="black"/>
</svg>
