<svg width="600" height="247" viewBox="0 0 600 247" fill="none" xmlns="http://www.w3.org/2000/svg">
<path d="M583.912 75.4217C576.382 62.0563 559.116 69.9722 554.538 81.8247C553.911 82.8609 553.574 83.701 552.586 83.3051C551.19 82.3993 548.907 78.7211 546.535 77.8633C540.265 74.6539 532.38 76.7821 526.589 80.0117C503.864 92.9614 500.977 123.846 486.19 139.85C483.173 143.253 473.762 149.874 470.45 143.817C466.108 128.804 498.304 113.322 501.853 94.5473C505.136 81.0748 494.4 73.8238 482.221 77.6222C472.627 80.3417 463.79 88.174 456.898 94.9931C456.271 95.556 455.615 96.3314 454.881 96.5197C454.68 96.5339 454.598 96.4024 454.562 96.2124C454.379 95.31 455.704 91.754 455.816 89.8392C456.39 86.0689 454.249 81.7188 450.652 80.3663C445.672 78.5401 440.029 81.6481 436.225 84.7112C416.493 102.097 420.965 138.014 394.998 150.013C389.52 152.184 385.125 150.001 385.457 143.807C386.853 126.308 406.91 115.264 413.299 99.2133C415.641 93.8352 417.351 85.0739 409.797 83.0194L409.685 82.9878C392.472 81.0901 383.777 121.291 375.62 133.33C372.083 139.19 358.218 162.617 351.368 151.66C349.878 144.724 355.497 135.575 358.88 129.789C370.474 111.457 387.533 95.9594 393.773 74.4988C394.962 69.7276 395.116 64.2462 391.1 60.881C388.231 58.4172 383.298 57.3372 379.808 58.5541C365.694 63.993 365.854 87.5767 359.33 99.3539C359.064 99.6391 358.727 99.6569 358.478 99.3509C357.792 98.6585 357.082 96.0195 355.852 94.2528C353.155 90.2124 348.363 88.6617 343.566 89.1813C314.559 94.5022 311.282 129.521 296.506 149.412C293.111 154.429 280.672 167.138 277.04 156.107C275.248 132.459 323.84 94.747 320.373 72.6851C319.362 67.7336 315.257 64.5561 310.495 63.9405C292.064 61.4062 291.573 92.0482 284.919 104.977C284.173 106.1 283.262 104.031 282.6 102.676C276.448 89.5539 261.093 93.9535 252.031 102.291C234.174 117.668 228.335 156.245 209.685 165.917C206.385 167.309 202.126 166.885 201.043 162.915C197.731 141.997 230.394 126.44 231.121 105.339C231.157 102.181 229.85 98.8567 226.91 97.7287C222.899 96.162 217.919 98.82 214.743 101.356C203.007 111.131 199.423 128.81 192.774 142.005C188.113 150.928 180.483 162.946 173.491 168.267C171.291 169.909 167.955 171.217 165.287 170.2C160.301 167.333 164.69 157.601 167.245 153.605C175.189 139.823 195.584 123.815 194.839 107.161C194.087 99.7884 184.972 99.7358 180.039 102.791C164.873 112.051 153.51 142.527 147.773 159.269C144.46 170.192 136.682 192.335 150.062 197.384C164.258 200.921 174.514 181.951 183.269 172.289C183.754 171.717 184.99 170.325 184.623 171.626C182.228 177.832 178.909 186.003 183.056 191.677C186.723 197.007 193.874 195.327 198.376 192.264C205.811 187.531 211.247 180.03 216.783 173.11C217.121 172.696 217.44 172.323 217.724 172.038C218.233 171.521 218.623 171.273 218.865 171.396C219.569 172.354 219.09 173.949 219.102 175.985C219.001 181.479 219.741 188.413 225.212 191.094C238.971 196.386 250.535 177.48 257.674 167.63C258.833 165.935 260.206 163.663 258.804 167.91C257.745 171.53 255.899 176.059 255.651 179.344C254.924 186.756 259.182 192.066 267.268 189.414C278.56 185.896 285.297 175.501 291.626 166.17C292.046 165.538 292.957 164.288 293.46 164.191C294.052 163.899 293.975 166.4 293.762 167.645C293.022 173.98 292.608 182.142 298.902 185.896C309.49 191.897 323.165 176.902 329.908 168.033C330.837 166.872 331.577 166.566 331.269 168.891C329.696 177.093 329.258 186.243 340.402 185.248C349.606 183.208 358.029 171.115 363.559 163.172C365.884 159.953 364.174 165.851 364.086 166.914C363.151 172.27 363.648 179.791 369.433 181.851C383.339 185.039 394.158 164.345 401.954 154.495C405.166 150.723 400.913 160.345 400.664 161.205C398.487 167.331 397.417 176.37 404.03 178.656C410.383 180.879 417.132 177.524 420.19 171.828C424.336 164.765 425.454 155.733 428.873 148.375C435.125 135.143 456.567 95.3186 471.911 97.0299C476.956 99.1886 473.277 108.241 471.538 111.902C466.729 121.609 457.963 129.519 451.261 138.01C445.323 145.822 439.236 155.589 438.035 165.413C437.16 171.704 441.046 176.936 447.304 177.791C462.524 179.352 476.856 161.488 485.817 151.409C489.1 147.592 487.343 153.696 487.059 156.016C486.557 159.249 486.586 162.852 487.26 165.875C488.781 174.539 497.387 177.091 504.834 174.772C518.338 170.388 530.848 150.279 539.579 138.747C540.17 138.059 540.508 137.935 540.519 138.474C540.502 139.029 540.23 140.516 539.916 141.35C532.783 166.22 512.11 202.793 482.268 195.936C477.518 194.599 472.757 191.895 468.119 190.104C460.595 186.796 453.296 188.059 448.523 194.933C441.709 203.972 443.962 217.636 453.184 224.517C463.979 232.899 478.826 231.88 490.993 227.721C531.085 214.518 537.461 168.763 553.184 134.82C560.347 119.256 572.632 106.988 581.014 92.2079C583.818 87.1159 586.42 80.6893 583.912 75.4454V75.4217ZM242.224 157.392C239.42 144.506 258.969 111.203 272.645 111.873L272.746 111.887C277.909 112.77 278.128 119.666 277.028 123.628C275.845 131.405 250.901 176.114 242.224 157.392ZM326.969 154.689C324.354 156.394 320.243 156.725 317.723 154.545L317.647 154.473C314.24 150.674 316.848 144.1 318.634 138.949C322.84 128.504 331.624 113.276 341.484 108.129C343.395 107.299 345.672 107.096 347.736 107.505C356.798 109.491 349.747 124.099 346.695 130.032C342.709 137.216 333.398 150.636 326.963 154.695L326.969 154.689ZM541.466 118.826C536.207 128.667 527.151 142.819 517.149 144.686C514.109 145.112 510.607 143.589 509.738 140.403C507.567 131.77 513.523 118.924 518.125 111.739C523.342 104.258 529.725 94.803 537.668 93.1078L537.781 93.092C552.042 91.4715 545.157 111.335 541.46 118.82L541.466 118.826Z" fill="black"/>
<path d="M144.04 53.9596C142.36 53.1257 140.58 52.2664 138.906 51.4326C137.593 50.7767 136.901 50.3564 137.096 50.2001L137.114 50.1826C137.776 49.999 139.296 50.1261 140.136 50.1822C144.3 50.3554 148.908 50.1637 152.268 48.0571C158.603 43.6953 156.349 37.6985 148.991 36.8188C140.704 35.8104 133.233 40.3181 127.076 45.2392C125.893 46.0054 124.639 46.3147 123.267 46.1902C86.3449 39.5647 26.6503 67.9842 43.378 111.681C52.1559 133.54 84.7419 126.69 80.1045 102.745C79.0339 97.372 74.8579 93.9447 73.4146 89.2755C68.4341 72.405 98.3524 56.546 110.94 58.1087C112.685 58.6065 112.04 60.0209 111.229 61.3142C103.428 71.9569 98.9203 84.3253 93.2951 96.1064C81.9973 118.437 64.3054 154.085 45.5134 165.027C39.7758 168.063 33.0504 168.708 27.1353 171.137C18.523 174.246 13.6431 184.514 15.6247 193.174C18.4284 207.197 34.5232 213.24 46.9566 209.268C50.3992 208.222 53.611 206.527 56.61 204.367C68.8541 195.269 76.4254 180.765 82.4173 167.582C87.6225 156.456 91.4082 144.158 95.1051 132.503C96.087 131.396 97.4711 136.153 98.5121 137.361C98.9794 138.085 99.5058 138.75 100.086 139.382C109.082 149.229 123.409 149.231 134.629 144.167C169.534 128.898 182.784 72.7445 144.058 53.9481L144.04 53.9596ZM107.799 124.851C105.575 123.925 103.398 122.656 101.937 120.862C99.4822 117.808 100.369 114.741 101.221 111.194C103.215 103.603 106.172 95.6804 108.769 88.2184C110.94 82.2812 118.546 62.1282 123.793 59.9658C127.732 59.1117 135.233 64.1114 137.871 66.9675L137.954 67.0518C156.438 86.0097 137.037 135.454 107.805 124.845L107.799 124.851Z" fill="black"/>
<path d="M417.711 77.9811C423.538 78.142 429.612 71.6517 431.274 63.4872C432.937 55.3226 429.559 48.5727 423.727 48.4117C417.901 48.2509 411.826 54.7411 410.164 62.9057C408.502 71.0702 411.879 77.8201 417.711 77.9811Z" fill="black"/>
<path d="M219.961 60.4045C216.652 65.4197 209.483 71.4256 208.317 76.6974C207.785 80.6673 211.178 83.077 214.841 81.7069C220.592 79.4664 222.178 70.593 224.73 65.2647C227.887 59.332 233.366 51.3172 238.783 48.8452C239.935 48.4308 241.454 48.2745 241.893 49.6616C243.382 56.7154 229.259 64.2302 227.662 73.3835C226.971 76.1944 227.688 80.1956 231.104 80.6802C236.96 81.3404 241.568 74.6258 245.43 71.2126C246.081 70.5995 246.515 70.7519 246.748 71.86C247.975 80.1414 255.089 81.3221 261.874 77.2714C267.597 73.8052 277.432 63.1812 278.71 56.8097C278.971 54.9718 278.572 52.8993 276.286 53.1182C273.788 53.2574 271.507 56.2447 271.118 58.5576C270.812 60.5751 271.474 62.5691 270.325 64.4437C267.835 68.8804 260.67 71.3053 256.516 68.0275C255.284 67.0967 255.127 65.9947 256.53 65.1716C263.681 60.7806 273.931 51.4911 276.549 43.7232C276.95 41.9922 276.96 39.8295 276.167 38.1798C274.261 34.7537 270.076 35.6114 266.591 37.1437C257.936 41.4348 250.102 54.6056 247.182 63.8047C246.919 64.6785 246.935 65.7805 246.138 66.3672C244.521 67.284 241.497 67.4971 240.106 66.7297C239.351 66.3081 239.092 65.3231 239.142 64.4597C239.329 60.8969 243.246 58.0639 245.29 55.4998C247.614 52.6225 250.527 48.5279 251.123 45.1906C251.617 42.7419 249.618 40.6509 247.175 40.6985C241.312 40.665 236.334 46.8152 232.053 50.4182C230.923 51.2793 228.763 52.9273 227.735 53.7071C227.669 53.763 227.123 54.1665 227.251 53.986L227.256 53.9765C229.003 51.8417 230.886 49.5241 232.884 47.5979C238.04 42.3554 248.253 36.4295 247.752 28.3697C247.626 27.2872 247.042 26.268 246.18 25.8161C235.536 21.8671 225.378 52.7638 219.959 60.4068L219.961 60.4045ZM261.347 47.8407C262.8 46.7264 265.845 44.7662 267.514 45.9801C270.648 50.3844 261.456 57.812 258.107 60.2061C257.088 60.9172 255.362 62.0813 254.351 62.5338C254.069 62.6547 253.706 62.7837 253.497 62.4999L253.482 62.4782C252.341 56.8266 257.297 51.2292 261.349 47.8383L261.347 47.8407Z" fill="black"/>
<path d="M194.534 81.6208C198.485 80.7757 201.082 78.7459 203.698 75.4866C209.478 68.282 214.078 56.5909 217.732 49.7409C220.728 44.2541 224.224 38.6122 227.826 33.4874C228.711 32.2611 229.556 30.9771 230.496 29.7851C230.921 29.2654 231.299 28.9087 231.883 28.653C232.903 28.2268 234.275 27.9493 235.462 27.5094C238.268 26.4543 241.29 23.8195 242.036 21.0309C242.271 19.9784 242.064 18.9302 241.525 17.9046C240.842 16.6201 239.712 15.6222 238.294 15.3315C232.599 14.2112 228.896 20.3931 226.363 24.9312C226.147 25.3192 225.874 25.7489 225.523 25.9707C224.801 26.4472 223.84 26.1313 222.848 25.9026C215.909 24.1101 208.835 20.6104 201.58 22.6871C195.268 24.3647 188.654 29.1758 188.139 36.0355C187.88 39.5068 189.73 42.8796 193.49 43.1756C199.812 43.775 202.432 36.8619 207.014 33.8601C210.259 31.5615 214.145 30.4944 218.1 30.1504C219.189 30.053 220.298 30.0012 221.414 29.9874C221.832 29.9994 222.418 29.9456 222.696 30.2899L222.708 30.3115C222.893 30.6139 222.541 31.2251 222.328 31.5775C218.37 38.2014 214.273 44.7777 209.665 50.97C206.525 54.7329 202.473 61.9345 197.388 62.3918C194.674 62.5534 192.077 61.2141 189.45 62.4384C185.739 64.0546 183.052 68.1436 182.936 71.5059C182.409 77.9855 188.082 83.1369 194.53 81.6231L194.534 81.6208Z" fill="black"/>
</svg>
