<svg width="100%" viewBox="0 0 208 56" fill="none" xmlns="http://www.w3.org/2000/svg">
<path d="M117.35 46.64C118.61 46.64 119.88 46.59 121.1 46.55C122.37 46.5 123.55 46.46 124.75 46.46C125.85 46.46 126.82 46.5 127.71 46.58H127.87H127.98C130.87 46.53 133.92 46.51 137.33 46.51C142.05 46.51 146.99 46.56 151.34 46.6C155.71 46.64 160.66 46.69 165.42 46.69C168.01 46.69 170.38 46.68 172.64 46.65C173.55 46.7 174.36 46.83 174.96 47.01C176.01 47.38 176.83 48.18 177.86 49.2C179.25 50.57 180.99 52.28 183.77 53.09C185.91 53.84 188.1 54.22 190.31 54.22C195.75 54.22 200.7 51.9 203.55 48.02C206.2 44.41 206.83 39.74 205.34 34.86L205.32 34.76L205.29 34.65C204.91 33.18 205.13 31.59 205.39 29.75C205.55 28.59 205.72 27.39 205.74 26.13V26C205.71 25.25 205.73 24.46 205.74 23.63C205.79 21.03 205.84 18.08 204.57 15.36L204.53 15.27C203.66 13.59 202.42 12.27 201.31 11.1C201.06 10.83 200.81 10.58 200.57 10.31C197.76 6.88 194.82 5.15 191.81 5.15C190.77 5.15 189.72 5.36 188.72 5.78C185.69 7.13 182.26 8.1 178.17 8.78C178 8.8 177.85 8.81 177.69 8.81C176.73 8.81 175.66 8.51 174.53 8.19C174.07 8.06 173.61 7.93 173.14 7.82C172.15 7.56 171.08 7.43 169.86 7.43C168.92 7.43 168.02 7.5 167.14 7.57C165.53 7.7 164.1 7.76 163.08 7.52C162.09 7.3 161.21 6.35 160.28 5.33L160.09 5.12C157.82 2.33 154.89 0.979996 151.12 0.979996C149.37 0.979996 147.58 1.27 146.05 1.55C145.07 1.63 144.24 1.66 143.43 1.7C139.46 1.87 136.34 2.01 132.36 6.31L132.03 6.67L131.66 6.35C131.34 6.07 130.95 5.67 130.68 5.4C130.28 5 129.89 4.6 129.48 4.24C127.55 2.66 125.01 1.8 122.31 1.8C119.61 1.8 116.91 2.71 115.01 4.38L114.8 4.59L114.2 5.26C112.3 7.39 111.39 8.33 109.77 8.33C109.34 8.33 108.85 8.27 108.31 8.15L108.19 8.13C105.6 7.68 103 7.62 100.58 7.62H97.44C95.31 7.63 93.04 7.58 90.88 7.22C89.81 6.96 88.77 6.39 87.66 5.79C86.97 5.41 86.27 5.03 85.51 4.69C82.78 3.49 78.83 2.75 75.2 2.75C72.72 2.75 69.24 3.1 66.68 4.77C65.61 5.48 64.87 6.45 64.27 7.23C63.87 7.75 63.52 8.2 63.27 8.39L63.17 8.46L63.05 8.48C63.05 8.48 62.94 8.5 62.85 8.5C62.38 8.5 61.72 8.32 61.08 8.15C60.77 8.07 60.47 7.98 60.17 7.91C56.68 6.96 52.91 7.09 49.57 8.26L49.15 8.4C47.82 8.86 46.54 9.26 45.59 9.07C42.83 8.34 40.68 7.27 39.16 5.88C36.67 3.33 33.78 1.94 30.79 1.85C28.49 1.7 26.1 2.06 23.84 2.4C22.05 2.67 20.37 2.92 18.81 2.93H18.66C17.88 2.93 17.08 2.91 16.28 2.9C15.37 2.88 14.52 2.86 13.68 2.86C12.35 2.86 11.27 2.9 10.28 2.99C7.13002 3.15 4.75002 4.17 3.16002 6.04C0.69002 8.95 0.86002 13.09 1.20002 15.95C1.32002 18.6 2.63002 20.56 3.69002 22.14C4.09002 22.73 4.46002 23.29 4.76002 23.86C5.41002 25.34 5.30002 27.22 5.18002 29.22C5.03002 31.78 4.86002 34.68 6.22002 37.38C7.62002 39.93 9.67002 41.92 11.47 43.68L11.94 44.14L12.04 44.24C14.56 46.45 17.86 46.73 20.45 46.73H21.13C23.03 46.54 25.11 46.46 27.5 46.46C29.74 46.46 32.05 46.53 34.27 46.6C36.63 46.68 38.98 46.75 41.31 46.75C42.44 46.75 43.47 46.73 44.47 46.7C46.06 46.68 47.54 46.41 48.98 46.14C51.05 45.76 53.01 45.47 54.53 45.91C58.82 47.01 62.14 47.19 65.18 46.55C65.7 46.45 66.22 46.34 66.73 46.22C67.61 46.02 68.52 45.82 69.34 45.76C70.54 45.81 71.74 46 73.01 46.19C74.69 46.45 76.39 46.71 78.14 46.71C80.18 46.71 81.95 46.35 83.56 45.6C85.32 44.94 86.36 43.48 87.2 42.3C87.4 42.02 87.62 41.72 87.81 41.47L88.16 41.04L88.56 41.43C88.72 41.59 88.89 41.76 89.04 41.93L89.18 42.08C91.97 45.28 95.44 46.97 98.99 46.81C102.12 46.63 106.24 46.43 110.34 46.43C112.63 46.43 114.74 46.49 116.79 46.61H116.91H117.34L117.35 46.64ZM110.33 43.96C106.51 43.96 102.7 44.12 98.87 44.34C98.75 44.34 98.64 44.34 98.52 44.34C95.55 44.34 92.95 42.65 91.03 40.43C90.46 39.84 89.89 39.18 89.17 38.8C88.77 38.62 88.41 38.54 88.08 38.54C85.74 38.54 84.9 42.56 82.62 43.31C81.17 44.01 79.66 44.24 78.13 44.24C75.21 44.24 72.21 43.39 69.34 43.28C67.77 43.35 66.23 43.83 64.69 44.11C63.64 44.33 62.58 44.43 61.51 44.43C59.4 44.43 57.28 44.05 55.23 43.53C54.38 43.28 53.53 43.18 52.68 43.18C49.93 43.18 47.19 44.19 44.42 44.21C43.38 44.25 42.34 44.26 41.31 44.26C36.7 44.26 32.1 43.96 27.5 43.96C25.3 43.96 23.1 44.03 20.9 44.23C20.75 44.23 20.6 44.23 20.45 44.23C18.07 44.23 15.53 43.97 13.69 42.36C11.8 40.51 9.74002 38.6 8.45002 36.26C6.37002 32.14 8.90002 26.9 7.01002 22.78C5.79002 20.44 3.77002 18.59 3.69002 15.78C3.02002 10.33 3.90002 5.78 10.42 5.48C11.47 5.38 12.56 5.35 13.66 5.35C15.33 5.35 17.03 5.42 18.64 5.42C18.69 5.42 18.75 5.42 18.8 5.42C22.31 5.42 26.12 4.31 29.64 4.31C29.98 4.31 30.31 4.32 30.65 4.34C33.31 4.41 35.59 5.79 37.39 7.66C39.48 9.61 42.23 10.78 44.98 11.5C45.37 11.59 45.76 11.63 46.14 11.63C47.59 11.63 49.01 11.09 50.38 10.63C51.98 10.07 53.69 9.79 55.4 9.79C56.79 9.79 58.19 9.97 59.53 10.34C60.58 10.59 61.73 11.01 62.83 11.01C63.16 11.01 63.49 10.97 63.81 10.88C65.59 10.39 66.38 7.96 68.03 6.87C69.78 5.72 72.42 5.26 75.18 5.26C78.58 5.26 82.16 5.97 84.46 6.98C86.42 7.87 88.21 9.2 90.34 9.68999C92.67 10.09 95.04 10.15 97.41 10.15C98.46 10.15 99.51 10.14 100.55 10.14C102.96 10.14 105.36 10.2 107.73 10.62C108.47 10.79 109.14 10.86 109.74 10.86C112.83 10.86 114.34 8.83 116.63 6.29C118.13 4.98 120.21 4.33 122.29 4.33C124.32 4.33 126.34 4.95 127.84 6.18C129.1 7.25 130.48 9.26 132.09 9.26C132.61 9.26 133.16 9.05 133.73 8.52C137.98 3.66 140.28 4.54 146.32 4.07C147.96 3.76 149.56 3.51 151.09 3.51C153.73 3.51 156.14 4.26 158.15 6.77C159.38 8.11 160.62 9.57 162.47 9.98C163.23 10.16 164.01 10.22 164.8 10.22C166.46 10.22 168.15 9.95 169.82 9.95C170.72 9.95 171.6 10.03 172.47 10.26C174.18 10.68 175.87 11.33 177.64 11.33C177.91 11.33 178.18 11.31 178.45 11.28C182.3 10.65 186.06 9.7 189.62 8.11C190.35 7.81 191.07 7.67 191.76 7.67C194.5 7.67 196.88 9.80999 198.62 11.95C199.91 13.37 201.36 14.7 202.25 16.43C203.63 19.39 203.07 22.91 203.19 26.1C203.14 29.17 202.03 32.24 202.82 35.28L202.86 35.48C205.95 45.34 198.68 51.73 190.25 51.73C188.35 51.73 186.4 51.41 184.49 50.73C180.35 49.57 179.12 45.82 175.7 44.65C174.79 44.36 173.68 44.21 172.65 44.16C170.22 44.19 167.79 44.2 165.37 44.2C156 44.2 146.64 44.02 137.29 44.02C134.16 44.02 131.03 44.04 127.9 44.09C126.84 44 125.78 43.96 124.72 43.96C122.25 43.96 119.79 44.14 117.32 44.14C117.18 44.14 117.05 44.14 116.91 44.14C114.7 44.01 112.5 43.96 110.31 43.96H110.33Z" fill="white"/>
<path d="M206.26 34.56L206.22 34.41C205.89 33.13 206.1 31.63 206.34 29.89C206.51 28.7 206.68 27.47 206.7 26.08V25.97C206.67 25.24 206.68 24.47 206.7 23.65C206.75 20.94 206.8 17.88 205.44 14.95L205.38 14.82C204.45 13.02 203.15 11.64 201.99 10.41C201.75 10.16 201.51 9.9 201.29 9.66C198.3 6.01 195.1 4.16 191.77 4.16C190.59 4.16 189.42 4.4 188.21 4.9C185.32 6.19 181.97 7.13 178 7.8C177.12 7.89 175.98 7.58 174.77 7.24C174.3 7.11 173.82 6.98 173.36 6.86C172.29 6.58 171.14 6.44 169.83 6.44C168.85 6.44 167.93 6.51 167.01 6.59C165.53 6.71 164.18 6.77 163.27 6.56C162.59 6.41 161.77 5.53 160.99 4.67L160.82 4.49C158.36 1.47 155.18 0 151.1 0C149.27 0 147.42 0.3 145.91 0.58C144.99 0.65 144.17 0.68 143.36 0.72C139.45 0.89 136.07 1.04 131.96 5.29C131.75 5.09 131.54 4.88 131.37 4.7C130.98 4.3 130.57 3.88 130.07 3.46C127.99 1.76 125.23 0.82 122.3 0.82C119.37 0.82 116.43 1.82 114.34 3.64L113.44 4.61C111.49 6.79 110.88 7.35 109.75 7.35C109.4 7.35 108.98 7.3 108.51 7.19L108.34 7.16C105.68 6.7 103.03 6.63 100.56 6.63H97.42C95.33 6.64 93.11 6.59 91.06 6.25C90.15 6.03 89.17 5.49 88.11 4.91C87.41 4.53 86.7 4.14 85.9 3.78C83.05 2.53 78.94 1.75 75.18 1.75C72.57 1.75 68.87 2.13 66.11 3.94C64.9 4.74 64.1 5.79 63.45 6.63C63.29 6.84 62.95 7.29 62.74 7.5C62.39 7.48 61.83 7.32 61.32 7.18C61 7.09 60.69 7.01 60.39 6.94C56.74 5.95 52.74 6.08 49.22 7.31L48.8 7.45C47.8 7.79 46.85 8.12 46.13 8.12C46 8.12 45.88 8.11 45.79 8.09C43.22 7.41 41.2 6.42 39.83 5.16C37.18 2.44 34.05 0.94 30.81 0.84C30.43 0.82 30.03 0.8 29.63 0.8C27.59 0.8 25.59 1.1 23.65 1.4C21.91 1.66 20.27 1.91 18.78 1.91H18.63C17.86 1.91 17.07 1.89 16.2 1.88C15.35 1.86 14.49 1.85 13.65 1.85C12.29 1.85 11.18 1.89 10.18 1.98C6.76999 2.15 4.13999 3.3 2.36999 5.39C-0.330009 8.6 -0.160009 13.02 0.199991 16.04C0.329991 18.93 1.72999 21.03 2.84999 22.71C3.22999 23.28 3.58999 23.82 3.84999 24.31C4.37999 25.53 4.27999 27.3 4.16999 29.18C4.00999 31.86 3.83999 34.9 5.31999 37.85L5.37999 37.96C6.80999 40.56 8.90999 42.61 10.77 44.42L11.38 45C14.15 47.43 17.68 47.74 20.45 47.74L21.22 47.72C23.09 47.55 25.15 47.47 27.5 47.47C29.73 47.47 32.02 47.54 34.32 47.62C36.6 47.69 38.96 47.77 41.31 47.77C42.45 47.77 43.49 47.75 44.5 47.72C46.17 47.7 47.69 47.42 49.17 47.15C51.12 46.79 52.93 46.51 54.26 46.9L54.38 46.93C58.68 48.03 62.22 48.22 65.39 47.56C65.91 47.46 66.44 47.35 66.96 47.23C67.84 47.03 68.67 46.85 69.36 46.8C70.45 46.85 71.62 47.03 72.9 47.23C74.58 47.49 76.32 47.76 78.15 47.76C80.34 47.76 82.25 47.37 83.96 46.57C85.97 45.82 87.11 44.22 88.05 42.9C88.12 42.81 88.19 42.7 88.27 42.6C88.29 42.62 88.31 42.64 88.33 42.66L88.46 42.8C91.3 46.07 94.89 47.87 98.55 47.87C98.72 47.87 98.89 47.87 99.06 47.86C102.18 47.69 106.29 47.48 110.36 47.48C112.63 47.48 114.72 47.54 116.75 47.66H117.36C118.64 47.66 119.92 47.62 121.18 47.58C123.54 47.49 125.81 47.44 127.63 47.61L127.84 47.63H128C130.88 47.58 133.93 47.55 137.33 47.55C142.05 47.55 146.98 47.6 151.33 47.64C155.7 47.68 160.66 47.73 165.42 47.73C168.02 47.73 170.38 47.72 172.62 47.69C173.41 47.73 174.15 47.85 174.65 48C175.48 48.29 176.22 49.02 177.16 49.95C178.63 51.4 180.47 53.21 183.46 54.08C185.68 54.86 187.98 55.25 190.3 55.25C196.06 55.25 201.31 52.78 204.35 48.64C207.19 44.77 207.88 39.79 206.29 34.58L206.26 34.56ZM116.79 46.64C114.74 46.52 112.63 46.46 110.34 46.46C106.24 46.46 102.12 46.66 98.99 46.84C95.45 47 91.97 45.31 89.18 42.11L89.04 41.96C88.89 41.8 88.72 41.62 88.56 41.46L88.16 41.07L87.81 41.5C87.61 41.75 87.39 42.06 87.2 42.33C86.36 43.51 85.32 44.97 83.56 45.63C81.95 46.38 80.18 46.74 78.14 46.74C76.39 46.74 74.69 46.48 73.01 46.22C71.74 46.02 70.54 45.84 69.34 45.79C68.52 45.84 67.61 46.05 66.73 46.25C66.22 46.37 65.71 46.48 65.18 46.58C62.14 47.22 58.82 47.04 54.53 45.94C53.01 45.49 51.05 45.78 48.98 46.17C47.55 46.43 46.07 46.71 44.47 46.73C43.47 46.77 42.43 46.78 41.31 46.78C38.98 46.78 36.63 46.7 34.27 46.63C32.04 46.56 29.74 46.49 27.5 46.49C25.11 46.49 23.03 46.57 21.13 46.75H20.45C17.86 46.76 14.56 46.48 12.04 44.27L11.94 44.17L11.47 43.71C9.66999 41.95 7.61999 39.96 6.21999 37.41C4.85999 34.7 5.02999 31.81 5.17999 29.25C5.29999 27.25 5.40999 25.37 4.75999 23.89C4.45999 23.33 4.08999 22.77 3.68999 22.17C2.62999 20.59 1.31999 18.62 1.19999 15.98C0.859991 13.12 0.689991 8.97 3.14999 6.07C4.72999 4.2 7.11999 3.17 10.27 3.02C11.26 2.93 12.34 2.89 13.67 2.89C14.51 2.89 15.36 2.91 16.27 2.93C17.07 2.95 17.87 2.96 18.65 2.96H18.8C20.36 2.96 22.04 2.7 23.83 2.43C26.1 2.09 28.48 1.73 30.78 1.88C33.78 1.97 36.66 3.36 39.15 5.91C40.67 7.3 42.82 8.37 45.58 9.1C46.53 9.29 47.8 8.89 49.14 8.43L49.56 8.29C52.89 7.13 56.67 7 60.16 7.94C60.46 8.01 60.76 8.09 61.07 8.18C61.71 8.35 62.37 8.53 62.84 8.53C62.93 8.53 62.99 8.53 63.04 8.51L63.16 8.49L63.26 8.42C63.51 8.23 63.86 7.78 64.26 7.26C64.86 6.48 65.6 5.51 66.67 4.8C69.22 3.13 72.71 2.78 75.19 2.78C78.82 2.78 82.78 3.53 85.5 4.72C86.26 5.06 86.96 5.45 87.65 5.82C88.75 6.42 89.79 6.99 90.87 7.25C93.03 7.61 95.3 7.66 97.43 7.66H100.57C102.99 7.65 105.59 7.71 108.18 8.16L108.3 8.18C108.84 8.3 109.33 8.36 109.76 8.36C111.39 8.36 112.29 7.42 114.19 5.29L114.79 4.62L115 4.41C116.91 2.75 119.5 1.83 122.3 1.83C125.1 1.83 127.54 2.69 129.47 4.27C129.89 4.62 130.28 5.02 130.67 5.43C130.94 5.71 131.33 6.1 131.65 6.38L132.02 6.7L132.35 6.34C136.33 2.04 139.45 1.9 143.42 1.73C144.23 1.69 145.06 1.66 146.04 1.58C147.57 1.3 149.36 1.01 151.11 1.01C154.88 1.01 157.8 2.36 160.08 5.15L160.27 5.36C161.2 6.38 162.08 7.33 163.07 7.55C164.1 7.79 165.53 7.72 167.13 7.6C168.01 7.53 168.91 7.46 169.85 7.46C171.07 7.46 172.14 7.59 173.13 7.85C173.59 7.96 174.05 8.09 174.52 8.22C175.65 8.54 176.71 8.84 177.68 8.84C177.83 8.84 177.98 8.84 178.16 8.81C182.25 8.13 185.68 7.16 188.71 5.81C189.72 5.39 190.76 5.18 191.8 5.18C194.81 5.18 197.75 6.91 200.56 10.34C200.8 10.6 201.04 10.86 201.3 11.13C202.4 12.3 203.65 13.62 204.52 15.3L204.56 15.39C205.83 18.11 205.77 21.06 205.73 23.66C205.72 24.5 205.7 25.28 205.73 26.03V26.16C205.71 27.42 205.54 28.62 205.38 29.78C205.12 31.62 204.9 33.21 205.28 34.68L205.31 34.79L205.33 34.89C206.82 39.77 206.19 44.44 203.54 48.05C200.69 51.93 195.74 54.25 190.3 54.25C188.09 54.25 185.9 53.87 183.76 53.12C180.98 52.31 179.25 50.6 177.85 49.23C176.82 48.21 176.01 47.41 174.95 47.04C174.35 46.86 173.54 46.73 172.63 46.68C170.37 46.71 168 46.72 165.41 46.72C160.66 46.72 155.7 46.67 151.33 46.63C146.98 46.59 142.04 46.54 137.32 46.54C133.92 46.54 130.86 46.56 127.97 46.61H127.86H127.7C126.81 46.53 125.84 46.49 124.74 46.49C123.54 46.49 122.37 46.53 121.09 46.58C119.87 46.62 118.6 46.67 117.34 46.67H116.91H116.79V46.64Z" fill="black"/>
<path d="M138.65 24.33V24.2C138.86 19.37 134.13 19.71 134.47 24.4C134.16 29.06 139.05 28.96 138.65 24.33Z" fill="black"/>
<path d="M119.28 24.26V24.13C119.16 23.14 119.11 21.76 118.22 21.09C117.38 20.46 116.03 20.78 115.61 21.68C114.73 23.44 114.45 27.69 117.24 27.8C119.03 27.9 119.34 25.4 119.28 24.26Z" fill="black"/>
<path d="M77.61 15.66C76.34 15.95 76.04 17.96 76.09 18.97V19.09C76.15 20.13 76.38 21.99 77.74 22.15C80.76 22.65 80.65 15.19 77.61 15.67V15.66Z" fill="black"/>
<path d="M186.81 19.9C184.22 19.28 183.68 22.99 186.47 23.06H186.56C188.26 22.82 188.44 20.42 186.81 19.9Z" fill="black"/>
<path d="M190.15 35.8C188.05 34.91 185.53 35.91 183.31 35.97C181.84 36.3 182.97 37.24 184.01 37.32C184.85 37.49 186.19 37.62 186.91 37.59H187.04C187.96 37.61 191.44 37.5 190.14 35.79L190.15 35.8Z" fill="black"/>
<path d="M55.71 20.86C55.57 20.54 55.09 20.07 54.73 20.04C53.71 19.81 52.4 20.36 52.23 21.49C52.13 22.16 52.75 22.85 53.39 22.79H53.46C54.38 22.79 56.24 22.09 55.71 20.86Z" fill="black"/>
<path d="M202.88 35.48L202.84 35.28C202.06 32.24 203.17 29.17 203.21 26.1C203.1 22.91 203.65 19.39 202.27 16.43C201.38 14.71 199.93 13.37 198.64 11.95C196.46 9.26001 193.29 6.59001 189.64 8.11001C186.09 9.69001 182.32 10.64 178.47 11.28C176.41 11.53 174.46 10.74 172.49 10.26C169.23 9.38001 165.72 10.73 162.49 9.98001C160.63 9.57001 159.4 8.11001 158.17 6.77001C155 2.81001 150.83 3.23001 146.34 4.07001C140.3 4.54001 138.01 3.67001 133.75 8.52001C131.41 10.66 129.52 7.59001 127.86 6.18001C124.82 3.69001 119.61 3.71001 116.65 6.29001C113.92 9.32001 112.29 11.64 107.75 10.62C102.01 9.62001 96.08 10.67 90.35 9.70001C88.22 9.21001 86.43 7.88001 84.47 6.99001C80.31 5.16001 71.96 4.32001 68.04 6.88001C66.4 7.97001 65.61 10.4 63.82 10.89C62.43 11.3 60.91 10.67 59.53 10.35C56.55 9.53001 53.28 9.62001 50.38 10.63C48.64 11.22 46.83 11.93 44.97 11.51C42.22 10.79 39.47 9.62001 37.38 7.67001C35.58 5.80001 33.3 4.42001 30.64 4.35001C26.85 4.10001 22.64 5.42001 18.79 5.43001C16.07 5.43001 13.09 5.24001 10.41 5.49001C3.88998 5.79001 3.00998 10.34 3.67998 15.79C3.75998 18.6 5.76998 20.46 6.99998 22.79C8.88998 26.91 6.35998 32.15 8.43998 36.27C9.72998 38.61 11.79 40.52 13.67 42.37C15.63 44.09 18.38 44.27 20.88 44.24C28.72 43.53 36.54 44.49 44.4 44.22C48.03 44.19 51.6 42.48 55.21 43.54C58.3 44.33 61.56 44.79 64.67 44.12C66.21 43.84 67.75 43.36 69.32 43.29C73.7 43.45 78.38 45.34 82.59 43.32C85.2 42.46 85.92 37.35 89.14 38.81C89.87 39.19 90.44 39.85 91.01 40.44C93.01 42.75 95.74 44.49 98.85 44.35C104.88 44.01 110.86 43.8 116.91 44.16C120.56 44.19 124.22 43.78 127.9 44.11C142.79 43.85 157.73 44.36 172.66 44.17C173.68 44.22 174.8 44.37 175.71 44.66C179.13 45.83 180.36 49.57 184.5 50.74C194.89 54.45 206.66 47.57 202.87 35.5L202.88 35.48ZM23.29 17.55C21.65 17.85 20 18.05 19.96 20.12C19.83 24.6 20.84 29.18 20.55 33.68C20.27 35.95 17.52 35.37 15.83 35.45C13.61 35.47 11.37 35.68 11.38 33.09C11.16 28.97 12.02 24.72 12.05 20.53C12.05 19.68 11.83 18.7 11.11 18.24C10.3 17.68 9.10998 17.85 8.26998 17.36C7.11998 16.73 7.29998 14.92 7.28998 13.46C7.30998 12.67 7.28998 11.89 7.37998 11.16C7.47998 9.63001 8.90998 9.25001 10.19 9.31001C11.95 9.31001 13.91 9.32001 15.62 9.31001H15.8C17.69 9.29001 19.96 9.27001 22.03 9.29001C23.69 9.19001 24.7 10.21 24.66 11.86C24.47 13.62 25.4 16.79 23.31 17.54L23.29 17.55ZM43.86 31.08C44 34.29 43.68 35.74 40.11 35.51C36.68 35.78 35.97 34.7 36.15 31.55C35.89 30.01 37.26 21.26 34.6 21.94C31.9 23.21 34.92 33.21 32.63 35.03C31.82 35.58 30.41 35.41 29.38 35.45C28.11 35.45 26.65 35.49 26.09 34.54C25.78 34.06 25.71 33.4 25.69 32.8C25.66 29.29 25.74 25.64 25.73 22.15V21.97C25.77 18.19 25.73 14.3 25.89 10.52C25.95 9.58001 26.3 8.60001 27.27 8.34001C28.06 8.12001 28.93 8.18001 29.75 8.17001C30.96 8.17001 32.34 8.10001 32.92 9.00001C33.65 10.2 33.15 11.74 33.39 13.05C33.47 13.53 33.64 13.94 33.95 14.16C34.33 14.44 34.9 14.4 35.52 14.22C38.23 13.07 41.87 13.64 42.97 16.69C44.77 21.14 43.66 26.38 43.86 31.07V31.08ZM57.44 28.17C61.38 28.14 62.48 27.47 62.29 31.53V31.71C62.68 36.13 58.95 35.8 55.69 35.69C49.58 35.67 44.47 30.61 45.05 24.31C44.8 17.07 51.71 11.69 58.53 13.94C62.53 14.94 64.18 20.07 61.93 23.33C60.63 25.23 58.23 25.68 56.03 26.02C52.51 26.9 55.44 28.31 57.43 28.19L57.44 28.17ZM85.28 26.06C84 27.51 82.14 28.28 80.3 28.72C78.99 29.02 77.8 29.64 77.54 31.03C77.27 32.11 77.6 33.33 77.21 34.39C76.4 36.1 73.83 35.29 72.27 35.48C70.57 35.6 68.91 35.18 68.93 33.16C68.82 29.55 68.93 25.95 69.02 22.41V22.23C69.07 18.75 69.17 15.32 69.33 11.86C69.37 11.26 69.48 10.59 69.81 10.12C70.2 9.54001 70.91 9.35001 71.59 9.30001C73.2 9.22001 74.87 9.22001 76.47 9.21001C80.31 9.18001 85.15 10.27 86.55 14.33C87.79 18.13 88.05 22.93 85.28 26.07V26.06ZM106.86 33.08C106.89 34.95 105.53 35.66 103.7 35.5C102.55 35.52 101.65 35.03 100.94 34.14C100.53 33.71 100.09 33.37 99.58 33.4C98.43 33.51 97.63 34.65 96.63 35.16C93.83 36.88 89.96 35.22 89.27 32.01C87.88 27.19 88.75 21.96 88.75 16.94C88.58 14.17 90.08 13.84 92.44 13.94C94.53 13.84 96.45 14 96.38 16.36C96.75 18.19 95.24 27.51 98.03 26.74C98.84 26.41 99.01 25.32 99.06 24.52C99.15 21.84 99.04 19.11 99.09 16.43C99.12 15.71 99.22 14.86 99.81 14.39C100.68 13.73 102.22 13.96 103.33 13.92C104.47 13.91 105.74 13.92 106.29 14.78C106.74 15.44 106.74 16.34 106.76 17.13C106.79 19.47 106.83 21.99 106.83 24.13V24.31C106.82 27.21 106.93 30.15 106.86 33.08ZM126.34 33.53C126.22 35.36 124.33 35.68 122.56 35.38C121.65 35.27 121.02 34.64 120.61 33.86C120.06 32.75 118.92 32.69 118.02 33.46C107.81 42.56 105.28 20.6 111.89 15.53C113.08 14.54 114.57 13.93 116.08 13.69C117.25 13.5 118.38 13.11 118.69 11.88C118.96 11 118.79 9.94001 119.23 9.11001C119.82 7.91001 121.75 8.10001 123.21 8.11001C123.8 8.14001 124.43 8.22001 124.93 8.55001C125.59 8.99001 125.77 9.84001 125.84 10.59C126.04 14.25 126.14 18.39 126.24 21.96V22.14C126.26 25.89 126.55 29.75 126.33 33.53H126.34ZM144.17 35.42C142.78 35.65 141.03 35.56 140.35 34.33C139.97 33.78 139.61 33 138.88 32.93C137.91 32.87 137.14 33.75 136.41 34.3C135.34 35.24 133.93 35.84 132.62 35.64C125.66 34.52 126.23 17.92 132.22 14.82C133.18 14.25 134.37 13.87 135.54 13.67C136.68 13.47 137.73 13.22 138.09 12.06C138.39 11.16 138.23 10.06 138.62 9.18001C139.13 7.90001 141.1 8.08001 142.47 8.09001C144.09 7.99001 145.26 8.99001 145.27 10.65C145.54 14.38 145.52 18.63 145.7 22.26V22.43C145.78 25.74 145.76 28.99 145.81 32.31C145.85 33.57 145.68 35.22 144.16 35.4L144.17 35.42ZM151.15 7.07001H151.3C152.42 7.00001 154.44 7.31001 154.98 8.68001C155.84 10.56 154.58 12.69 152.4 12.71C151.06 12.8 149.54 12.77 148.57 11.72C146.84 9.71001 148.75 6.97001 151.16 7.07001H151.15ZM155.74 33.55C155.67 35.13 154.13 35.51 152.81 35.43C151.27 35.29 148.67 35.96 147.85 34.5C147.08 31.59 147.73 28.32 147.64 25.32V25.14C147.99 21.97 147.32 17.91 148.46 14.8C149.32 13.56 151.84 14.03 153.38 14.04C154.91 14.1 155.31 15.62 155.31 16.92C155.45 19.65 155.55 22.4 155.63 25.18C155.7 27.96 155.91 30.76 155.73 33.54L155.74 33.55ZM175.48 32.73C175.6 35.27 173.9 35.58 171.79 35.5C169.62 35.6 167.73 35.43 167.78 32.98C167.72 30.1 167.94 27.24 167.71 24.38C167.64 23.86 167.48 23.27 167.12 22.92C166.33 22.15 165.47 23.09 165.33 23.93C164.79 27.03 165.38 30.32 165.1 33.45C165.02 34.04 164.79 34.61 164.32 34.97C163.37 35.68 161.79 35.46 160.61 35.49C159.21 35.52 157.9 35.36 157.55 34C157.01 31.14 157.55 28.03 157.4 25.12V24.94C157.46 21.84 157.23 18.59 157.64 15.54C157.98 13.82 160.24 13.78 161.69 14.18C162.84 14.44 163.32 16.09 164.53 16.05C165.68 15.95 166.5 14.82 167.49 14.3C169.89 12.81 173.47 13.83 174.57 16.5C176.42 21.65 175.25 27.32 175.48 32.74V32.73ZM193.88 40.3C191.91 42.55 188.55 43.28 185.71 43.2H185.53C181.62 43.24 176.24 41.44 178.11 36.92C178.45 35.82 178.08 34.81 177.59 33.83C176.58 31.92 177.81 30 178.69 28.28C179.08 27.31 178.57 26.35 178.11 25.5C177.27 23.99 176.82 22.35 176.93 20.74C177.12 15.61 182.34 13.16 186.96 13.61C187.6 13.61 188.26 13.59 188.86 13.37C189.93 13.06 190.58 11.84 191.51 11.29C192.73 10.64 194.26 12.08 194.67 13.13C195.05 14.25 193.99 15.33 194.03 16.42C194.03 17.03 194.27 17.65 194.48 18.23C196.91 24.76 192.53 29.06 186.01 28.98C185.37 29.08 184.17 29.2 184.14 29.96C184.2 30.4 185.13 30.56 186.05 30.41C188.21 30.09 190.58 29.27 192.71 30.13C196.45 31.78 196.21 37.61 193.86 40.31L193.88 40.3Z" fill="black"/>
</svg>
